<svg width="25" height="31" viewBox="0 0 25 31" fill="none" xmlns="http://www.w3.org/2000/svg">
<path d="M12.9427 24.2497L10.8426 17.7508C10.7699 17.5459 10.6345 17.3692 10.4557 17.2456C10.2769 17.122 10.0637 17.0578 9.84638 17.0622C9.62906 17.0578 9.41587 17.122 9.23707 17.2456C9.05826 17.3692 8.9229 17.5459 8.85019 17.7508L6.75 24.2497M16.8125 17.0622V24.2497M7.52338 22.0935H12.1679" stroke="#0084FF" stroke-width="1.5" stroke-linecap="round" stroke-linejoin="round"/>
<path d="M1.38525 25.4648C1.70869 27.8654 3.69675 29.7471 6.1175 29.8578C8.153 29.9512 10.2216 30.0001 12.5 30.0001C14.7784 30.0001 16.847 29.9512 18.8825 29.8563C21.3033 29.7471 23.2913 27.8654 23.6148 25.4648C23.8261 23.8979 24 22.2922 24 20.6563C24 19.0205 23.8261 17.4148 23.6148 15.8479C23.2913 13.4473 21.3033 11.5656 18.8825 11.4549C16.7564 11.3577 14.6283 11.3103 12.5 11.3126C10.2216 11.3126 8.153 11.3615 6.1175 11.4563C3.69675 11.5656 1.70869 13.4473 1.38525 15.8479C1.1725 17.4148 1 19.0205 1 20.6563C1 22.2922 1.17394 23.8979 1.38525 25.4648Z" stroke="#0084FF" stroke-width="1.5" stroke-linecap="round" stroke-linejoin="round"/>
<path d="M6.03125 11.3125V7.71875C6.03125 6.00313 6.71278 4.35778 7.9259 3.14465C9.13903 1.93153 10.7844 1.25 12.5 1.25C14.2156 1.25 15.861 1.93153 17.0741 3.14465C18.2872 4.35778 18.9688 6.00313 18.9688 7.71875V11.3125" stroke="#0084FF" stroke-width="1.5" stroke-linecap="round" stroke-linejoin="round"/>
</svg>
