<svg width="18" height="31" viewBox="0 0 18 31" fill="none" xmlns="http://www.w3.org/2000/svg">
<path d="M16.9108 18.0861C16.4729 17.3079 15.8798 16.6281 15.1682 16.0887C14.4566 15.5493 13.6417 15.1619 12.7742 14.9506C11.9604 14.7064 11.1344 14.5047 10.2997 14.3461V5.78C11.9592 5.95801 13.5424 6.57045 14.8897 7.55556C14.9827 7.63803 15.0911 7.70138 15.2086 7.74199C15.3261 7.78259 15.4505 7.79965 15.5745 7.79219C15.6986 7.78474 15.8201 7.75292 15.9319 7.69854C16.0436 7.64416 16.1436 7.5683 16.2261 7.47528C16.3086 7.38226 16.3719 7.27391 16.4125 7.1564C16.4531 7.0389 16.4702 6.91455 16.4628 6.79046C16.4553 6.66636 16.4235 6.54495 16.3691 6.43316C16.3147 6.32136 16.2389 6.22137 16.1458 6.13889C14.4555 4.83707 12.4258 4.0501 10.2997 3.87222V0.944445C10.2997 0.693962 10.2002 0.453739 10.0231 0.276621C9.84599 0.0995037 9.60577 0 9.35528 0C9.1048 0 8.86458 0.0995037 8.68746 0.276621C8.51034 0.453739 8.41084 0.693962 8.41084 0.944445V3.77778C4.25528 3.87222 1.96028 5.94056 1.2614 7.72556C0.795158 8.87499 0.750862 10.1524 1.13636 11.3313C1.52186 12.5103 2.31226 13.5147 3.36751 14.1667C4.90355 15.103 6.62404 15.6958 8.41084 15.9044V24.5556C5.94519 24.4314 3.5832 23.525 1.66751 21.9678C1.58201 21.866 1.47601 21.7835 1.35643 21.7255C1.23685 21.6675 1.10639 21.6355 0.973558 21.6314C0.84073 21.6273 0.708534 21.6513 0.585608 21.7017C0.462683 21.7522 0.351797 21.8281 0.260198 21.9244C0.168599 22.0207 0.0983494 22.1352 0.0540414 22.2605C0.00973341 22.3858 -0.00763566 22.519 0.00306941 22.6514C0.0137745 22.7839 0.0523133 22.9126 0.116166 23.0292C0.180018 23.1457 0.267747 23.2475 0.373618 23.3278C2.63304 25.2291 5.46031 26.3254 8.41084 26.4445V29.2778C8.41084 29.5283 8.51034 29.7685 8.68746 29.9456C8.86458 30.1227 9.1048 30.2222 9.35528 30.2222C9.60577 30.2222 9.84599 30.1227 10.0231 29.9456C10.2002 29.7685 10.2997 29.5283 10.2997 29.2778V26.4445C12.9631 26.265 16.0325 25.415 17.1942 21.9489C17.4043 21.3182 17.4875 20.6522 17.4389 19.9892C17.3903 19.3262 17.2108 18.6794 16.9108 18.0861ZM4.43473 12.58C3.74509 12.1695 3.22451 11.5264 2.96656 10.7664C2.70862 10.0065 2.73023 9.17937 3.02751 8.43389C3.1314 8.15056 4.18917 5.78 8.41084 5.66667V13.9778C7.00196 13.7965 5.64713 13.3202 4.43473 12.58ZM15.3997 21.3067C14.7197 23.3278 13.2086 24.3006 10.2997 24.5178V16.2728C10.9042 16.405 11.5275 16.5561 12.1886 16.7544C12.8131 16.8963 13.4023 17.1637 13.9202 17.5404C14.4381 17.917 14.874 18.3951 15.2014 18.9456C15.5718 19.6769 15.6429 20.5238 15.3997 21.3067Z" fill="#0084FF"/>
</svg>
