<svg width="33" height="30" viewBox="0 0 33 30" fill="none" xmlns="http://www.w3.org/2000/svg">
<path d="M3 0C2.20435 0 1.44129 0.316071 0.87868 0.87868C0.316071 1.44129 0 2.20435 0 3V11C0 11.7956 0.316071 12.5587 0.87868 13.1213C1.44129 13.6839 2.20435 14 3 14H21C21.7957 14 22.5587 13.6839 23.1213 13.1213C23.6839 12.5587 24 11.7956 24 11V3C24 2.20435 23.6839 1.44129 23.1213 0.87868C22.5587 0.316071 21.7957 0 21 0H3ZM2 3C2 2.73478 2.10536 2.48043 2.29289 2.29289C2.48043 2.10536 2.73478 2 3 2H21C21.2652 2 21.5196 2.10536 21.7071 2.29289C21.8946 2.48043 22 2.73478 22 3V11C22 11.2652 21.8946 11.5196 21.7071 11.7071C21.5196 11.8946 21.2652 12 21 12H3C2.73478 12 2.48043 11.8946 2.29289 11.7071C2.10536 11.5196 2 11.2652 2 11V3ZM3 16C2.20435 16 1.44129 16.3161 0.87868 16.8787C0.316071 17.4413 0 18.2044 0 19V27C0 27.7956 0.316071 28.5587 0.87868 29.1213C1.44129 29.6839 2.20435 30 3 30H21C21.7957 30 22.5587 29.6839 23.1213 29.1213C23.6839 28.5587 24 27.7956 24 27V19C24 18.2044 23.6839 17.4413 23.1213 16.8787C22.5587 16.3161 21.7957 16 21 16H3ZM2 19C2 18.7348 2.10536 18.4804 2.29289 18.2929C2.48043 18.1054 2.73478 18 3 18H21C21.2652 18 21.5196 18.1054 21.7071 18.2929C21.8946 18.4804 22 18.7348 22 19V27C22 27.2652 21.8946 27.5196 21.7071 27.7071C21.5196 27.8946 21.2652 28 21 28H3C2.73478 28 2.48043 27.8946 2.29289 27.7071C2.10536 27.5196 2 27.2652 2 27V19ZM30 18.874C29.4089 19.0254 28.7911 19.0398 28.1936 18.916C27.5961 18.7923 27.0348 18.5337 26.5524 18.16C26.0701 17.7863 25.6795 17.3073 25.4105 16.7597C25.1414 16.212 25.001 15.6102 25 15C24.9998 14.113 25.2944 13.2512 25.8374 12.5499C26.3805 11.8486 27.1412 11.3477 28 11.126C28.6559 10.9566 29.3441 10.9566 30 11.126C30.8595 11.347 31.6212 11.8476 32.165 12.5489C32.7088 13.2502 33.004 14.1125 33.004 15C33.004 15.8875 32.7088 16.7498 32.165 17.4511C31.6212 18.1524 30.8595 18.653 30 18.874ZM29 0C29.2652 0 29.5196 0.105357 29.7071 0.292893C29.8947 0.48043 30 0.734784 30 1V9.082C29.338 8.97011 28.662 8.97011 28 9.082V1C28 0.734784 28.1054 0.48043 28.2929 0.292893C28.4804 0.105357 28.7348 0 29 0ZM29 21C28.66 21 28.3267 20.9727 28 20.918V29C28 29.2652 28.1054 29.5196 28.2929 29.7071C28.4804 29.8946 28.7348 30 29 30C29.2652 30 29.5196 29.8946 29.7071 29.7071C29.8947 29.5196 30 29.2652 30 29V20.918C29.6733 20.9713 29.34 20.9987 29 21Z" fill="#0084FF"/>
</svg>
