<svg width="44" height="44" viewBox="0 0 44 48" fill="none" xmlns="http://www.w3.org/2000/svg">
<path fill-rule="evenodd" clip-rule="evenodd" d="M2.1644 10.1832C2.412 10.1832 2.65962 10.2248 2.89474 10.3081C5.11283 8.29181 8.72482 7.48034 13.0155 7.83824C15.3085 3.02338 18.6149 0 22.2935 0C23.6044 0.0124847 24.8882 0.374531 26.0118 1.04872C27.1188 1.71456 28.103 2.56353 28.9228 3.56016C29.8425 3.27717 30.8392 3.63298 31.3698 4.43613C31.9003 5.23928 31.8358 6.2984 31.2137 7.03082C31.3489 7.293 31.4821 7.56141 31.6111 7.83606C31.8462 7.81733 32.0814 7.80069 32.3123 7.7882C43.0717 7.21601 47.1919 14.355 41.3176 23.3853C41.1907 23.5788 41.0596 23.7744 40.9265 23.968C41.0617 24.1615 41.1928 24.3571 41.3176 24.5506C47.1914 33.5831 43.0759 40.7198 32.3166 40.1477C32.0752 40.1352 31.8297 40.1186 31.58 40.0978C29.2808 44.9168 25.9726 47.9403 22.2934 47.9403C18.7312 47.9403 15.552 45.1874 13.286 40.7348C13.1799 40.5289 13.0758 40.3187 12.978 40.1044C11.0346 40.2937 9.07249 40.1751 7.16447 39.7548C-0.736099 37.8593 -0.731838 30.7101 3.27347 24.5572C3.40039 24.3637 3.53148 24.1681 3.66465 23.9704C1.22396 20.4435 0.127401 16.9189 0.762025 13.9972C0.718329 13.9598 0.674635 13.9202 0.633018 13.8786C0.0150137 13.2606 -0.170143 12.3284 0.164848 11.519C0.49985 10.7117 1.28842 10.1832 2.1644 10.1832ZM27.7597 4.4256C27.0585 3.58499 26.2242 2.86711 25.2858 2.30323C24.3827 1.75602 23.3486 1.46262 22.2936 1.4501C19.2412 1.4501 16.4758 3.95323 14.4698 8.00035C17.1497 8.39569 19.7736 9.09691 22.2936 10.0894C24.803 9.10106 27.4144 8.40193 30.0818 8.00451C30.0402 7.92128 29.9986 7.84013 29.957 7.7569L29.9549 7.75898C29.8259 7.78187 29.6927 7.79435 29.5595 7.79435C28.7605 7.79435 28.026 7.35324 27.6494 6.64789C27.2728 5.9446 27.3165 5.0894 27.7597 4.42356L27.7597 4.4256ZM4.02661 11.2422C4.42403 11.9122 4.43027 12.7445 4.04534 13.4207C3.65832 14.0969 2.94047 14.5152 2.16224 14.5131H2.13727C1.70448 16.881 2.61376 19.767 4.57382 22.7343H4.57173C6.25087 20.6203 8.16726 18.706 10.2793 17.0268C10.685 14.3613 11.3925 11.7521 12.3912 9.24872C8.82692 9.02816 5.86175 9.6836 4.02457 11.2442L4.02661 11.2422ZM15.6452 39.7523C15.2624 39.821 14.8837 39.8813 14.5071 39.9354C14.53 39.9833 14.5549 40.0311 14.5778 40.0769C16.5919 44.0386 19.3219 46.4876 22.2909 46.4876C25.3433 46.4876 28.1087 43.9845 30.1147 39.9352H30.1168C27.4389 39.5399 24.813 38.8386 22.2951 37.8461C21.4045 38.1915 20.5223 38.4974 19.6505 38.7658L19.6484 38.7637C19.5839 39.7022 18.9201 40.4908 18.0067 40.7155C17.0933 40.9402 16.1403 40.549 15.6451 39.75L15.6452 39.7523ZM19.2616 37.3719C19.6132 37.2658 19.9649 37.1513 20.3186 37.0286H20.3207C17.3765 35.7177 14.5801 34.1031 11.9748 32.2096C12.3889 34.3839 13.0256 36.5105 13.8724 38.5537C14.3531 38.4933 14.8441 38.4205 15.3414 38.331H15.3435C15.4517 37.5154 16.0135 36.8329 16.7938 36.5666C17.572 36.3023 18.4355 36.5041 19.0181 37.0847C19.1076 37.1741 19.1867 37.2699 19.2595 37.3718L19.2616 37.3719ZM30.7454 38.56C31.5881 36.5105 32.2186 34.3798 32.6264 32.201C30.0171 34.0966 27.2144 35.7154 24.2682 37.0283C26.3677 37.7607 28.5399 38.2749 30.7454 38.56ZM22.2935 36.2941C22.6202 36.163 22.949 36.0257 23.2798 35.8821C26.7422 34.384 29.9984 32.451 32.9718 30.1287C33.2527 28.0875 33.3942 26.0297 33.39 23.97C33.3921 21.908 33.2506 19.8501 32.9655 17.8091C29.7112 15.2706 26.1196 13.1961 22.2935 11.6461C18.467 13.1984 14.8734 15.2729 11.6172 17.8134C11.3342 19.8525 11.1948 21.9104 11.1968 23.9705C11.1948 26.0326 11.3363 28.0925 11.6234 30.1357C14.8756 32.6742 18.4674 34.7484 22.2935 36.2941ZM32.6161 15.7304C32.5537 15.4162 32.4892 15.104 32.4206 14.7961C32.0148 12.9442 31.4447 11.1319 30.7144 9.38418C28.5192 9.67132 26.3614 10.1832 24.2701 10.9114C27.2123 12.2244 30.0087 13.839 32.6161 15.7304ZM34.3161 17.0308H34.314C36.4239 18.71 38.3361 20.6222 40.0131 22.7341C40.0422 22.6883 40.0734 22.6446 40.1025 22.5989C45.3273 14.5651 41.9544 8.72867 32.3873 9.2363L32.2271 9.24463C32.9054 10.9446 33.4423 12.6966 33.8335 14.4839C34.0186 15.31 34.1788 16.159 34.3161 17.0308ZM10.2708 30.9074C8.16306 29.2304 6.25083 27.3181 4.57606 25.2084C4.54693 25.2542 4.51572 25.2978 4.48659 25.3436C1.01592 30.6826 0.655944 36.7066 7.49948 38.3482C9.09541 38.6999 10.7329 38.8185 12.3622 38.6957C11.3717 36.1864 10.6703 33.5749 10.2708 30.9074ZM5.44975 23.9704C6.79597 25.7287 8.31908 27.3412 9.99406 28.7895C9.8276 27.1873 9.74437 25.5789 9.74646 23.9704C9.74438 22.36 9.82969 20.7515 10.0003 19.1514C8.32325 20.5975 6.7981 22.2122 5.44975 23.9704ZM32.1957 38.694C32.2581 38.6982 32.3205 38.7023 32.385 38.7044C41.9544 39.2121 45.3294 33.3777 40.1002 25.3418C40.0711 25.296 40.0419 25.2524 40.0107 25.2066V25.2087C38.3337 27.3206 36.4194 29.2349 34.3074 30.9141C33.9038 33.5795 33.1944 36.189 32.1957 38.694ZM39.1369 23.9704C37.7907 22.2122 36.2676 20.5976 34.5926 19.1514C34.759 20.7536 34.8443 22.362 34.8423 23.9704C34.8443 25.5809 34.759 27.1894 34.5905 28.7915C36.2655 27.3433 37.7906 25.7287 39.1369 23.9704ZM20.3208 10.9115C18.2193 10.1791 16.0491 9.66724 13.8414 9.38007C13.0008 11.4296 12.3704 13.5603 11.9625 15.737C14.5718 13.8414 17.3746 12.2244 20.3208 10.9115Z" fill="white"/>
<path d="M17.875 27.2358V27.179L20.1017 19.8452H22.5936L24.8298 27.179V27.2358H23.2L21.4092 21.077H21.1818L19.3721 27.2358H17.875ZM19.7227 25.3882L20.0543 24.1943H22.5368L22.8684 25.3882H19.7227Z" fill="white"/>
<path d="M25.6257 27.2358V19.8452H27.2175V27.2358H25.6257Z" fill="white"/>
</svg>
