<svg width="64" height="64" viewBox="0 0 64 64" fill="none" xmlns="http://www.w3.org/2000/svg">
<path fill-rule="evenodd" clip-rule="evenodd" d="M18.9265 8.35199C18.6569 8.50789 18.4601 8.76437 18.3793 9.06517C18.2986 9.36598 18.3404 9.68653 18.4957 9.95653L18.5118 9.98704C18.6729 10.2468 18.9286 10.4338 19.225 10.5086C19.5213 10.5834 19.8351 10.5402 20.1002 10.388L20.1307 10.3718C20.39 10.2102 20.5766 9.95448 20.6516 9.65829C20.7266 9.3621 20.6841 9.0484 20.5329 8.78286C20.3769 8.51318 20.1203 8.31638 19.8194 8.23561C19.5185 8.15484 19.1979 8.19669 18.9278 8.35199H18.9265ZM4.33556 30.7372C4.49864 30.4544 4.71588 30.2065 4.97486 30.0078C5.23384 29.809 5.52946 29.6633 5.84482 29.5789C6.16017 29.4945 6.48907 29.4732 6.81269 29.516C7.13632 29.5589 7.44831 29.6652 7.73082 29.8287C7.74476 29.8365 7.75827 29.845 7.77129 29.8543C8.31783 30.1825 8.71679 30.7088 8.8852 31.3237H16.1078V28.9122L12.4878 28.8923C12.3995 28.8957 12.3115 28.8813 12.229 28.8498C12.1464 28.8183 12.0711 28.7705 12.0076 28.7091C11.9441 28.6478 11.8936 28.5742 11.8593 28.4928C11.8249 28.4114 11.8074 28.3239 11.8078 28.2356C11.8082 28.1473 11.8264 28.0599 11.8615 27.9788C11.8965 27.8978 11.9476 27.8246 12.0117 27.7638C12.0757 27.703 12.1514 27.6558 12.2342 27.625C12.317 27.5942 12.4052 27.5805 12.4934 27.5847L16.1078 27.6047V25.2231H10.232C9.83888 25.2227 9.46199 25.0664 9.18404 24.7885C8.90609 24.5105 8.74979 24.1336 8.74946 23.7406V21.8726C8.54513 21.8161 8.34887 21.7336 8.16542 21.6273C7.88277 21.4644 7.63502 21.2474 7.43635 20.9886C7.23768 20.7299 7.09198 20.4345 7.00761 20.1193C6.92323 19.8042 6.90182 19.4755 6.94462 19.1521C6.98741 18.8287 7.09356 18.5169 7.25699 18.2345C7.42008 17.9518 7.63731 17.7039 7.89627 17.5051C8.15523 17.3064 8.45083 17.1606 8.76617 17.0762C9.08151 16.9917 9.4104 16.9703 9.73403 17.0131C10.0577 17.0559 10.3697 17.162 10.6523 17.3255C10.6659 17.3342 10.6796 17.3423 10.6927 17.3516C11.2506 17.6871 11.6543 18.2284 11.8167 18.8588C11.979 19.4892 11.8871 20.1581 11.5607 20.7214C11.5526 20.7351 11.5445 20.7488 11.5358 20.7618C11.2071 21.3083 10.6807 21.7072 10.0657 21.8757V23.7437C10.066 23.7883 10.0839 23.831 10.1155 23.8626C10.1471 23.8942 10.1898 23.9121 10.2345 23.9124H16.1078V20.1018C16.111 19.0339 16.5366 18.0107 17.2918 17.2556C18.047 16.5006 19.0703 16.0751 20.1382 16.0721H23.9487V10.1956C23.9481 10.151 23.93 10.1083 23.8984 10.0768C23.8668 10.0453 23.824 10.0274 23.7794 10.0269H21.9115C21.7432 10.6419 21.3442 11.1682 20.7976 11.4963C20.7845 11.5056 20.771 11.5141 20.7571 11.5219C20.1938 11.8485 19.5247 11.9405 18.8942 11.7781C18.2636 11.6157 17.7222 11.2119 17.3867 10.6539C17.3775 10.6409 17.369 10.6274 17.3612 10.6134C17.1954 10.3307 17.0872 10.0179 17.0427 9.69322C16.9983 9.36849 17.0185 9.03817 17.1022 8.72128C17.1859 8.40439 17.3315 8.10719 17.5305 7.84678C17.7295 7.58637 17.9781 7.36789 18.2619 7.20392C18.5457 7.03996 18.8591 6.93374 19.1841 6.89139C19.5092 6.84903 19.8393 6.87137 20.1557 6.95713C20.472 7.04288 20.7683 7.19036 21.0274 7.39106C21.2865 7.59177 21.5034 7.84174 21.6655 8.12659C21.7714 8.31018 21.8536 8.50641 21.9102 8.71063H23.7781C24.1711 8.71129 24.5478 8.86769 24.8257 9.14557C25.1036 9.42345 25.26 9.80015 25.2606 10.1931V16.0665H27.6416L27.6217 12.4552C27.6175 12.367 27.6313 12.2788 27.6621 12.196C27.6929 12.1132 27.7401 12.0375 27.801 11.9735C27.8618 11.9095 27.935 11.8584 28.0161 11.8234C28.0972 11.7884 28.1845 11.7702 28.2729 11.7699C28.3612 11.7695 28.4487 11.7871 28.5301 11.8215C28.6114 11.8558 28.685 11.9063 28.7463 11.9699C28.8076 12.0335 28.8555 12.1088 28.8869 12.1913C28.9183 12.2739 28.9327 12.3619 28.9292 12.4502L28.9492 16.0696H31.3625V8.84699C31.1605 8.79065 30.9662 8.70951 30.7841 8.6054L30.7735 8.60167C30.2037 8.27331 29.7876 7.73218 29.6165 7.09718C29.4455 6.46218 29.5336 5.78524 29.8613 5.21512L29.8719 5.19644C30.2095 4.63979 30.752 4.23783 31.3829 4.07702C32.0137 3.9162 32.6825 4.00937 33.2453 4.33648C33.8082 4.66359 34.2202 5.19853 34.3928 5.82625C34.5654 6.45398 34.4847 7.12436 34.1681 7.69323C34.1601 7.70693 34.152 7.72063 34.1426 7.73371C33.8144 8.28024 33.2881 8.6792 32.6732 8.84761V16.0702H35.0865L35.1065 12.4508C35.103 12.3626 35.1174 12.2745 35.1488 12.192C35.1803 12.1094 35.2281 12.0341 35.2894 11.9705C35.3507 11.907 35.4243 11.8565 35.5057 11.8221C35.587 11.7877 35.6745 11.7702 35.7628 11.7705C35.8512 11.7708 35.9385 11.7891 36.0196 11.824C36.1007 11.859 36.1739 11.9101 36.2347 11.9741C36.2956 12.0382 36.3428 12.1139 36.3736 12.1966C36.4045 12.2794 36.4182 12.3676 36.414 12.4558L36.3941 16.0702H38.7751V10.1956C38.7757 9.80264 38.9321 9.42594 39.21 9.14806C39.4879 8.87018 39.8646 8.71378 40.2576 8.71312H42.1255C42.1821 8.50879 42.2645 8.31253 42.3708 8.12908C42.5337 7.84643 42.7508 7.59868 43.0095 7.40001C43.2683 7.20134 43.5637 7.05564 43.8788 6.97126C44.1939 6.88689 44.5226 6.86548 44.846 6.90827C45.1694 6.95107 45.4812 7.05722 45.7636 7.22065C46.0464 7.38342 46.2943 7.60032 46.4932 7.85896C46.6921 8.1176 46.8381 8.4129 46.9228 8.72799C47.0075 9.04308 47.0293 9.37178 46.9869 9.69529C46.9445 10.0188 46.8388 10.3308 46.6758 10.6134C46.668 10.6274 46.6595 10.6409 46.6502 10.6539C46.3148 11.2118 45.7735 11.6155 45.1431 11.7778C44.5127 11.9402 43.8437 11.8483 43.2805 11.5219C43.2668 11.5138 43.2531 11.5057 43.24 11.4963C42.6934 11.1682 42.2944 10.6419 42.1261 10.0269H40.2582C40.2135 10.0274 40.1708 10.0453 40.1392 10.0768C40.1076 10.1083 40.0895 10.151 40.0888 10.1956V16.069H43.8994C44.9673 16.072 45.9906 16.4974 46.7458 17.2525C47.501 18.0076 47.9266 19.0308 47.9298 20.0987V23.9093H53.8031C53.8478 23.909 53.8905 23.8911 53.9221 23.8595C53.9537 23.8279 53.9715 23.7852 53.9719 23.7406V21.8726C53.358 21.7043 52.8323 21.3063 52.5037 20.7612C52.495 20.7481 52.4869 20.7344 52.4788 20.7207C52.1522 20.1574 52.0603 19.4882 52.2228 18.8577C52.3853 18.2271 52.7892 17.6857 53.3474 17.3504C53.3604 17.3411 53.3741 17.333 53.3878 17.3249C53.9585 16.9951 54.6369 16.9055 55.2736 17.0759C55.5889 17.1603 55.8845 17.3059 56.1435 17.5045C56.4025 17.7031 56.6198 17.9507 56.7831 18.2333C56.9464 18.5159 57.0524 18.8279 57.0951 19.1514C57.1378 19.475 57.1164 19.8038 57.032 20.1191C56.9477 20.4343 56.8021 20.7299 56.6035 20.9889C56.4049 21.2479 56.1572 21.4653 55.8747 21.6286C55.6912 21.7349 55.4949 21.8173 55.2906 21.8739V23.7418C55.2903 24.1349 55.134 24.5118 54.856 24.7897C54.5781 25.0677 54.2012 25.224 53.8081 25.2243H47.9322V27.6053L51.5436 27.5854C51.6318 27.5812 51.72 27.5948 51.8027 27.6256C51.8855 27.6564 51.9613 27.7036 52.0253 27.7644C52.0894 27.8252 52.1405 27.8984 52.1755 27.9795C52.2105 28.0605 52.2288 28.1479 52.2292 28.2362C52.2295 28.3245 52.212 28.412 52.1777 28.4934C52.1434 28.5748 52.0929 28.6484 52.0294 28.7097C51.9658 28.7711 51.8905 28.819 51.808 28.8504C51.7255 28.8819 51.6374 28.8964 51.5492 28.8929L47.9291 28.9128V31.3262H55.1518C55.2081 31.1241 55.2892 30.9298 55.3934 30.7478L55.3983 30.7403C55.7267 30.1705 56.2678 29.7544 56.9028 29.5833C57.5378 29.4123 58.2148 29.5003 58.7849 29.8281L58.8036 29.8387C59.3602 30.1763 59.7622 30.7188 59.923 31.3496C60.0838 31.9805 59.9906 32.6492 59.6635 33.2121C59.3364 33.775 58.8015 34.187 58.1737 34.3596C57.546 34.5321 56.8756 34.4515 56.3068 34.1349C56.2924 34.1268 56.2794 34.1181 56.2663 34.1094C55.7198 33.7811 55.3208 33.2548 55.1524 32.64H47.9298V35.0533L51.5498 35.0732C51.638 35.0698 51.7261 35.0842 51.8086 35.1157C51.8911 35.1472 51.9664 35.1951 52.03 35.2564C52.0935 35.3178 52.144 35.3914 52.1783 35.4727C52.2126 35.5541 52.2302 35.6416 52.2298 35.7299C52.2294 35.8183 52.2111 35.9056 52.1761 35.9867C52.1411 36.0678 52.09 36.1409 52.0259 36.2017C51.9619 36.2625 51.8862 36.3098 51.8034 36.3405C51.7206 36.3713 51.6324 36.385 51.5442 36.3808L47.9329 36.3609V38.7418H53.8062C54.1993 38.7422 54.5762 38.8985 54.8542 39.1764C55.1321 39.4544 55.2884 39.8313 55.2887 40.2243V42.0923C55.4931 42.1489 55.6893 42.2313 55.8728 42.3376C56.1554 42.5005 56.4032 42.7175 56.6019 42.9763C56.8005 43.2351 56.9462 43.5304 57.0306 43.8456C57.115 44.1607 57.1364 44.4894 57.0936 44.8128C57.0508 45.1362 56.9446 45.448 56.7812 45.7304C56.6182 46.013 56.4011 46.2607 56.1423 46.4593C55.8835 46.658 55.588 46.8037 55.2729 46.8881C54.9578 46.9725 54.6291 46.994 54.3056 46.9513C53.9822 46.9087 53.6703 46.8027 53.3878 46.6394C53.3741 46.6313 53.3604 46.6232 53.3474 46.6139C52.7895 46.2784 52.3858 45.7371 52.2234 45.1067C52.061 44.4763 52.153 43.8074 52.4794 43.2442C52.4875 43.2298 52.4956 43.2168 52.5043 43.2037C52.8329 42.6572 53.3594 42.2583 53.9744 42.0898V40.2219C53.9742 40.1771 53.9564 40.1342 53.9248 40.1025C53.8932 40.0708 53.8504 40.0528 53.8056 40.0525H47.9322V43.8631C47.9293 44.9311 47.5037 45.9545 46.7485 46.7097C45.9933 47.4649 44.9699 47.8905 43.9019 47.8934H40.0913V53.7668C40.092 53.8114 40.11 53.8541 40.1417 53.8856C40.1733 53.9171 40.216 53.935 40.2607 53.9355H42.1286C42.2968 53.3205 42.6958 52.7942 43.2425 52.4661C43.2556 52.4568 43.2693 52.448 43.283 52.4399C43.8465 52.1145 44.5152 52.0235 45.1451 52.1864C45.7751 52.3494 46.3158 52.7532 46.6509 53.311C46.6601 53.324 46.6686 53.3375 46.6764 53.3515C47.0062 53.9222 47.0957 54.6005 46.9253 55.2373C46.755 55.874 46.3387 56.417 45.7679 56.7467C45.1972 57.0765 44.5189 57.1661 43.8822 56.9957C43.2454 56.8253 42.7025 56.409 42.3727 55.8383C42.2663 55.6547 42.1838 55.4582 42.1274 55.2537H40.2594C39.8665 55.2533 39.4897 55.0971 39.2117 54.8193C38.9338 54.5415 38.7774 54.1647 38.7769 53.7718V47.8959H36.3972L36.4171 51.5072C36.4213 51.5955 36.4076 51.6836 36.3768 51.7664C36.346 51.8492 36.2987 51.9249 36.2379 51.9889C36.177 52.0529 36.1038 52.104 36.0227 52.139C35.9416 52.174 35.8543 52.1922 35.766 52.1925C35.6776 52.1929 35.5901 52.1753 35.5088 52.1409C35.4274 52.1066 35.3538 52.0561 35.2925 51.9925C35.2312 51.9289 35.1834 51.8536 35.1519 51.7711C35.1205 51.6885 35.1061 51.6005 35.1096 51.5122L35.0897 47.8928H32.6757V55.1154C32.8778 55.1715 33.0721 55.2526 33.2541 55.357L33.2616 55.362C33.8314 55.6903 34.2475 56.2315 34.4186 56.8665C34.5896 57.5015 34.5015 58.1784 34.1738 58.7485L34.1632 58.7672C33.8256 59.3239 33.2831 59.7258 32.6522 59.8866C32.0214 60.0475 31.3526 59.9543 30.7898 59.6272C30.2269 59.3001 29.8149 58.7651 29.6423 58.1374C29.4697 57.5097 29.5504 56.8393 29.8669 56.2704C29.875 56.2567 29.8831 56.243 29.8925 56.2293C30.2209 55.6831 30.7472 55.2844 31.3619 55.116V47.8934H28.9486L28.9286 51.5128C28.9321 51.6011 28.9177 51.6891 28.8863 51.7717C28.8548 51.8542 28.807 51.9296 28.7457 51.9931C28.6844 52.0567 28.6108 52.1072 28.5294 52.1416C28.4481 52.1759 28.3606 52.1935 28.2723 52.1932C28.1839 52.1928 28.0966 52.1746 28.0155 52.1396C27.9344 52.1046 27.8612 52.0536 27.8004 51.9895C27.7395 51.9255 27.6923 51.8498 27.6614 51.767C27.6306 51.6842 27.6169 51.5961 27.6211 51.5078L27.641 47.8965H25.2594V53.7699C25.2589 54.1629 25.1025 54.5396 24.8246 54.8174C24.5467 55.0952 24.1699 55.2515 23.7769 55.2518H21.909C21.8525 55.4562 21.7703 55.6527 21.6643 55.8364C21.5013 56.1191 21.2842 56.3669 21.0254 56.5656C20.7666 56.7642 20.4711 56.9099 20.156 56.9943C19.8408 57.0787 19.512 57.1001 19.1886 57.0573C18.8651 57.0145 18.5533 56.9083 18.2709 56.7449C17.9883 56.5818 17.7406 56.3647 17.5419 56.1059C17.3433 55.8471 17.1976 55.5517 17.1132 55.2366C17.0287 54.9214 17.0072 54.5927 17.0499 54.2693C17.0926 53.9458 17.1986 53.634 17.3618 53.3515C17.3694 53.3376 17.3777 53.324 17.3867 53.311C17.7222 52.7531 18.2635 52.3494 18.8938 52.187C19.5242 52.0245 20.1931 52.1162 20.7565 52.4424C20.7704 52.4504 20.7839 52.4591 20.7969 52.4686C21.3436 52.7967 21.7426 53.323 21.9108 53.938H23.7788C23.8234 53.9375 23.8661 53.9196 23.8978 53.8881C23.9294 53.8566 23.9475 53.8139 23.9481 53.7693V47.8959H20.1376C19.0696 47.8929 18.0461 47.4674 17.2909 46.7122C16.5357 45.957 16.1102 44.9336 16.1072 43.8656V40.055H10.232C10.1872 40.0553 10.1444 40.0733 10.1128 40.105C10.0812 40.1367 10.0634 40.1796 10.0632 40.2243V42.0923C10.678 42.2601 11.2046 42.6581 11.5339 43.2037C11.5426 43.2168 11.5507 43.2298 11.5588 43.2442C11.8854 43.8075 11.9773 44.4767 11.8148 45.1072C11.6523 45.7378 11.2484 46.2792 10.6902 46.6145C10.6772 46.6237 10.6637 46.6323 10.6498 46.64C10.3672 46.8033 10.0552 46.9094 9.73164 46.9521C9.40807 46.9948 9.07927 46.9734 8.76399 46.889C8.44871 46.8047 8.15313 46.659 7.89413 46.4604C7.63514 46.2618 7.41779 46.0142 7.2545 45.7316C7.09121 45.449 6.98518 45.137 6.94247 44.8135C6.89975 44.4899 6.92118 44.1611 7.00554 43.8458C7.08989 43.5306 7.23552 43.235 7.43411 42.976C7.63269 42.717 7.88035 42.4996 8.16293 42.3363C8.34638 42.23 8.54264 42.1476 8.74697 42.091V40.2231C8.7473 39.83 8.9036 39.4531 9.18155 39.1752C9.4595 38.8972 9.83639 38.7409 10.2295 38.7406H16.1028V36.3609L12.4915 36.3808C12.4033 36.385 12.3151 36.3713 12.2323 36.3405C12.1496 36.3098 12.0738 36.2625 12.0098 36.2017C11.9457 36.1409 11.8946 36.0678 11.8596 35.9867C11.8246 35.9056 11.8063 35.8183 11.8059 35.7299C11.8056 35.6416 11.8231 35.5541 11.8574 35.4727C11.8917 35.3914 11.9422 35.3178 12.0057 35.2564C12.0693 35.1951 12.1446 35.1472 12.2271 35.1157C12.3096 35.0842 12.3977 35.0698 12.4859 35.0732L16.106 35.0533V32.6393H8.88333C8.82711 32.8412 8.74595 33.0353 8.64174 33.2172L8.63676 33.2252C8.30841 33.795 7.76728 34.2112 7.13228 34.3822C6.49727 34.5533 5.82034 34.4652 5.25022 34.1374L5.23154 34.1262C4.66369 33.7953 4.25039 33.2525 4.0824 32.6171C3.91441 31.9816 4.00546 31.3055 4.33556 30.7372ZM6.18294 30.8461C5.99831 30.8962 5.82871 30.9906 5.68888 31.1211C5.54906 31.2517 5.44323 31.4144 5.38061 31.5951C5.318 31.7759 5.30048 31.9692 5.32959 32.1582C5.35871 32.3473 5.43356 32.5264 5.54765 32.6799C5.66175 32.8335 5.81162 32.9568 5.98424 33.0392C6.15686 33.1216 6.347 33.1606 6.53813 33.1528C6.72926 33.145 6.91558 33.0907 7.08091 32.9944C7.24624 32.8982 7.38555 32.7631 7.48675 32.6007C7.49942 32.5758 7.51355 32.5517 7.52909 32.5285C7.66457 32.2669 7.69753 31.9641 7.62152 31.6794C7.54552 31.3947 7.36601 31.1486 7.11814 30.9893C7.09216 30.9768 7.067 30.9627 7.0428 30.947C6.77945 30.805 6.47166 30.7696 6.18294 30.848V30.8461ZM8.38833 45.0741C8.54413 45.344 8.80068 45.541 9.10164 45.6219C9.4026 45.7028 9.72337 45.661 9.9935 45.5056L10.0234 45.4894C10.2832 45.3282 10.4702 45.0724 10.545 44.7759C10.6198 44.4795 10.5765 44.1656 10.4244 43.9004L10.4082 43.8705C10.2465 43.6111 9.9907 43.4243 9.69436 43.3494C9.39803 43.2744 9.08417 43.317 8.81857 43.4683C8.54871 43.624 8.35168 43.8804 8.27078 44.1813C8.18987 44.4821 8.2317 44.8028 8.38708 45.0729L8.38833 45.0741ZM9.10188 18.3429C8.95264 18.3825 8.81274 18.4514 8.69027 18.5454C8.56779 18.6395 8.46517 18.7569 8.38833 18.8908C8.23376 19.1617 8.19283 19.4828 8.27453 19.7837C8.35622 20.0847 8.55387 20.3411 8.82418 20.4966C9.08985 20.6478 9.40376 20.6904 9.7001 20.6153C9.99645 20.5402 10.2522 20.3533 10.4138 20.0937L10.43 20.0645C10.5821 19.7993 10.6254 19.4854 10.5506 19.189C10.4758 18.8925 10.2888 18.6367 10.029 18.4755L9.9991 18.4593C9.86547 18.3822 9.71791 18.3322 9.5649 18.3122C9.41189 18.2922 9.25644 18.3026 9.10748 18.3429H9.10188ZM30.8843 57.8183C30.9343 58.0031 31.0286 58.1729 31.1592 58.3128C31.2897 58.4528 31.4525 58.5588 31.6333 58.6215C31.8142 58.6842 32.0076 58.7017 32.1968 58.6726C32.3859 58.6434 32.5651 58.5685 32.7187 58.4543C32.8723 58.3401 32.9956 58.19 33.078 58.0173C33.1604 57.8445 33.1992 57.6542 33.1913 57.463C33.1833 57.2717 33.1287 57.0853 33.0322 56.92C32.9357 56.7547 32.8003 56.6155 32.6377 56.5145C32.6125 56.5018 32.5881 56.4875 32.5648 56.4715C32.3031 56.3361 32.0003 56.3032 31.7156 56.3794C31.4309 56.4555 31.1849 56.6351 31.0257 56.8831C31.0132 56.9091 30.999 56.9342 30.9833 56.9584C30.8414 57.2218 30.8059 57.5296 30.8843 57.8183ZM45.1111 55.6129C45.3807 55.4569 45.5775 55.2003 45.6583 54.8994C45.7391 54.5985 45.6972 54.2778 45.5419 54.0077L45.5257 53.9779C45.3646 53.7181 45.1089 53.5311 44.8126 53.4563C44.5163 53.3815 44.2025 53.4247 43.9374 53.5769L43.9069 53.5931C43.6476 53.7547 43.461 54.0104 43.386 54.3066C43.311 54.6028 43.3535 54.9165 43.5046 55.182C43.6607 55.4517 43.9173 55.6485 44.2182 55.7293C44.5191 55.8101 44.8397 55.7682 45.1098 55.6129H45.1111ZM18.3792 54.8994C18.4189 55.0485 18.4876 55.1884 18.5816 55.3108C18.6755 55.4333 18.7927 55.536 18.9265 55.6129C19.1969 55.7676 19.5175 55.809 19.8183 55.728C20.119 55.647 20.3755 55.4503 20.5317 55.1808C20.6828 54.9153 20.7253 54.6016 20.6504 54.3054C20.5754 54.0092 20.3887 53.7535 20.1295 53.5918L20.099 53.5756C19.8339 53.4235 19.5201 53.3803 19.2237 53.4551C18.9274 53.5299 18.6717 53.7169 18.5106 53.9766L18.4944 54.0065C18.4173 54.1401 18.3672 54.2877 18.3473 54.4407C18.3273 54.5937 18.3377 54.7492 18.378 54.8981L18.3792 54.8994ZM57.8547 33.1169C58.0395 33.067 58.2094 32.9727 58.3494 32.8422C58.4895 32.7116 58.5955 32.5488 58.6582 32.3679C58.721 32.1871 58.7385 31.9936 58.7094 31.8043C58.6802 31.6151 58.6052 31.4359 58.491 31.2823C58.3767 31.1286 58.2266 31.0053 58.0537 30.923C57.8809 30.8406 57.6905 30.8018 57.4992 30.8099C57.3079 30.818 57.1215 30.8727 56.9562 30.9693C56.7909 31.0659 56.6518 31.2015 56.5508 31.3642C56.5382 31.3891 56.524 31.4132 56.5085 31.4364C56.373 31.6981 56.3401 32.0008 56.4161 32.2855C56.4921 32.5702 56.6716 32.8163 56.9194 32.9756C56.9454 32.9881 56.9706 33.0022 56.9948 33.0179C57.2582 33.1596 57.5659 33.195 57.8547 33.1169ZM55.6493 18.8908C55.4935 18.6209 55.2369 18.4239 54.9359 18.343C54.635 18.2621 54.3142 18.3039 54.0441 18.4593L54.0142 18.4755C53.7544 18.6367 53.5674 18.8925 53.4926 19.189C53.4178 19.4854 53.461 19.7993 53.6132 20.0645L53.6294 20.0937C53.791 20.3533 54.0467 20.5402 54.3431 20.6153C54.6394 20.6904 54.9533 20.6478 55.219 20.4966C55.4889 20.3409 55.6859 20.0845 55.7668 19.7836C55.8477 19.4828 55.8059 19.1621 55.6505 18.8921L55.6493 18.8908ZM54.9357 45.622C55.0849 45.5824 55.2248 45.5135 55.3473 45.4195C55.4698 45.3254 55.5724 45.208 55.6493 45.0741C55.8041 44.8037 55.8454 44.483 55.7643 44.1822C55.6832 43.8813 55.4863 43.6249 55.2165 43.4689C54.9509 43.3176 54.6371 43.275 54.3407 43.35C54.0444 43.425 53.7886 43.6117 53.6269 43.8712L53.6107 43.901C53.4586 44.1662 53.4153 44.4801 53.4901 44.7766C53.5649 45.073 53.7519 45.3288 54.0117 45.49L54.0416 45.5062C54.1752 45.5834 54.3228 45.6334 54.4758 45.6534C54.6288 45.6733 54.7843 45.6629 54.9332 45.6226L54.9357 45.622ZM33.1532 6.14659C33.1033 5.96182 33.009 5.79205 32.8784 5.65207C32.7479 5.51208 32.5851 5.40613 32.4043 5.34343C32.2234 5.28073 32.03 5.26319 31.8408 5.29233C31.6517 5.32147 31.4725 5.39641 31.3189 5.51062C31.1653 5.62483 31.042 5.77486 30.9596 5.94763C30.8772 6.12041 30.8383 6.3107 30.8463 6.50194C30.8543 6.69317 30.9089 6.87956 31.0054 7.04487C31.1019 7.21017 31.2373 7.34939 31.3999 7.4504C31.4252 7.46291 31.4495 7.47727 31.4727 7.49337C31.7349 7.62964 32.0385 7.66291 32.3239 7.58663C32.6093 7.51035 32.8558 7.33005 33.015 7.08118C33.0277 7.05547 33.0418 7.03053 33.0574 7.00646C33.1993 6.74311 33.2348 6.43531 33.1564 6.14659H33.1532ZM45.6584 9.06553C45.6187 8.91638 45.5499 8.77654 45.456 8.65408C45.3621 8.53161 45.2448 8.42895 45.1111 8.35199C44.8407 8.1973 44.5201 8.15592 44.2193 8.23689C43.9186 8.31786 43.6621 8.51459 43.5059 8.7841C43.3548 9.04964 43.3123 9.36335 43.3872 9.65954C43.4622 9.95572 43.6489 10.2114 43.9081 10.3731L43.9386 10.3893C44.2037 10.5414 44.5175 10.5846 44.8139 10.5098C45.1102 10.435 45.3659 10.248 45.527 9.98829L45.5432 9.95778C45.6203 9.82427 45.6704 9.67681 45.6903 9.5239C45.7103 9.37099 45.6999 9.21564 45.6596 9.06678L45.6584 9.06553ZM33.4509 26.7853C33.3176 27.3372 33.401 27.9192 33.6837 28.4116C33.9945 28.8921 34.4624 29.2499 35.0075 29.424C35.0883 29.4537 35.1742 29.4671 35.2603 29.4635C35.3464 29.46 35.4309 29.4395 35.509 29.4033C35.5871 29.367 35.6574 29.3158 35.7157 29.2524C35.774 29.189 35.8193 29.1148 35.849 29.0339C35.8786 28.9531 35.892 28.8672 35.8885 28.7811C35.8849 28.695 35.8644 28.6105 35.8282 28.5324C35.792 28.4543 35.7407 28.384 35.6774 28.3257C35.614 28.2674 35.5398 28.2221 35.4589 28.1924C35.1952 28.1175 34.9643 27.9561 34.8032 27.7342C34.6946 27.5181 34.6702 27.2693 34.7348 27.0362C34.7678 26.8654 34.7316 26.6886 34.6342 26.5445C34.5369 26.4004 34.3862 26.3009 34.2155 26.2679C34.0447 26.2348 33.8678 26.271 33.7238 26.3684C33.5797 26.4658 33.4802 26.6164 33.4471 26.7871L33.4509 26.7853ZM34.9203 35.1436C34.9382 35.0466 34.9833 34.9566 35.0503 34.8842C35.1173 34.8117 35.2035 34.7598 35.2988 34.7345C35.3942 34.7091 35.4948 34.7113 35.5889 34.7409C35.683 34.7704 35.7669 34.8261 35.8306 34.9014C35.9435 35.0335 36.1042 35.1154 36.2774 35.129C36.4506 35.1426 36.6222 35.0868 36.7543 34.9739C36.8864 34.8611 36.9683 34.7003 36.9819 34.5271C36.9955 34.3539 36.9397 34.1823 36.8268 34.0502C36.6024 33.7858 36.3075 33.5906 35.9764 33.4873C35.6453 33.3841 35.2917 33.377 34.9568 33.467C34.6219 33.557 34.3194 33.7403 34.0846 33.9956C33.8499 34.2509 33.6925 34.5676 33.6308 34.9089C33.6153 34.9934 33.6166 35.0802 33.6347 35.1642C33.6527 35.2483 33.6871 35.3279 33.7359 35.3987C33.7848 35.4694 33.8471 35.5298 33.9192 35.5765C33.9914 35.6232 34.0721 35.6552 34.1566 35.6707C34.2412 35.6862 34.3279 35.6848 34.412 35.6668C34.496 35.6488 34.5757 35.6144 34.6464 35.5655C34.7172 35.5167 34.7776 35.4544 34.8243 35.3822C34.8709 35.3101 34.9029 35.2294 34.9184 35.1448L34.9203 35.1436ZM38.5752 29.9041C38.4094 29.9023 38.2504 29.8378 38.1302 29.7237C38.0099 29.6096 37.9372 29.4542 37.9268 29.2887C37.9163 29.1233 37.9688 28.96 38.0737 28.8316C38.1786 28.7032 38.3282 28.6192 38.4924 28.5965C38.4266 28.476 38.344 28.3655 38.2471 28.2684C38.1144 28.1353 37.9566 28.0298 37.783 27.9579C37.6094 27.886 37.4232 27.8491 37.2353 27.8494C37.164 27.8494 37.0929 27.8544 37.0223 27.8643C36.9531 27.8741 36.8846 27.8889 36.8175 27.9085C36.7353 27.9334 36.649 27.9419 36.5636 27.9334C36.4781 27.925 36.3952 27.8998 36.3195 27.8593C36.2438 27.8188 36.1768 27.7638 36.1223 27.6974C36.0679 27.631 36.027 27.5545 36.0021 27.4724C35.9772 27.3902 35.9688 27.3039 35.9772 27.2185C35.9857 27.133 36.0109 27.0501 36.0514 26.9743C36.0919 26.8986 36.1469 26.8316 36.2133 26.7772C36.2797 26.7227 36.3561 26.6819 36.4383 26.657C36.5673 26.6172 36.699 26.587 36.8324 26.5667C36.9658 26.5467 37.1004 26.5365 37.2353 26.5362C37.3506 26.5363 37.4658 26.5434 37.5802 26.5574C37.584 26.5182 37.5858 26.4771 37.5858 26.4329C37.5858 26.2197 37.5318 26.01 37.4288 25.8234C37.3258 25.6368 37.1773 25.4793 36.997 25.3656C36.8167 25.2519 36.6106 25.1857 36.3978 25.1732C36.185 25.1607 35.9725 25.2022 35.7802 25.294C35.6097 25.3753 35.4593 25.4933 35.34 25.6396C35.2863 25.7077 35.2197 25.7644 35.144 25.8066C35.0683 25.8487 34.9849 25.8754 34.8988 25.8851C34.8127 25.8947 34.7255 25.8872 34.6423 25.8629C34.5591 25.8386 34.4816 25.798 34.4142 25.7435C34.3469 25.689 34.291 25.6216 34.2499 25.5453C34.2087 25.4691 34.1832 25.3854 34.1746 25.2991C34.1661 25.2129 34.1748 25.1258 34.2002 25.043C34.2256 24.9601 34.2672 24.8831 34.3226 24.8165C34.4105 24.7073 34.5073 24.6057 34.6121 24.5126C34.5551 24.3851 34.4727 24.2704 34.3699 24.1758C34.2249 24.0432 34.0445 23.9556 33.8506 23.9237C33.6567 23.8919 33.4578 23.917 33.278 23.9962C33.0981 24.0754 32.9452 24.2052 32.8379 24.3697C32.7305 24.5343 32.6733 24.7265 32.6732 24.923V39.0438C32.6727 39.2405 32.7296 39.4331 32.8369 39.598C32.9442 39.7629 33.0972 39.893 33.2772 39.9722C33.4572 40.0515 33.6565 40.0766 33.8505 40.0444C34.0446 40.0122 34.2251 39.9242 34.3699 39.791C34.4727 39.6966 34.5551 39.5822 34.6121 39.4548C34.4415 39.3037 34.2918 39.1305 34.1669 38.9398C34.1167 38.8678 34.0815 38.7865 34.0633 38.7006C34.0451 38.6147 34.0443 38.526 34.061 38.4398C34.0777 38.3536 34.1115 38.2717 34.1604 38.1988C34.2093 38.1259 34.2724 38.0636 34.3459 38.0155C34.4193 37.9674 34.5017 37.9345 34.5881 37.9189C34.6744 37.9032 34.7631 37.905 34.8488 37.9242C34.9344 37.9434 35.0154 37.9796 35.0868 38.0306C35.1582 38.0816 35.2187 38.1465 35.2646 38.2213C35.4131 38.4489 35.6311 38.6224 35.8862 38.716C36.1412 38.8097 36.4197 38.8184 36.6801 38.7409C36.9406 38.6634 37.169 38.5039 37.3314 38.2861C37.4938 38.0682 37.5815 37.8038 37.5815 37.532C37.5815 37.4905 37.5796 37.449 37.5759 37.4075C37.4615 37.4224 37.3463 37.4299 37.2309 37.4299C36.8848 37.4287 36.5421 37.3626 36.2204 37.2351C36.1382 37.2051 36.0628 37.159 35.9987 37.0994C35.9346 37.0398 35.8832 36.968 35.8473 36.8881C35.8115 36.8083 35.792 36.7221 35.7901 36.6346C35.7882 36.5471 35.8038 36.4601 35.8361 36.3788C35.8684 36.2975 35.9166 36.2234 35.978 36.1611C36.0394 36.0987 36.1127 36.0493 36.1935 36.0158C36.2743 35.9822 36.361 35.9652 36.4485 35.9658C36.536 35.9664 36.6225 35.9845 36.7029 36.019C36.786 36.0515 36.8718 36.0761 36.9594 36.0925C37.049 36.109 37.1399 36.1171 37.2309 36.1168C37.3226 36.1171 37.4141 36.109 37.5043 36.0925C37.5922 36.0758 37.6783 36.0508 37.7614 36.0178C38.0284 35.9113 38.2572 35.7272 38.4183 35.4892C38.4446 35.4506 38.4689 35.4107 38.4911 35.3696C38.3254 35.3491 38.1738 35.2662 38.0671 35.1377C37.9604 35.0093 37.9066 34.8451 37.9168 34.6784C37.927 34.5117 38.0003 34.3552 38.1218 34.2407C38.2433 34.1262 38.4039 34.0623 38.5708 34.0621C39.1221 34.0621 39.6507 33.8431 40.0405 33.4533C40.4302 33.0636 40.6492 32.5349 40.6492 31.9837C40.6492 31.4325 40.4302 30.9038 40.0405 30.5141C39.6507 30.1243 39.1221 29.9053 38.5708 29.9053L38.5752 29.9041ZM39.9506 28.8817C39.8652 28.2975 39.5933 27.7566 39.1754 27.3394C39.0674 27.2309 38.9503 27.1317 38.8255 27.043C38.9282 26.6198 38.9218 26.1775 38.8071 25.7574C38.6923 25.3373 38.4728 24.9532 38.1692 24.641C37.8656 24.3288 37.4877 24.0987 37.071 23.9723C36.6543 23.8458 36.2123 23.8272 35.7864 23.918C35.6577 23.6515 35.4798 23.4118 35.2621 23.2113C34.8219 22.8038 34.2408 22.583 33.641 22.5954C33.0413 22.6078 32.4697 22.8525 32.0468 23.2779L32.0207 23.3047L31.9945 23.2779C31.7314 23.0159 31.4093 22.8206 31.0553 22.7084C30.7013 22.5962 30.3256 22.5704 29.9596 22.6331C29.5935 22.6957 29.2478 22.845 28.9512 23.0686C28.6547 23.2921 28.4159 23.5834 28.2549 23.918C27.8289 23.8265 27.3866 23.8446 26.9696 23.9708C26.5525 24.097 26.1743 24.3271 25.8705 24.6395C25.5668 24.9519 25.3473 25.3363 25.2328 25.7567C25.1183 26.1771 25.1124 26.6198 25.2158 27.043C25.091 27.1317 24.9739 27.2309 24.8659 27.3394C24.4481 27.7566 24.1762 28.2975 24.0907 28.8817C23.4906 29.1481 22.9806 29.5828 22.6227 30.1333C22.2648 30.6837 22.0743 31.3262 22.0743 31.9828C22.0743 32.6393 22.2648 33.2818 22.6227 33.8323C22.9806 34.3827 23.4906 34.8175 24.0907 35.0838C24.1456 35.4497 24.2735 35.8007 24.4669 36.1161C24.6603 36.4314 24.9152 36.7046 25.2164 36.9194C25.1132 37.3426 25.119 37.7852 25.2334 38.2056C25.3479 38.626 25.5671 39.0105 25.8707 39.323C26.1743 39.6356 26.5522 39.8659 26.9691 39.9925C27.386 40.1191 27.8282 40.1378 28.2543 40.0469C28.383 40.3135 28.5611 40.5533 28.7792 40.7536C29.2194 41.1608 29.8004 41.3814 30.4 41.369C30.9995 41.3565 31.5709 41.1121 31.9939 40.687L32.02 40.6602L32.0462 40.687C32.4694 41.112 33.0408 41.3564 33.6404 41.3688C34.24 41.3812 34.8211 41.1607 35.2615 40.7536C35.4792 40.5531 35.6571 40.3134 35.7858 40.0469C36.212 40.1389 36.6547 40.1209 37.0721 39.9947C37.4895 39.8685 37.8679 39.6381 38.1718 39.3253C38.4756 39.0125 38.6948 38.6276 38.8089 38.2067C38.9229 37.7858 38.928 37.3428 38.8236 36.9194C39.1248 36.7046 39.3797 36.4314 39.5732 36.1161C39.7666 35.8007 39.8945 35.4497 39.9494 35.0838C40.5495 34.8175 41.0594 34.3827 41.4174 33.8323C41.7753 33.2818 41.9658 32.6393 41.9658 31.9828C41.9658 31.3262 41.7753 30.6837 41.4174 30.1333C41.0594 29.5828 40.5495 29.1481 39.9494 28.8817H39.9506ZM29.301 27.2504C29.3655 27.4835 29.3411 27.7323 29.2325 27.9484C29.0712 28.1701 28.8404 28.3314 28.5768 28.4066C28.4947 28.4353 28.4192 28.48 28.3545 28.5381C28.2898 28.5963 28.2374 28.6667 28.2002 28.7453C28.163 28.824 28.1419 28.9092 28.138 28.9961C28.134 29.0829 28.1474 29.1697 28.1774 29.2514C28.2073 29.333 28.2532 29.4079 28.3124 29.4716C28.3715 29.5354 28.4428 29.5867 28.5219 29.6227C28.6011 29.6586 28.6867 29.6784 28.7736 29.681C28.8605 29.6836 28.9471 29.6688 29.0282 29.6376C29.5748 29.4641 30.0442 29.1062 30.3563 28.6252C30.6386 28.1326 30.7217 27.5507 30.5886 26.9988C30.5498 26.8338 30.4486 26.6902 30.3063 26.5981C30.164 26.506 29.9916 26.4725 29.8251 26.5047C29.6587 26.5369 29.5111 26.6322 29.4134 26.7708C29.3157 26.9093 29.2754 27.0803 29.301 27.2479V27.2504ZM30.4124 34.9867C30.3497 34.6464 30.1919 34.3308 29.9572 34.0764C29.7225 33.8221 29.4205 33.6395 29.0863 33.5498C28.7521 33.4601 28.3993 33.4669 28.0688 33.5695C27.7382 33.672 27.4436 33.8661 27.2189 34.1293C27.163 34.1947 27.1205 34.2705 27.0939 34.3523C27.0673 34.4342 27.0571 34.5204 27.0638 34.6062C27.0774 34.7794 27.1593 34.9401 27.2914 35.053C27.4235 35.1659 27.595 35.2216 27.7683 35.208C27.9415 35.1944 28.1022 35.1126 28.2151 34.9805C28.2789 34.9049 28.363 34.8492 28.4574 34.82C28.5519 34.7907 28.6527 34.7892 28.7481 34.8155C28.8429 34.841 28.9287 34.8927 28.9956 34.9647C29.0624 35.0368 29.1076 35.1262 29.126 35.2227C29.1573 35.3934 29.2551 35.5447 29.398 35.6434C29.5409 35.742 29.7171 35.7798 29.8878 35.7485C30.0586 35.7172 30.2099 35.6194 30.3085 35.4765C30.4071 35.3336 30.4449 35.1574 30.4136 34.9867H30.4124ZM25.5471 28.5959C25.7113 28.6186 25.8609 28.7026 25.9658 28.831C26.0707 28.9594 26.1232 29.1227 26.1127 29.2881C26.1022 29.4536 26.0295 29.609 25.9093 29.7231C25.789 29.8372 25.63 29.9017 25.4643 29.9035C24.913 29.9035 24.3844 30.1224 23.9946 30.5122C23.6048 30.902 23.3859 31.4306 23.3859 31.9818C23.3859 32.533 23.6048 33.0617 23.9946 33.4515C24.3844 33.8412 24.913 34.0602 25.4643 34.0602C25.6312 34.0605 25.7918 34.1243 25.9133 34.2389C26.0348 34.3534 26.1081 34.5099 26.1183 34.6765C26.1285 34.8432 26.0747 35.0075 25.968 35.1359C25.8613 35.2643 25.7097 35.3472 25.544 35.3678C25.5662 35.4088 25.5905 35.4487 25.6168 35.4873C25.7779 35.7253 26.0067 35.9095 26.2737 36.0159C26.3568 36.049 26.4429 36.074 26.5308 36.0906C26.621 36.1071 26.7125 36.1153 26.8042 36.1149C26.8952 36.1153 26.9861 36.1071 27.0756 36.0906C27.1633 36.0742 27.2491 36.0496 27.3322 36.0172C27.4922 35.9589 27.6687 35.9653 27.8241 36.035C27.9795 36.1047 28.1016 36.2323 28.1644 36.3907C28.2272 36.549 28.2259 36.7256 28.1606 36.8829C28.0953 37.0402 27.9712 37.1659 27.8147 37.2332C27.493 37.3607 27.1502 37.4268 26.8042 37.4281C26.6888 37.428 26.5736 37.4205 26.4592 37.4057C26.4555 37.4472 26.4536 37.4887 26.4536 37.5302C26.4536 37.8019 26.5413 38.0664 26.7037 38.2842C26.8661 38.502 27.0945 38.6616 27.3549 38.739C27.6154 38.8165 27.8939 38.8078 28.1489 38.7142C28.404 38.6205 28.622 38.447 28.7705 38.2194C28.8164 38.1446 28.8769 38.0798 28.9483 38.0287C29.0197 37.9777 29.1007 37.9415 29.1863 37.9223C29.272 37.9031 29.3607 37.9013 29.447 37.917C29.5334 37.9327 29.6158 37.9655 29.6892 38.0136C29.7627 38.0617 29.8257 38.124 29.8747 38.1969C29.9236 38.2698 29.9574 38.3518 29.9741 38.438C29.9908 38.5242 29.99 38.6128 29.9718 38.6987C29.9536 38.7846 29.9184 38.866 29.8682 38.938C29.7433 39.1286 29.5936 39.3018 29.423 39.4529C29.48 39.5803 29.5624 39.6947 29.6652 39.7891C29.8103 39.9214 29.9907 40.0088 30.1845 40.0405C30.3782 40.0722 30.5771 40.047 30.7568 39.9678C30.9365 39.8887 31.0893 39.7591 31.1968 39.5947C31.3042 39.4303 31.3616 39.2383 31.3619 39.042V24.9211C31.3624 24.7244 31.3055 24.5318 31.1982 24.3669C31.0909 24.202 30.9379 24.0719 30.7579 23.9927C30.5779 23.9134 30.3786 23.8883 30.1845 23.9205C29.9905 23.9527 29.81 24.0408 29.6652 24.1739C29.5624 24.2686 29.48 24.3832 29.423 24.5108C29.5278 24.6038 29.6246 24.7055 29.7125 24.8146C29.822 24.9493 29.8735 25.1219 29.8557 25.2946C29.8379 25.4672 29.7522 25.6257 29.6176 25.7352C29.4829 25.8447 29.3103 25.8962 29.1376 25.8784C28.965 25.8606 28.8065 25.7749 28.697 25.6402C28.5776 25.4939 28.4273 25.3759 28.2568 25.2947C28.0644 25.2027 27.8519 25.161 27.6391 25.1734C27.4262 25.1858 27.22 25.252 27.0397 25.3657C26.8593 25.4795 26.7108 25.6371 26.6078 25.8238C26.5049 26.0105 26.451 26.2203 26.4511 26.4335C26.4511 26.4746 26.4511 26.5157 26.4567 26.558C26.5712 26.544 26.6864 26.5369 26.8017 26.5368C27.0721 26.5371 27.3409 26.5778 27.5993 26.6576C27.6815 26.6826 27.7579 26.7234 27.8243 26.7779C27.8907 26.8324 27.9457 26.8995 27.9861 26.9752C28.0266 27.0509 28.0518 27.1339 28.0602 27.2194C28.0686 27.3048 28.0601 27.3911 28.0351 27.4733C28.0102 27.5555 27.9693 27.6319 27.9148 27.6983C27.8603 27.7647 27.7933 27.8197 27.7176 27.8601C27.6418 27.9006 27.5589 27.9258 27.4734 27.9342C27.3879 27.9426 27.3017 27.9341 27.2195 27.9091C27.1523 27.8895 27.0839 27.8747 27.0146 27.8649C26.9441 27.855 26.8729 27.85 26.8017 27.85C26.6137 27.8497 26.4276 27.8866 26.254 27.9585C26.0803 28.0304 25.9226 28.1359 25.7899 28.269C25.6929 28.3662 25.6103 28.4767 25.5446 28.5972L25.5471 28.5959ZM23.0422 19.8011C22.1928 19.8031 21.3788 20.1414 20.7783 20.7419C20.1777 21.3425 19.8394 22.1565 19.8374 23.0058V40.9591C19.8394 41.8084 20.1777 42.6224 20.7783 43.223C21.3788 43.8235 22.1928 44.1618 23.0422 44.1638H40.9954C41.8447 44.1618 42.6587 43.8235 43.2593 43.223C43.8599 42.6224 44.1982 41.8084 44.2001 40.9591V23.0058C44.1982 22.1565 43.8599 21.3425 43.2593 20.7419C42.6587 20.1414 41.8447 19.8031 40.9954 19.8011H23.0422ZM40.9954 21.1143H23.0422C22.5412 21.1164 22.0613 21.3164 21.707 21.6706C21.3527 22.0249 21.1527 22.5048 21.1506 23.0058V40.9591C21.1527 41.4601 21.3527 41.94 21.707 42.2943C22.0613 42.6485 22.5412 42.8485 23.0422 42.8506H40.9954C41.4964 42.8485 41.9763 42.6485 42.3306 42.2943C42.6849 41.94 42.8849 41.4601 42.887 40.9591V23.0058C42.8849 22.5048 42.6849 22.0249 42.3306 21.6706C41.9763 21.3164 41.4964 21.1164 40.9954 21.1143ZM43.9019 17.3828H20.1357C19.416 17.3851 18.7265 17.6719 18.2175 18.1808C17.7086 18.6896 17.4216 19.3791 17.4191 20.0987V43.8656C17.4214 44.5853 17.7084 45.275 18.2173 45.7839C18.7263 46.2929 19.4159 46.5798 20.1357 46.5821H43.9019C44.6217 46.5798 45.3113 46.2929 45.8203 45.7839C46.3292 45.275 46.6162 44.5853 46.6185 43.8656V20.0987C46.616 19.3791 46.329 18.6896 45.82 18.1808C45.3111 17.6719 44.6216 17.3851 43.9019 17.3828Z" fill="white"/>
</svg>
