<svg width="35" height="35" viewBox="0 0 35 35" fill="none" xmlns="http://www.w3.org/2000/svg">
<path d="M29.5312 10.9375C30.2832 10.9375 30.9896 11.0799 31.6504 11.3647C32.3112 11.6496 32.8866 12.0426 33.3765 12.5439C33.8664 13.0452 34.2594 13.6263 34.5557 14.2871C34.8519 14.9479 35 15.6543 35 16.4062C35 17.0557 34.8918 17.6766 34.6753 18.269C34.4588 18.8615 34.1569 19.3913 33.7695 19.8584C33.3822 20.3255 32.9207 20.73 32.3853 21.0718C31.8498 21.4136 31.263 21.6471 30.625 21.7725V23.5156C30.625 24.5296 30.4997 25.5151 30.249 26.4722C29.9984 27.4292 29.6452 28.3407 29.1895 29.2065C28.7337 30.0724 28.1755 30.8529 27.5146 31.5479C26.8538 32.2428 26.119 32.8524 25.3101 33.3765C24.5011 33.9006 23.6182 34.2993 22.6611 34.5728C21.7041 34.8462 20.7129 34.9886 19.6875 35C18.6507 35 17.6595 34.8576 16.7139 34.5728C15.7682 34.2879 14.891 33.8892 14.082 33.3765C13.2731 32.8638 12.5382 32.2542 11.8774 31.5479C11.2166 30.8415 10.6584 30.061 10.2026 29.2065C9.74691 28.3521 9.38802 27.4463 9.12598 26.4893C8.86393 25.5322 8.73861 24.541 8.75 23.5156V19.6021C7.34863 19.4767 6.10677 19.1406 5.02441 18.5938C3.94206 18.0469 3.0249 17.3291 2.27295 16.4404C1.521 15.5518 0.957031 14.5207 0.581055 13.3472C0.205078 12.1737 0.0113932 10.9033 0 9.53613V0H5.46875C5.76497 0 6.02132 0.108236 6.23779 0.324707C6.45426 0.541178 6.5625 0.797526 6.5625 1.09375C6.5625 1.38997 6.45426 1.64632 6.23779 1.86279C6.02132 2.07926 5.76497 2.1875 5.46875 2.1875H2.1875V9.53613C2.1875 10.7438 2.3527 11.8376 2.68311 12.8174C3.01351 13.7972 3.50911 14.6346 4.16992 15.3296C4.83073 16.0246 5.62826 16.5601 6.5625 16.936C7.49674 17.312 8.5905 17.5 9.84375 17.5C10.9945 17.5 12.0426 17.3234 12.9883 16.9702C13.9339 16.617 14.7371 16.11 15.3979 15.4492C16.0588 14.7884 16.5771 13.9909 16.9531 13.0566C17.3291 12.1224 17.5114 11.0685 17.5 9.89502V2.1875H14.2188C13.9225 2.1875 13.6662 2.07926 13.4497 1.86279C13.2332 1.64632 13.125 1.38997 13.125 1.09375C13.125 0.797526 13.2332 0.541178 13.4497 0.324707C13.6662 0.108236 13.9225 0 14.2188 0H19.6875V9.53613C19.6875 10.9033 19.4938 12.1737 19.1064 13.3472C18.7191 14.5207 18.1551 15.5518 17.4146 16.4404C16.674 17.3291 15.7625 18.0469 14.6802 18.5938C13.5978 19.1406 12.3503 19.4767 10.9375 19.6021V23.5156C10.9375 24.7347 11.154 25.9025 11.5869 27.019C12.0199 28.1356 12.6294 29.1268 13.4155 29.9927C14.2017 30.8586 15.1245 31.5422 16.1841 32.0435C17.2437 32.5448 18.4115 32.8011 19.6875 32.8125C20.9521 32.8125 22.1143 32.5562 23.1738 32.0435C24.2334 31.5308 25.1562 30.8472 25.9424 29.9927C26.7285 29.1382 27.3381 28.1527 27.771 27.0361C28.2039 25.9196 28.4261 24.7461 28.4375 23.5156V21.7725C27.7995 21.6357 27.2127 21.4022 26.6772 21.0718C26.1418 20.7414 25.6803 20.3426 25.293 19.8755C24.9056 19.4084 24.6037 18.8729 24.3872 18.269C24.1707 17.6652 24.0625 17.0443 24.0625 16.4062C24.0625 15.6543 24.2049 14.9479 24.4897 14.2871C24.7746 13.6263 25.1619 13.0509 25.6519 12.561C26.1418 12.0711 26.7228 11.6781 27.395 11.3818C28.0672 11.0856 28.7793 10.9375 29.5312 10.9375ZM29.5312 19.6875C29.987 19.6875 30.4142 19.6021 30.813 19.4312C31.2118 19.2603 31.5592 19.0267 31.8555 18.7305C32.1517 18.4342 32.3853 18.0868 32.5562 17.688C32.7271 17.2892 32.8125 16.862 32.8125 16.4062C32.8125 15.9505 32.7271 15.5233 32.5562 15.1245C32.3853 14.7257 32.1517 14.3783 31.8555 14.082C31.5592 13.7858 31.2118 13.5522 30.813 13.3813C30.4142 13.2104 29.987 13.125 29.5312 13.125C29.0755 13.125 28.6483 13.2104 28.2495 13.3813C27.8507 13.5522 27.5033 13.7858 27.207 14.082C26.9108 14.3783 26.6772 14.7257 26.5063 15.1245C26.3354 15.5233 26.25 15.9505 26.25 16.4062C26.25 16.862 26.3354 17.2892 26.5063 17.688C26.6772 18.0868 26.9108 18.4342 27.207 18.7305C27.5033 19.0267 27.8507 19.2603 28.2495 19.4312C28.6483 19.6021 29.0755 19.6875 29.5312 19.6875Z" fill="white"/>
</svg>
