<svg width="28" height="28" viewBox="0 0 28 28" fill="none" xmlns="http://www.w3.org/2000/svg">
<path d="M7.4375 7.43747L12.125 12.125M7.4375 7.43747L9.625 5.24997V4.93747L7.825 4.18747C6.53126 3.64832 5.31948 2.9305 4.225 2.05497L2.75 0.874972H2.4375L0.875 2.43747V2.74997L2.055 4.22497C2.93053 5.31945 3.64835 6.53124 4.1875 7.82497L4.9375 9.62497H5.25L7.4375 7.43747ZM16.1675 20.25C18.1286 22.4753 20.0114 24.7683 21.8125 27.125H22.125L27.125 22.125V21.8125C27.125 21.8125 24.0375 19.4975 20.25 16.1675M20.875 13.375C21.9129 13.3753 22.9346 13.1171 23.8477 12.6237C24.7609 12.1303 25.5368 11.4173 26.1054 10.549C26.674 9.68068 27.0175 8.68443 27.1047 7.65018C27.1919 6.61593 27.0202 5.57624 26.605 4.62497H25.875L22.125 8.37497H19.625V5.87497L23.375 2.12497V1.39497C22.2546 0.905144 21.0152 0.75472 19.8102 0.96233C18.6051 1.16994 17.4875 1.72646 16.5956 2.56297C15.7038 3.39949 15.0769 4.47924 14.7926 5.6685C14.5083 6.85777 14.5791 8.1043 14.9962 9.25372L12.75 11.5C7.125 17.125 0.875 21.8125 0.875 21.8125V22.125L5.875 27.125H6.1875C6.1875 27.125 10.875 20.875 16.5 15.25L18.7462 13.0037C19.4289 13.2501 20.1492 13.3758 20.875 13.375Z" stroke="#0084FF"/>
</svg>
