<svg width="40" height="32" viewBox="0 0 40 32" fill="none" xmlns="http://www.w3.org/2000/svg">
<path d="M22.5625 14.125C24.303 14.125 25.9722 13.4336 27.2029 12.2029C28.4336 10.9722 29.125 9.30298 29.125 7.5625C29.125 5.82202 28.4336 4.15282 27.2029 2.92211C25.9722 1.6914 24.303 1 22.5625 1M21.8931 31H4.48188C2.55813 31 1 29.5619 1 27.7862C1 23.3481 4.89813 19.75 9.70563 19.75H16.6694C18.5333 19.7433 20.3552 20.3038 21.8931 21.3569M32.875 19.75V31M38.5 25.375H27.25M19.75 7.5625C19.75 9.30298 19.0586 10.9722 17.8279 12.2029C16.5972 13.4336 14.928 14.125 13.1875 14.125C11.447 14.125 9.77782 13.4336 8.54711 12.2029C7.3164 10.9722 6.625 9.30298 6.625 7.5625C6.625 5.82202 7.3164 4.15282 8.54711 2.92211C9.77782 1.6914 11.447 1 13.1875 1C14.928 1 16.5972 1.6914 17.8279 2.92211C19.0586 4.15282 19.75 5.82202 19.75 7.5625Z" stroke="#0084FF" stroke-width="1.5" stroke-linecap="round" stroke-linejoin="round"/>
</svg>
