<svg width="64" height="64" viewBox="0 0 64 64" fill="none" xmlns="http://www.w3.org/2000/svg">
<path d="M36.2594 28.0084C36.2594 25.6769 34.3622 23.7798 32.0308 23.7798C29.6994 23.7798 27.8022 25.6769 27.8022 28.0084C27.8022 30.3398 29.6994 32.2369 32.0308 32.2369C34.3699 32.2369 36.2594 30.3398 36.2594 28.0084ZM29.2651 28.0084C29.2651 26.4769 30.507 25.235 32.0384 25.235C33.5699 25.235 34.8118 26.4769 34.8118 28.0084C34.8118 29.5398 33.5699 30.7817 32.0384 30.7817C30.507 30.7817 29.2651 29.5398 29.2651 28.0084Z" fill="white"/>
<path d="M53.6914 45.8221H51.6343V44.8697C51.6343 42.8659 50.0038 41.2355 48 41.2355H32.7619V38.6526H32.8457C33.5619 38.6526 34.1714 38.1269 34.2705 37.4336L34.4838 36.0621C35.0019 35.9021 35.4971 35.6964 35.9771 35.445L37.1048 36.2755C37.6838 36.6869 38.4838 36.6183 38.9562 36.1231L40.16 34.9345C40.5486 34.5383 40.6705 33.9669 40.4876 33.4564C40.4724 33.4031 40.4495 33.3574 40.4267 33.304H44.4952C48.64 33.304 52.0152 29.9288 52.0152 25.7916C52.0152 21.8297 48.9371 18.5764 45.0438 18.2945C43.7714 14.4012 40.1143 11.7193 35.9695 11.7193C35.8095 11.7193 35.6571 11.7193 35.4971 11.7269C33.6914 9.38784 30.8952 8.00879 27.9314 8.00879C22.6667 8.00879 18.3771 12.2907 18.3771 17.5555C18.3771 17.8221 18.3848 18.0888 18.4076 18.3478C14.7657 18.8888 12.0076 22.0126 12.0076 25.784C12.0076 29.9288 15.3829 33.2964 19.5276 33.2964H23.6038C23.52 33.4793 23.4514 33.6621 23.4438 33.8678C23.4286 34.264 23.581 34.645 23.8705 34.9269L25.0514 36.1002C25.5467 36.6107 26.3543 36.664 26.9181 36.245L28.0457 35.4297C28.5181 35.6812 29.0133 35.8869 29.539 36.0469L29.7448 37.4336C29.8667 38.1345 30.4686 38.6374 31.1695 38.6374H31.3067V41.2202H16.0686C14.0648 41.2202 12.4343 42.8507 12.4343 44.8545V45.8069H10.3086C9.03619 45.8069 8 46.8431 8 48.1155V53.685C8 54.9574 9.03619 55.9936 10.3086 55.9936H15.8781C17.1505 55.9936 18.1867 54.9574 18.1867 53.685V48.1155C18.1867 46.8431 17.1505 45.8069 15.8781 45.8069H13.8895V44.8545C13.8895 43.6507 14.8648 42.6755 16.0686 42.6755H31.3067V45.8145H29.1505C27.8781 45.8145 26.8419 46.8507 26.8419 48.1231V53.6926C26.8419 54.965 27.8781 56.0012 29.1505 56.0012H34.72C35.9924 56.0012 37.0286 54.965 37.0286 53.6926V48.1231C37.0286 46.8507 35.9924 45.8145 34.72 45.8145H32.7619V42.6755H48C49.2038 42.6755 50.1791 43.6507 50.1791 44.8545V45.8069H48.1219C46.8495 45.8069 45.8133 46.8431 45.8133 48.1155V53.685C45.8133 54.9574 46.8495 55.9936 48.1219 55.9936H53.6914C54.9638 55.9936 56 54.9574 56 53.685V48.1155C56 46.8507 54.9638 45.8221 53.6914 45.8221ZM39.1086 33.9136C39.0933 33.8907 39.0857 33.8526 39.0781 33.8145C39.0857 33.8602 39.101 33.8602 39.1238 33.9059L39.1086 33.9136ZM13.4629 25.784C13.4629 22.5307 16.0076 19.8716 19.2533 19.7269C19.459 19.7193 19.6571 19.6202 19.7867 19.4602C19.9162 19.3002 19.9695 19.0869 19.939 18.8812C19.8629 18.4393 19.8248 17.9974 19.8248 17.5555C19.8248 13.0907 23.459 9.45641 27.9238 9.45641C30.5524 9.45641 33.0286 10.744 34.5448 12.8926C34.6971 13.1059 34.941 13.2202 35.2076 13.1974C35.4514 13.1745 35.7029 13.1593 35.9543 13.1593C39.6267 13.1593 42.8419 15.6278 43.779 19.1707C43.8629 19.4907 44.1524 19.7116 44.4876 19.7116C47.8324 19.7116 50.5524 22.4316 50.5524 25.7764C50.5524 29.1212 47.8324 31.8412 44.4876 31.8412H39.5048C39.741 31.3916 39.9314 30.9269 40.0838 30.4469L41.4629 30.2336C42.1638 30.1193 42.6819 29.525 42.6819 28.8164V27.1326C42.6819 26.4316 42.1562 25.8221 41.4629 25.7155L40.0914 25.5021C39.9314 24.984 39.7257 24.4812 39.4667 24.0088L40.2895 22.8964C40.7162 22.325 40.6552 21.5174 40.1524 21.0221L38.9714 19.8488C38.4838 19.3307 37.6762 19.2621 37.0971 19.6888L35.9848 20.5116C35.4971 20.2526 34.9943 20.0469 34.4838 19.8869L34.2781 18.5307C34.179 17.8221 33.5695 17.2964 32.8533 17.2964H31.1848C30.4762 17.2964 29.8743 17.8069 29.7524 18.5231L29.5543 19.8869C29.341 19.9555 29.1352 20.024 28.9295 20.1155C28.8533 20.1383 28.7848 20.1688 28.6857 20.2069C28.4724 20.2907 28.2667 20.3897 28.0457 20.504L26.9257 19.6812C26.339 19.2621 25.5543 19.3231 25.0667 19.8259L23.8933 20.9993C23.3752 21.4945 23.3143 22.3021 23.741 22.8812L24.5638 23.9936C24.3124 24.4659 24.099 24.9688 23.939 25.4869L22.5676 25.7002C21.8667 25.8069 21.341 26.4164 21.341 27.1174V28.8012C21.341 29.5097 21.859 30.1116 22.5676 30.2183L23.939 30.4316C24.0914 30.9193 24.2819 31.384 24.5181 31.8259H19.5352C16.1829 31.8488 13.4629 29.1288 13.4629 25.784ZM30.9105 35.3688C30.8648 35.0793 30.6514 34.8431 30.3619 34.7669C29.6457 34.5916 28.9829 34.3174 28.381 33.944C28.2667 33.8678 28.1295 33.8374 28 33.8374C27.8476 33.8374 27.7029 33.8831 27.5733 33.9745L26.0876 35.0793L24.9067 33.9212L25.5086 33.1059C25.5848 33.0374 25.6533 32.9536 25.6914 32.8545L26.0114 32.4278C26.1867 32.1916 26.2019 31.864 26.0419 31.6126C25.6686 31.0107 25.3867 30.3402 25.2114 29.624C25.1429 29.3421 24.9067 29.1288 24.6171 29.0831L22.7962 28.8164L22.7886 27.1555L24.6171 26.8736C24.9067 26.8278 25.1429 26.6145 25.2114 26.325C25.3867 25.6164 25.661 24.9459 26.0419 24.3364C26.1943 24.085 26.1867 23.765 26.0114 23.5212L24.9067 22.0507L26.0724 20.8621L27.5657 21.9669C27.8019 22.1421 28.1219 22.1574 28.3733 22.005C28.6781 21.8221 28.96 21.6774 29.2876 21.5402C29.3181 21.525 29.3562 21.5097 29.3943 21.5021C29.4171 21.4945 29.4476 21.4869 29.4705 21.4716C29.7524 21.3497 30.0495 21.2583 30.3695 21.1821C30.659 21.1136 30.88 20.8774 30.9181 20.5802L31.1771 18.7516L32.8305 18.744L33.1124 20.5802C33.1581 20.8697 33.379 21.1059 33.661 21.1745C34.3467 21.3345 35.0171 21.6164 35.6495 21.9974C35.901 22.1497 36.221 22.1345 36.4571 21.9593L37.92 20.8621L39.1086 22.0202L38.0038 23.5136C37.8286 23.7497 37.8133 24.0697 37.9657 24.3288C38.3467 24.9459 38.621 25.6164 38.7962 26.3174C38.8648 26.5993 39.101 26.8202 39.3905 26.8659L41.2114 27.1478L41.2267 28.7936L39.3905 29.0755C39.101 29.1212 38.8648 29.3345 38.7962 29.6164C38.621 30.3174 38.3467 30.9802 37.9657 31.605C37.8133 31.8564 37.8286 32.1764 38.0038 32.4126L39.101 33.8983L37.9505 35.0793L36.4495 33.9745C36.2133 33.7993 35.8933 33.784 35.6419 33.9364C35.0171 34.3097 34.3467 34.584 33.6457 34.7593C33.3638 34.8278 33.1429 35.064 33.0971 35.3536L32.8305 37.1745L32.0686 37.1821C32.0533 37.1821 32.0381 37.1745 32.0229 37.1745C32.0076 37.1745 31.9924 37.1821 31.9771 37.1821L31.1695 37.1897L30.9105 35.3688ZM16.7314 48.1231V53.6926C16.7314 54.165 16.3505 54.5459 15.8781 54.5459H10.3086C9.83619 54.5459 9.45524 54.165 9.45524 53.6926V48.1231C9.45524 47.6507 9.83619 47.2697 10.3086 47.2697H15.8781C16.3429 47.2774 16.7314 47.6583 16.7314 48.1231ZM35.5733 48.1231V53.6926C35.5733 54.165 35.1924 54.5459 34.72 54.5459H29.1505C28.6781 54.5459 28.2971 54.165 28.2971 53.6926V48.1231C28.2971 47.6507 28.6781 47.2697 29.1505 47.2697H34.72C35.1924 47.2774 35.5733 47.6583 35.5733 48.1231ZM54.5448 53.6926C54.5448 54.165 54.1638 54.5459 53.6914 54.5459H48.1219C47.6495 54.5459 47.2686 54.165 47.2686 53.6926V48.1231C47.2686 47.6507 47.6495 47.2697 48.1219 47.2697H53.6914C54.1638 47.2697 54.5448 47.6507 54.5448 48.1231V53.6926Z" fill="white"/>
</svg>
