<svg width="64" height="64" viewBox="0 0 64 64" fill="none" xmlns="http://www.w3.org/2000/svg">
<path d="M29.5348 22.0803C29.5219 21.8518 29.4435 21.6319 29.3091 21.4468C29.1746 21.2616 28.9898 21.1191 28.7765 21.0361L28.1596 20.7863C28.0998 20.6142 28.0301 20.4458 27.9508 20.2818L28.2046 19.6898C28.297 19.4817 28.3297 19.2521 28.2989 19.0265C28.2681 18.8009 28.1751 18.5883 28.0303 18.4127C27.7329 18.0589 27.4044 17.7326 27.0487 17.4375C26.8755 17.2979 26.6673 17.2085 26.4467 17.1792C26.2262 17.1499 26.0018 17.1817 25.7981 17.2712L25.1948 17.5299C25.0309 17.4506 24.8624 17.3809 24.6904 17.321L24.4446 16.7146C24.3667 16.505 24.2309 16.3218 24.0531 16.1863C23.8752 16.0508 23.6625 15.9685 23.4397 15.9491C22.9883 15.9004 22.5329 15.9004 22.0814 15.9491C21.853 15.962 21.6331 16.0404 21.4479 16.1748C21.2628 16.3093 21.1202 16.4941 21.0372 16.7074L20.7874 17.3242C20.6154 17.3841 20.447 17.4538 20.283 17.5331L19.691 17.2793C19.483 17.1864 19.2532 17.1535 19.0275 17.1843C18.8019 17.2151 18.5893 17.3084 18.4138 17.4536C18.0603 17.7494 17.734 18.0763 17.4387 18.4303C17.299 18.6035 17.2096 18.8118 17.1803 19.0323C17.1509 19.2529 17.1828 19.4773 17.2724 19.681L17.531 20.2842C17.4518 20.4482 17.382 20.6166 17.3222 20.7887L16.7157 21.0345C16.5061 21.1124 16.3229 21.2481 16.1874 21.426C16.0519 21.6039 15.9697 21.8166 15.9502 22.0393C15.902 22.4908 15.902 22.9461 15.9502 23.3976C15.9632 23.6261 16.0415 23.846 16.176 24.0311C16.3104 24.2163 16.4953 24.3589 16.7085 24.4418L17.3254 24.6917C17.3853 24.8637 17.455 25.0321 17.5343 25.1961L17.2804 25.7881C17.188 25.9962 17.1554 26.2259 17.1861 26.4514C17.2169 26.677 17.3099 26.8896 17.4547 27.0653C17.7506 27.4188 18.0775 27.7451 18.4315 28.0404C18.6048 28.1798 18.8131 28.269 19.0336 28.2983C19.2541 28.3276 19.4784 28.2959 19.6821 28.2067L20.2886 27.9472C20.4533 28.0276 20.6219 28.0966 20.793 28.1585L21.034 28.7633C21.1119 28.9729 21.2477 29.1561 21.4256 29.2916C21.6034 29.4271 21.8161 29.5094 22.0389 29.5288C22.2871 29.5537 22.5345 29.5666 22.7682 29.5666C22.9784 29.5674 23.1884 29.5559 23.3972 29.532C23.6259 29.5187 23.846 29.4397 24.0312 29.3047C24.2163 29.1697 24.3587 28.9843 24.4414 28.7706L24.6824 28.1585C24.854 28.0965 25.0224 28.0257 25.1868 27.9464L25.782 28.2019C25.9901 28.2943 26.2198 28.3269 26.4454 28.2961C26.6709 28.2654 26.8835 28.1723 27.0592 28.0276C27.4153 27.731 27.7441 27.403 28.0416 27.0476C28.1813 26.8744 28.2707 26.6661 28.3 26.4456C28.3293 26.225 28.2974 26.0006 28.2078 25.7969L27.9492 25.1937C28.0285 25.0297 28.0982 24.8613 28.158 24.6892L28.7645 24.4435C28.9755 24.3632 29.1594 24.2249 29.2952 24.0445C29.4309 23.8642 29.5129 23.6491 29.5316 23.4241C29.5798 22.9775 29.5808 22.5271 29.5348 22.0803ZM27.9524 23.0442L27.2022 23.3478C27.0854 23.3951 26.9813 23.4691 26.8984 23.564C26.8156 23.6589 26.7562 23.7719 26.725 23.894C26.6461 24.1935 26.5261 24.4805 26.3684 24.7471C26.3048 24.8556 26.2676 24.9776 26.2598 25.1032C26.252 25.2288 26.2738 25.3544 26.3234 25.47L26.6447 26.2122C26.5101 26.3607 26.368 26.5023 26.219 26.6363L25.4776 26.3198C25.3636 26.2706 25.2397 26.2486 25.1157 26.2557C24.9917 26.2628 24.8711 26.2988 24.7635 26.3608C24.4817 26.5213 24.1815 26.647 23.8695 26.7351C23.7506 26.7682 23.6409 26.8282 23.549 26.9106C23.457 26.9929 23.3853 27.0953 23.3393 27.2098L23.0437 27.9504C22.8439 27.9624 22.6435 27.9624 22.4437 27.9504L22.1489 27.2123C22.103 27.0977 22.0312 26.9953 21.9393 26.913C21.8473 26.8307 21.7377 26.7706 21.6188 26.7375C21.3067 26.6494 21.0065 26.5237 20.7248 26.3632C20.6172 26.3012 20.4966 26.2652 20.3726 26.2581C20.2486 26.251 20.1247 26.273 20.0107 26.3223L19.2685 26.6436C19.1199 26.5089 18.9784 26.3669 18.8444 26.2178L19.1608 25.4764C19.2105 25.3608 19.2323 25.2352 19.2245 25.1096C19.2166 24.984 19.1794 24.8621 19.1159 24.7535C18.9576 24.4847 18.8375 24.1952 18.7592 23.8932C18.7281 23.7711 18.6687 23.6581 18.5858 23.5632C18.5029 23.4683 18.3989 23.3943 18.2821 23.347L17.5302 23.0426C17.5182 22.8422 17.5182 22.6413 17.5302 22.4409L18.2797 22.1373C18.3965 22.0901 18.5005 22.016 18.5834 21.9211C18.6663 21.8262 18.7257 21.7132 18.7568 21.5911C18.8346 21.2893 18.9541 20.9997 19.1118 20.7308C19.1754 20.6223 19.2126 20.5003 19.2204 20.3747C19.2282 20.2492 19.2065 20.1235 19.1568 20.0079L18.8395 19.2657C18.9705 19.1211 19.1159 18.9765 19.2653 18.8416L20.0067 19.1581C20.1223 19.2077 20.2479 19.2295 20.3735 19.2217C20.499 19.2139 20.621 19.1767 20.7296 19.1131C20.9984 18.9548 21.2879 18.8348 21.5899 18.7564C21.7119 18.7253 21.825 18.6659 21.9199 18.583C22.0148 18.5001 22.0888 18.3961 22.1361 18.2793L22.4405 17.5275C22.6409 17.5155 22.8418 17.5155 23.0421 17.5275L23.3458 18.2769C23.393 18.3937 23.4671 18.4977 23.562 18.5806C23.6568 18.6635 23.7699 18.7229 23.892 18.754C24.1925 18.8327 24.4807 18.9527 24.7482 19.1107C24.8566 19.1748 24.9786 19.2122 25.1043 19.2201C25.23 19.2279 25.3557 19.2058 25.4712 19.1557L26.2134 18.8384C26.3619 18.973 26.5034 19.1151 26.6375 19.2641L26.321 20.0055C26.2714 20.1211 26.2496 20.2467 26.2574 20.3723C26.2652 20.4979 26.3024 20.6199 26.366 20.7284C26.5243 20.9972 26.6443 21.2868 26.7226 21.5887C26.7537 21.7108 26.8132 21.8238 26.896 21.9187C26.9789 22.0136 27.083 22.0877 27.1998 22.1349L27.9516 22.4393C27.9639 22.6394 27.9641 22.8401 27.9524 23.0402V23.0442Z" fill="white"/>
<path d="M47.2391 42.9181C47.4501 42.8378 47.634 42.6995 47.7698 42.5191C47.9055 42.3388 47.9875 42.1237 48.0062 41.8987C48.0533 41.452 48.0533 41.0016 48.0062 40.5549C47.9933 40.3264 47.9149 40.1065 47.7805 39.9214C47.646 39.7362 47.4612 39.5937 47.2479 39.5107L46.631 39.2609C46.5712 39.0888 46.5015 38.9204 46.4222 38.7564L46.676 38.1644C46.7684 37.9564 46.8011 37.7267 46.7703 37.5011C46.7395 37.2755 46.6465 37.063 46.5017 36.8873C46.2053 36.5337 45.8779 36.2073 45.5234 35.9121C45.3502 35.7724 45.1419 35.683 44.9213 35.6537C44.7008 35.6244 44.4764 35.6563 44.2727 35.7458L43.6695 36.0045C43.5055 35.9252 43.337 35.8555 43.165 35.7956L42.9192 35.1892C42.8413 34.9796 42.7055 34.7964 42.5277 34.6609C42.3498 34.5254 42.1371 34.4431 41.9144 34.4237C41.4629 34.375 41.0075 34.375 40.5561 34.4237C40.3276 34.4366 40.1077 34.515 39.9225 34.6494C39.7374 34.7839 39.5948 34.9687 39.5118 35.182L39.262 35.7989C39.09 35.8587 38.9216 35.9284 38.7576 36.0077L38.1656 35.7539C37.9576 35.661 37.7278 35.6281 37.5021 35.6589C37.2765 35.6897 37.0639 35.783 36.8884 35.9282C36.5349 36.2241 36.2086 36.5509 35.9133 36.9049C35.7736 37.0781 35.6842 37.2864 35.6549 37.507C35.6255 37.7275 35.6574 37.9519 35.747 38.1556L36.0056 38.7588C35.9264 38.9228 35.8567 39.0912 35.7968 39.2633L35.1903 39.5091C34.9807 39.587 34.7975 39.7227 34.662 39.9006C34.5265 40.0785 34.4443 40.2912 34.4249 40.5139C34.3766 40.9654 34.3766 41.4207 34.4249 41.8722C34.4378 42.1007 34.5161 42.3206 34.6506 42.5057C34.785 42.6909 34.9699 42.8335 35.1831 42.9165L35.8 43.1663C35.8599 43.3383 35.9296 43.5067 36.0089 43.6707L35.755 44.2627C35.6626 44.4708 35.63 44.7005 35.6607 44.926C35.6915 45.1516 35.7845 45.3642 35.9293 45.5399C36.2252 45.8934 36.5521 46.2197 36.9061 46.515C37.0796 46.6541 37.2878 46.743 37.5083 46.7723C37.7287 46.8017 37.9529 46.7702 38.1568 46.6813L38.7632 46.4218C38.9239 46.5022 39.0966 46.5712 39.2676 46.6331L39.5086 47.2379C39.5865 47.4475 39.7223 47.6307 39.9002 47.7662C40.078 47.9017 40.2907 47.984 40.5135 48.0034C40.7617 48.0283 41.0091 48.0412 41.2428 48.0412C41.453 48.042 41.663 48.0305 41.8718 48.0066C42.1005 47.9933 42.3206 47.9144 42.5058 47.7793C42.6909 47.6443 42.8333 47.4589 42.916 47.2452L43.157 46.6331C43.3287 46.5711 43.497 46.5003 43.6614 46.421L44.2566 46.6765C44.4647 46.7689 44.6944 46.8015 44.92 46.7707C45.1456 46.74 45.3581 46.647 45.5338 46.5022C45.8899 46.2056 46.2187 45.8776 46.5162 45.5222C46.6559 45.349 46.7453 45.1407 46.7746 44.9202C46.8039 44.6996 46.772 44.4752 46.6824 44.2715L46.4238 43.6683C46.5031 43.5043 46.5728 43.3359 46.6326 43.1639L47.2391 42.9181ZM46.4254 41.5148L45.6752 41.8184C45.5584 41.8657 45.4543 41.9397 45.3714 42.0346C45.2886 42.1295 45.2292 42.2425 45.198 42.3646C45.1199 42.6654 45.0004 42.9538 44.843 43.2217C44.7794 43.3302 44.7422 43.4522 44.7344 43.5778C44.7266 43.7034 44.7484 43.829 44.798 43.9446L45.1193 44.6868C44.9847 44.8353 44.8426 44.9769 44.6936 45.1109L43.9522 44.7945C43.8383 44.7449 43.7143 44.7228 43.5903 44.7299C43.4662 44.737 43.3456 44.7732 43.2381 44.8354C42.9563 44.9959 42.6561 45.1216 42.3441 45.2097C42.2252 45.2428 42.1155 45.3029 42.0236 45.3852C41.9316 45.4675 41.8599 45.5699 41.8139 45.6845L41.5184 46.425C41.3185 46.4371 41.1182 46.4371 40.9183 46.425L40.6235 45.6869C40.5776 45.5723 40.5058 45.4699 40.4139 45.3876C40.322 45.3053 40.2123 45.2452 40.0934 45.2121C39.7813 45.124 39.4811 44.9983 39.1994 44.8378C39.0918 44.7756 38.9712 44.7395 38.8472 44.7324C38.7232 44.7253 38.5992 44.7474 38.4853 44.7969L37.7431 45.1182C37.5946 44.9836 37.453 44.8415 37.319 44.6924L37.6354 43.951C37.6851 43.8354 37.7069 43.7098 37.6991 43.5842C37.6912 43.4586 37.654 43.3367 37.5905 43.2281C37.4322 42.9593 37.3121 42.6698 37.2338 42.3678C37.2027 42.2457 37.1433 42.1327 37.0604 42.0378C36.9775 41.9429 36.8735 41.8689 36.7567 41.8216L36.0048 41.5172C35.9928 41.3168 35.9928 41.1159 36.0048 40.9156L36.7543 40.6119C36.8711 40.5647 36.9751 40.4906 37.058 40.3957C37.1409 40.3009 37.2003 40.1878 37.2314 40.0657C37.3092 39.7639 37.4287 39.4743 37.5864 39.2054C37.65 39.0969 37.6872 38.9749 37.695 38.8493C37.7029 38.7238 37.6811 38.5981 37.6314 38.4825L37.3101 37.7403C37.4411 37.5957 37.5864 37.4511 37.7358 37.3162L38.4772 37.6327C38.5929 37.6823 38.7185 37.7041 38.8441 37.6963C38.9696 37.6885 39.0916 37.6513 39.2002 37.5877C39.469 37.4294 39.7585 37.3094 40.0605 37.231C40.1825 37.1999 40.2956 37.1405 40.3905 37.0576C40.4854 36.9748 40.5594 36.8707 40.6067 36.7539L40.9111 36.0021C41.1114 35.9893 41.3124 35.9893 41.5127 36.0021L41.8164 36.7515C41.8636 36.8683 41.9377 36.9723 42.0325 37.0552C42.1274 37.1381 42.2405 37.1975 42.3626 37.2286C42.6645 37.307 42.9541 37.427 43.2228 37.5853C43.3314 37.6489 43.4534 37.6861 43.579 37.6939C43.7045 37.7017 43.8302 37.6799 43.9458 37.6303L44.688 37.309C44.8365 37.4436 44.9781 37.5857 45.1121 37.7347L44.7956 38.4761C44.746 38.5917 44.7242 38.7173 44.732 38.8429C44.7398 38.9685 44.777 39.0905 44.8406 39.199C44.9989 39.4678 45.1189 39.7574 45.1972 40.0593C45.2284 40.1814 45.2878 40.2944 45.3706 40.3893C45.4535 40.4842 45.5576 40.5583 45.6744 40.6055L46.4262 40.9099C46.4386 41.1114 46.4389 41.3133 46.427 41.5148H46.4254Z" fill="white"/>
<path d="M33.097 12.2046C31.725 10.8329 30.0962 9.74491 28.3037 9.00271C26.5112 8.26052 24.5901 7.87865 22.65 7.87891C18.7318 7.87943 14.9743 9.43643 12.2041 12.2074C9.43388 14.9783 7.87789 18.7362 7.87842 22.6544C7.87895 26.5726 9.43594 30.3301 12.2069 33.1003C13.5336 34.5121 15.1371 35.6351 16.9174 36.3992C18.6976 37.1634 20.6163 37.5522 22.5536 37.5415C24.0303 37.5269 25.5012 37.3518 26.9401 37.0194C25.8774 41.9096 26.1047 46.9949 30.8616 51.7518C33.6484 54.4361 37.3773 55.9197 41.2465 55.8835C45.1158 55.8473 48.8163 54.2941 51.5523 51.5581C54.2884 48.822 55.8415 45.1215 55.8778 41.2523C55.914 37.383 54.4304 33.6541 51.7461 30.8673C46.7603 25.8815 41.389 25.9859 37.0129 26.9474C38.082 22.0516 37.8531 16.9662 33.097 12.2046ZM13.3419 31.9589C10.8766 29.4879 9.49216 26.14 9.49216 22.6496C9.49216 19.1592 10.8766 15.8113 13.3419 13.3404C14.2817 12.4006 16.4272 11.5355 19.0956 11.721C20.3109 11.8138 21.5053 12.0889 22.6387 12.5371C20.6389 12.537 18.684 13.1301 17.0214 14.2414C15.3588 15.3526 14.0632 16.932 13.2984 18.7798C12.5337 20.6276 12.3343 22.6607 12.7253 24.6219C13.1164 26.5831 14.0804 28.3842 15.4954 29.7973C16.3398 30.6733 17.3569 31.3643 18.4822 31.8267C19.6076 32.2891 20.8167 32.5127 22.033 32.4834C24.2917 32.3888 26.5234 31.9556 28.6534 31.1982C28.2028 32.5236 27.7522 33.8827 27.3731 35.2627C23.0564 36.3382 18.0666 36.6772 13.3419 31.9589ZM29.2952 29.3025C24.1609 31.0167 19.9566 31.9862 16.632 28.6599C15.089 27.054 14.2373 24.907 14.2598 22.68C14.2823 20.453 15.1772 18.3237 16.7523 16.7492C18.3274 15.1747 20.4571 14.2807 22.6841 14.2591C24.9111 14.2375 27.0577 15.0901 28.6631 16.6337C31.9773 19.9367 31.0078 24.1521 29.2952 29.3025ZM31.9974 50.6112C25.8364 44.4502 28.1337 37.707 30.3539 31.1854L30.6905 30.1934C32.2391 25.5883 34.1653 19.8587 29.8021 15.4995C25.6838 11.3836 21.7696 10.3065 19.2136 10.1274C19.0297 10.1153 18.8594 10.1225 18.6811 10.1177C20.9776 9.38918 23.4299 9.30439 25.7713 9.87259C28.1126 10.4408 30.2533 11.6402 31.9604 13.3404C38.1141 19.5005 35.8249 26.2349 33.6119 32.7469L33.2625 33.7694C31.3564 39.4098 30.1081 44.4085 34.1509 48.4544C38.1205 52.4233 42.0163 53.7832 45.1859 53.8716C42.8988 54.5776 40.4626 54.6471 38.1389 54.0726C35.8153 53.4982 33.6921 52.3015 31.9974 50.6112ZM35.2907 47.3219C31.9701 44.002 32.942 39.7954 34.6593 34.6586C39.7937 32.9397 43.9987 31.9677 47.3218 35.2908C48.1263 36.0774 48.7669 37.0157 49.2063 38.0516C49.6457 39.0874 49.8753 40.2001 49.8818 41.3253C49.8882 42.4504 49.6714 43.5657 49.2438 44.6065C48.8163 45.6473 48.1865 46.5929 47.391 47.3887C46.5955 48.1844 45.65 48.8144 44.6093 49.2422C43.5686 49.6701 42.4534 49.8872 41.3283 49.881C40.2031 49.8749 39.0903 49.6456 38.0544 49.2065C37.0184 48.7673 36.0799 48.127 35.2931 47.3227L35.2907 47.3219ZM50.6127 31.9958C53.0774 34.4666 54.4615 37.814 54.4615 41.3039C54.4615 44.7938 53.0774 48.1412 50.6127 50.612C49.1668 52.0578 45.5675 53.0675 41.3183 51.4152C43.996 51.4164 46.5646 50.354 48.4592 48.4617C50.3513 46.5626 51.4136 43.9911 51.4136 41.3103C51.4136 38.6296 50.3513 36.0581 48.4592 34.159C44.7811 30.4769 40.3182 31.1725 35.3027 32.7629C35.7534 31.4352 36.2048 30.0737 36.5839 28.6913C40.9054 27.6173 45.8992 27.2816 50.6127 31.9958Z" fill="white"/>
</svg>
