<svg width="64" height="64" viewBox="0 0 64 64" fill="none" xmlns="http://www.w3.org/2000/svg">
<path d="M38.5821 56.3179H15.7C13.5456 56.3158 11.798 54.5682 11.7959 52.4138L11.798 11.1082C11.8001 8.95383 13.5456 7.20827 15.7 7.2041H38.5821C40.7364 7.20619 42.4841 8.95383 42.4861 11.1082V33.4857C42.4861 33.9174 42.1358 34.2678 41.7041 34.2678C41.2724 34.2678 40.9221 33.9174 40.9221 33.4857V11.1082C40.92 9.81724 39.8731 8.77033 38.5821 8.76824H15.7C14.4091 8.77033 13.3643 9.81724 13.3601 11.1082V52.4138C13.3622 53.7048 14.4091 54.7517 15.7 54.7537H38.5821C39.8731 54.7517 40.92 53.7048 40.9221 52.4138V45.0835C40.9221 44.6518 41.2724 44.3014 41.7041 44.3014C42.1358 44.3014 42.4861 44.6518 42.4861 45.0835V52.4138C42.4841 54.5682 40.7364 56.3158 38.5821 56.3179Z" fill="white"/>
<path d="M30.2818 12.2213H24C23.5662 12.2213 23.2158 11.8709 23.2158 11.4393C23.2158 11.0076 23.5662 10.6572 24 10.6572H30.2839H30.2818C30.7156 10.6572 31.0639 11.0076 31.0639 11.4393C31.0639 11.8709 30.7155 12.2213 30.2818 12.2213Z" fill="white"/>
<path d="M41.7023 15.6754H12.5779C12.1462 15.6754 11.7959 15.3251 11.7959 14.8934C11.7959 14.4617 12.1463 14.1113 12.5779 14.1113H41.7023C42.134 14.1113 42.4843 14.4617 42.4843 14.8934C42.4843 15.3251 42.134 15.6754 41.7023 15.6754Z" fill="white"/>
<path d="M41.7023 49.4108H12.5779C12.1462 49.4108 11.7959 49.0604 11.7959 48.6287C11.7959 48.197 12.1463 47.8467 12.5779 47.8467H41.7023C42.134 47.8467 42.4843 48.197 42.4843 48.6287C42.4843 49.0604 42.134 49.4108 41.7023 49.4108Z" fill="white"/>
<path d="M41.202 42.7933C40.8787 42.7933 40.5867 42.5931 40.472 42.2887L38.3907 36.8371C38.3073 36.641 38.3073 36.42 38.3907 36.224C38.472 36.0279 38.6326 35.8736 38.8307 35.7985C39.0309 35.7214 39.252 35.7297 39.4439 35.8215C39.6357 35.9111 39.7838 36.078 39.8505 36.2782L41.936 41.7298V41.7318C42.0904 42.1364 41.8881 42.5869 41.4856 42.7412C41.3938 42.7767 41.2979 42.7933 41.202 42.7933Z" fill="white"/>
<path d="M36.6637 42.7933C36.5031 42.7933 36.3446 42.7433 36.2132 42.6473L32.3759 39.9195V39.9216C32.1694 39.7756 32.0464 39.5378 32.0464 39.2855C32.0464 39.0311 32.1694 38.7933 32.3759 38.6473L36.2132 35.9195V35.9215C36.5636 35.6984 37.0287 35.7902 37.2685 36.1301C37.5084 36.47 37.4416 36.9372 37.1142 37.1958L34.1736 39.2813L37.1142 41.3668C37.3916 41.5628 37.5105 41.9173 37.4062 42.2427C37.304 42.568 37.0016 42.787 36.6596 42.787L36.6637 42.7933Z" fill="white"/>
<path d="M43.659 42.7933C43.3191 42.7933 43.0167 42.5743 42.9124 42.249C42.8081 41.9236 42.927 41.5691 43.2044 41.3731L46.145 39.2876L43.2044 37.2021C43.0355 37.0811 42.9228 36.8997 42.8874 36.6953C42.8519 36.4909 42.8999 36.2803 43.0209 36.1113C43.2711 35.7589 43.7591 35.6775 44.1116 35.9278L47.949 38.6431C48.1554 38.7891 48.2785 39.0269 48.2785 39.2813C48.2785 39.5336 48.1554 39.7714 47.949 39.9174L44.1116 42.6452V42.6431C43.9802 42.7391 43.8217 42.7912 43.659 42.7933Z" fill="white"/>
<path d="M51.0122 45.8654H29.3105C28.8768 45.8654 28.5264 45.5151 28.5264 45.0834V33.4857C28.5264 33.054 28.8767 32.7036 29.3105 32.7036H51.0122C51.2207 32.7036 51.4189 32.787 51.5669 32.933C51.7129 33.079 51.7964 33.2792 51.7964 33.4857V45.0834C51.7964 45.2899 51.7129 45.4901 51.5669 45.6361C51.4189 45.7821 51.2208 45.8654 51.0122 45.8654ZM30.09 44.3013H50.2322V34.2636H30.09V44.3013Z" fill="white"/>
<path d="M21.427 33.0874C21.3728 33.0874 21.3206 33.0812 21.2706 33.0728C20.2883 32.8726 19.3561 32.4847 18.5219 31.9342C18.3384 31.8111 18.2132 31.6172 18.1799 31.3982C18.1465 31.1792 18.2091 30.9581 18.3488 30.7871C18.5594 30.5285 18.5407 30.1531 18.305 29.9175C18.0693 29.6818 17.694 29.6631 17.4374 29.8758C17.2643 30.0134 17.0433 30.076 16.8243 30.0426C16.6053 30.0092 16.4114 29.8841 16.2904 29.7006C15.7377 28.8664 15.3499 27.9342 15.1497 26.954H15.1517C15.1059 26.735 15.1538 26.5098 15.2873 26.3304C15.4187 26.151 15.6189 26.0363 15.84 26.0155C16.1716 25.9821 16.424 25.7027 16.424 25.3711C16.424 25.0374 16.1716 24.758 15.84 24.7267C15.6189 24.7037 15.4166 24.589 15.2852 24.4097C15.1538 24.2324 15.1059 24.0051 15.1517 23.7882C15.3499 22.8059 15.7357 21.8737 16.2883 21.0395H16.2904C16.4114 20.856 16.6053 20.7308 16.8243 20.6975C17.0433 20.6641 17.2644 20.7267 17.4374 20.8664C17.694 21.077 18.0694 21.0583 18.305 20.8226C18.5407 20.5869 18.5595 20.2116 18.3488 19.955C18.207 19.7819 18.1465 19.5609 18.1799 19.3419C18.2133 19.1229 18.3384 18.929 18.5219 18.808C19.3561 18.2532 20.2883 17.8674 21.2706 17.6693C21.4875 17.6234 21.7127 17.6714 21.8921 17.8028C22.0715 17.9342 22.1862 18.1365 22.207 18.3576C22.2404 18.6871 22.5198 18.9415 22.8535 18.9415C23.1851 18.9415 23.4645 18.6871 23.4958 18.3576H23.4979C23.5188 18.1344 23.6335 17.9342 23.8128 17.8028C23.9922 17.6714 24.2174 17.6234 24.4364 17.6693C25.4166 17.8674 26.3488 18.2533 27.183 18.808C27.3665 18.929 27.4917 19.1229 27.525 19.3419C27.5584 19.5609 27.4979 19.7819 27.3582 19.955C27.1455 20.2115 27.1642 20.5869 27.3999 20.8226C27.6356 21.0583 28.0109 21.077 28.2675 20.8664C28.4406 20.7246 28.6616 20.6641 28.8806 20.6975C29.0996 20.7308 29.2935 20.856 29.4145 21.0395C29.965 21.8758 30.3488 22.8122 30.5449 23.7945C30.5907 24.0114 30.5428 24.2366 30.4114 24.416C30.28 24.5953 30.0777 24.71 29.8566 24.733C29.525 24.7643 29.2726 25.0437 29.2726 25.3753C29.2726 25.709 29.525 25.9884 29.8566 26.0218C30.0777 26.0426 30.2779 26.1574 30.4093 26.3367C30.5407 26.5161 30.5907 26.7413 30.5449 26.9603C30.3446 27.9405 29.9588 28.8727 29.4062 29.7069C29.2852 29.8904 29.0892 30.0155 28.8723 30.0489C28.6533 30.0823 28.4301 30.0218 28.2592 29.88C28.0026 29.6694 27.6252 29.6881 27.3895 29.9238C27.1559 30.1594 27.1372 30.5348 27.3478 30.7914C27.4875 30.9645 27.548 31.1855 27.5146 31.4045C27.4813 31.6235 27.3582 31.8174 27.1747 31.9384C26.3384 32.4911 25.4062 32.8789 24.426 33.0771V33.0791C24.2091 33.1229 23.9818 33.075 23.8024 32.9436C23.6231 32.8122 23.5084 32.6099 23.4875 32.3888C23.4458 32.0656 23.1726 31.8236 22.8452 31.8216C22.5198 31.8216 22.2446 32.0635 22.2029 32.3867C22.1632 32.7872 21.8254 33.0916 21.4229 33.0916L21.427 33.0874ZM19.9776 30.9748H19.9755C20.2779 31.1312 20.5928 31.2605 20.914 31.3648C21.3081 30.6683 22.0443 30.2386 22.8452 30.2386C23.6439 30.2386 24.3801 30.6682 24.7722 31.3648C25.0955 31.2605 25.4104 31.1312 25.7107 30.9748C25.498 30.2053 25.7149 29.3773 26.28 28.8121C26.8452 28.247 27.6711 28.0301 28.4427 28.2449C28.597 27.9425 28.7284 27.6276 28.8327 27.3064C28.1361 26.9122 27.7065 26.176 27.7065 25.3773C27.7065 24.5765 28.1361 23.8403 28.8327 23.4482C28.7284 23.1249 28.597 22.81 28.4427 22.5097C27.6711 22.7203 26.8452 22.5014 26.2821 21.9341C25.7169 21.3669 25.5042 20.5389 25.7211 19.7693C25.4187 19.615 25.1059 19.4836 24.7826 19.3794C24.3905 20.0759 23.6523 20.5055 22.8535 20.5055C22.0547 20.5055 21.3165 20.0759 20.9244 19.3794C20.6011 19.4836 20.2883 19.615 19.9859 19.7693C20.2007 20.5389 19.9838 21.3669 19.4187 21.932C18.8535 22.4993 18.0276 22.7162 17.256 22.5014C17.0996 22.8017 16.9702 23.1166 16.866 23.4399C17.5605 23.8319 17.9901 24.5702 17.9901 25.3669C17.9901 26.1656 17.5605 26.9039 16.866 27.2981C16.9702 27.6192 17.1016 27.9342 17.256 28.2366C18.0276 28.0197 18.8535 28.2366 19.4187 28.8038C19.9859 29.369 20.2028 30.1949 19.988 30.9644L19.9776 30.9748Z" fill="white"/>
<path d="M22.8487 29.2167C21.295 29.2167 19.8914 28.2804 19.2971 26.8434C18.7027 25.4065 19.0301 23.7548 20.1292 22.6536C21.2283 21.5545 22.8821 21.2271 24.319 21.8215C25.7539 22.4159 26.6903 23.8173 26.6903 25.3731V25.371C26.6903 27.4941 24.9696 29.2126 22.8487 29.2167ZM22.8487 23.0935C21.9269 23.0915 21.0947 23.6462 20.7423 24.4992C20.3899 25.3501 20.5838 26.3303 21.2345 26.983C21.8873 27.6358 22.8675 27.8297 23.7204 27.4773C24.5713 27.1248 25.126 26.2948 25.126 25.3709C25.126 24.1133 24.1062 23.0935 22.8487 23.0935Z" fill="white"/>
</svg>
