<svg width="64" height="64" viewBox="0 0 64 64" fill="none" xmlns="http://www.w3.org/2000/svg">
<path d="M31.8635 28.8999C30.2457 28.8999 28.9282 30.2174 28.9282 31.8352C28.9282 33.453 30.2457 34.7705 31.8635 34.7705C33.4814 34.7705 34.7989 33.453 34.7989 31.8352C34.7989 30.2174 33.4814 28.8999 31.8635 28.8999Z" fill="white"/>
<path d="M53.1279 18.8076C51.2703 15.8505 46.5528 15.2111 40.6262 16.6255C38.6718 10.8542 35.6203 7.19971 32.1279 7.19971C28.6356 7.19971 25.5839 10.8543 23.6296 16.6255C17.7033 15.2087 12.9855 15.8505 11.128 18.8076C9.14209 21.9682 10.9585 26.9259 15.4196 31.9993C10.9585 37.0731 9.14209 42.0309 11.128 45.191C12.3607 47.1527 14.8504 48.0972 18.1172 48.0972C19.7762 48.0972 21.6362 47.8526 23.6318 47.3755C25.5838 53.1444 28.6354 56.7988 32.1276 56.7988C35.6199 56.7988 38.6717 53.1442 40.6235 47.3755C42.6191 47.8526 44.4791 48.0972 46.138 48.0972C49.4051 48.0972 51.8948 47.1527 53.1273 45.191C55.1132 42.0304 53.2968 37.0727 48.8357 31.9993C53.2968 26.9255 55.1138 21.9677 53.1279 18.8076ZM52.055 19.4809C53.6849 22.0771 51.9266 26.4682 47.9523 31.0283C46.4193 29.4032 44.6223 27.7806 42.6 26.2088C42.2948 23.1621 41.7548 20.3479 41.0209 17.8705C46.32 16.6184 50.5341 17.0566 52.055 19.4809ZM37.1775 40.0375C35.4968 41.0934 33.8014 42.0331 32.1279 42.8541C30.452 42.0331 28.7567 41.0935 27.0784 40.0375C25.5962 39.1051 24.1915 38.1243 22.874 37.1143C22.719 35.4602 22.6343 33.7504 22.6343 31.9994C22.6343 30.2484 22.719 28.5385 22.874 26.8844C24.1915 25.8745 25.5962 24.8912 27.0784 23.9612C28.7567 22.9053 30.452 21.9656 32.1255 21.147C33.8014 21.968 35.4968 22.9052 37.1775 23.9612C38.6597 24.8936 40.0643 25.8745 41.3818 26.8844C41.5368 28.5385 41.6216 30.2484 41.6216 31.9994C41.6216 33.7504 41.5368 35.4602 41.3818 37.1143C40.0643 38.1243 38.6597 39.1075 37.1775 40.0375ZM41.193 38.8483C40.8733 41.3623 40.3817 43.7066 39.7568 45.8016C37.8024 45.2591 35.7244 44.5011 33.598 43.542C35.0051 42.813 36.4292 42.0041 37.8508 41.1105C39.0182 40.3791 40.1322 39.6209 41.193 38.8483ZM30.658 43.5419C28.5316 44.501 26.4537 45.259 24.4992 45.8015C23.8743 43.7066 23.3827 41.3622 23.063 38.8482C24.1238 39.6208 25.2378 40.3764 26.4052 41.1102C27.8268 42.0039 29.2508 42.8129 30.658 43.5419ZM21.5056 36.0319C19.8974 34.712 18.4492 33.3533 17.1825 31.9995C18.4492 30.6457 19.8974 29.287 21.5056 27.9671C21.416 29.2773 21.3675 30.6214 21.3675 31.9995C21.3675 33.3776 21.416 34.7216 21.5056 36.0319ZM23.0628 25.1503C23.3825 22.6364 23.8742 20.2897 24.499 18.1946C26.4534 18.7371 28.5314 19.4951 30.6602 20.4541C29.2531 21.1831 27.8291 21.9945 26.405 22.8881C25.2377 23.6195 24.1236 24.3777 23.0628 25.1503ZM33.6003 20.4567C35.7267 19.4977 37.8046 18.7397 39.7591 18.1972C40.3839 20.2921 40.8756 22.6365 41.1953 25.1504C40.1345 24.3779 39.0204 23.6223 37.8531 22.8884C36.429 21.9948 35.0075 21.1833 33.6003 20.4567ZM42.7502 27.9668C44.3584 29.2867 45.8066 30.6453 47.0733 31.9992C45.8066 33.353 44.3584 34.7117 42.7502 36.0316C42.8398 34.7213 42.8883 33.3772 42.8883 31.9992C42.8883 30.6211 42.8398 29.277 42.7502 27.9668ZM32.1278 8.46599C34.9905 8.46599 37.6036 11.8009 39.3595 16.9525C37.0732 17.5919 34.6344 18.5219 32.1278 19.7232C29.6212 18.5195 27.1823 17.5919 24.8962 16.9525C26.652 11.8012 29.2652 8.46599 32.1278 8.46599ZM12.2005 19.4809C13.1765 17.926 15.2593 17.1874 18.025 17.1874C19.5726 17.1874 21.3333 17.4199 23.2344 17.8704C22.5006 20.3479 21.9605 23.1646 21.6554 26.2112C19.6331 27.783 17.8361 29.4056 16.3031 31.0307C12.3288 26.4679 10.5681 22.0774 12.2005 19.4809ZM12.2005 44.5182C10.5706 41.922 12.3288 37.5309 16.3031 32.9708C17.8362 34.5958 19.6332 36.2185 21.6554 37.7903C21.9606 40.837 22.5007 43.6512 23.2345 46.1286C17.9354 47.3807 13.7213 46.9401 12.2005 44.5182ZM32.1278 55.5331C29.2652 55.5331 26.652 52.1982 24.8962 47.0466C27.1824 46.4072 29.6212 45.4772 32.1278 44.2735C34.6345 45.4772 37.0757 46.4048 39.3595 47.0466C37.6036 52.1979 34.9904 55.5331 32.1278 55.5331ZM52.0551 44.5182C50.5342 46.9425 46.3178 47.3809 41.0211 46.1288C41.7549 43.6512 42.295 40.837 42.6001 37.7904C44.6224 36.2186 46.4194 34.596 47.9524 32.971C51.9268 37.5313 53.6875 41.9223 52.0551 44.5182Z" fill="white"/>
</svg>
