<svg width="52" height="56" viewBox="0 0 52 56" fill="none" xmlns="http://www.w3.org/2000/svg">
<path fill-rule="evenodd" clip-rule="evenodd" d="M2.91798 11.8501C3.20611 11.8501 3.49424 11.8985 3.76784 11.9953C6.34889 9.64914 10.5519 8.70489 15.5447 9.12136C18.2129 3.51861 22.0604 0.000488281 26.341 0.000488281C27.8663 0.015016 29.3603 0.436306 30.6677 1.22082C31.9558 1.99561 33.1011 2.9835 34.055 4.14322C35.1252 3.81393 36.285 4.22796 36.9024 5.16253C37.5198 6.09711 37.4448 7.32954 36.7208 8.18181C36.8782 8.48689 37.0331 8.79922 37.1833 9.11881C37.4569 9.09702 37.7305 9.07765 37.9992 9.06312C50.5192 8.3973 55.3137 16.7044 48.4781 27.2125C48.3304 27.4377 48.1779 27.6653 48.0229 27.8905C48.1803 28.1157 48.3329 28.3432 48.4781 28.5685C55.313 39.079 50.5241 47.3835 38.0042 46.7178C37.7233 46.7033 37.4376 46.6839 37.1471 46.6597C34.4716 52.2673 30.6221 55.7855 26.3409 55.7855C22.1957 55.7855 18.4962 52.5822 15.8595 47.401C15.736 47.1613 15.6149 46.9168 15.5011 46.6674C13.2397 46.8877 10.9565 46.7497 8.73625 46.2606C-0.457138 44.0549 -0.45218 35.7359 4.20854 28.5761C4.35624 28.351 4.50878 28.1234 4.66374 27.8933C1.82366 23.7893 0.547663 19.688 1.28613 16.2882C1.23529 16.2446 1.18444 16.1986 1.13602 16.1502C0.416885 15.431 0.20143 14.3463 0.591238 13.4045C0.981058 12.465 1.89867 11.8501 2.91798 11.8501ZM32.7017 5.15028C31.8857 4.17212 30.9148 3.33677 29.8228 2.68061C28.772 2.04385 27.5687 1.70245 26.3411 1.68788C22.7891 1.68788 19.5713 4.60061 17.237 9.30999C20.3555 9.77002 23.4087 10.586 26.3411 11.7409C29.2611 10.5908 32.2998 9.77728 35.4037 9.31482C35.3553 9.21797 35.3069 9.12355 35.2584 9.0267L35.256 9.02912C35.1059 9.05576 34.9509 9.07028 34.796 9.07028C33.8662 9.07028 33.0115 8.55698 32.5733 7.73621C32.1351 6.91784 32.1859 5.9227 32.7016 5.14791L32.7017 5.15028ZM5.08493 13.0823C5.54738 13.8619 5.55464 14.8304 5.10672 15.6173C4.65637 16.4042 3.82106 16.8909 2.91548 16.8885H2.88642C2.38281 19.6438 3.44089 23.0021 5.72167 26.455H5.71925C7.67315 23.995 9.90313 21.7675 12.3608 19.8135C12.8329 16.7119 13.6561 13.6757 14.8183 10.7626C10.6707 10.506 7.22037 11.2687 5.08256 13.0846L5.08493 13.0823ZM18.6048 46.2577C18.1593 46.3376 17.7186 46.4078 17.2804 46.4708C17.307 46.5265 17.336 46.5822 17.3627 46.6354C19.7064 51.2454 22.883 54.0951 26.3379 54.0951C29.8898 54.0951 33.1077 51.1824 35.442 46.4705H35.4444C32.3283 46.0105 29.2727 45.1945 26.3428 44.0396C25.3065 44.4415 24.2799 44.7975 23.2654 45.1098L23.263 45.1074C23.188 46.1994 22.4156 47.117 21.3527 47.3785C20.2898 47.64 19.1808 47.1848 18.6046 46.2551L18.6048 46.2577ZM22.8129 43.4878C23.2221 43.3643 23.6312 43.2311 24.0429 43.0883H24.0453C20.6193 41.5629 17.3653 39.684 14.3337 37.4807C14.8156 40.0109 15.5565 42.4854 16.5419 44.8629C17.1012 44.7927 17.6726 44.708 18.2513 44.6039H18.2537C18.3796 43.6548 19.0333 42.8606 19.9413 42.5507C20.8468 42.2432 21.8516 42.478 22.5296 43.1536C22.6337 43.2577 22.7257 43.369 22.8105 43.4877L22.8129 43.4878ZM36.1759 44.8703C37.1565 42.4854 37.8901 40.0061 38.3647 37.4707C35.3285 39.6765 32.0671 41.5602 28.6388 43.088C31.0818 43.9403 33.6095 44.5386 36.1759 44.8703ZM26.341 42.2336C26.7211 42.0811 27.1037 41.9213 27.4887 41.7542C31.5176 40.0109 35.3066 37.7616 38.7666 35.0594C39.0934 32.6842 39.2581 30.2896 39.2532 27.8929C39.2556 25.4934 39.091 23.0988 38.7593 20.7238C34.9725 17.77 30.7932 15.356 26.3409 13.5524C21.8883 15.3586 17.7066 17.7726 13.9176 20.7288C13.5883 23.1016 13.426 25.4962 13.4285 27.8935C13.426 30.2929 13.5907 32.6899 13.9248 35.0674C17.7092 38.0213 21.8887 40.435 26.341 42.2336ZM38.3527 18.3049C38.2801 17.9393 38.2051 17.5761 38.1252 17.2178C37.653 15.0629 36.9896 12.954 36.1398 10.9203C33.5854 11.2544 31.0745 11.85 28.641 12.6974C32.0646 14.2252 35.3187 16.104 38.3527 18.3049ZM40.3309 19.8182H40.3285C42.7836 21.7721 45.0087 23.9972 46.9601 26.4547C46.994 26.4015 47.0303 26.3506 47.0642 26.2974C53.1439 16.949 49.2191 10.1575 38.0865 10.7482L37.9001 10.7579C38.6894 12.736 39.314 14.7747 39.7692 16.8545C39.9847 17.8157 40.1711 18.8037 40.3309 19.8182ZM12.3509 35.9655C9.89825 34.014 7.67311 31.7889 5.72429 29.3339C5.69039 29.3871 5.65407 29.438 5.62017 29.4913C1.58158 35.7039 1.16269 42.7136 9.12608 44.6239C10.9832 45.0331 12.8887 45.1711 14.7845 45.0282C13.632 42.1083 12.8158 39.0694 12.3509 35.9655ZM6.74094 27.8934C8.30745 29.9393 10.0798 31.8158 12.0289 33.501C11.8352 31.6366 11.7383 29.765 11.7407 27.8934C11.7383 26.0194 11.8376 24.1477 12.0361 22.2858C10.0846 23.9685 8.30993 25.8474 6.74094 27.8934ZM37.8635 45.0262C37.9361 45.0311 38.0087 45.0359 38.0838 45.0383C49.2191 45.6291 53.1464 38.84 47.0615 29.4892C47.0276 29.4359 46.9937 29.385 46.9574 29.3318V29.3342C45.0059 31.7917 42.7783 34.0193 40.3208 35.9732C39.8511 39.0748 39.0256 42.1113 37.8635 45.0262ZM45.9405 27.8934C44.374 25.8474 42.6017 23.9686 40.6526 22.2858C40.8463 24.1501 40.9456 26.0217 40.9431 27.8934C40.9456 29.7674 40.8463 31.639 40.6502 33.5034C42.5992 31.8182 44.3739 29.9393 45.9405 27.8934ZM24.0455 12.6975C21.6 11.8452 19.0747 11.2496 16.5058 10.9155C15.5276 13.3004 14.794 15.7798 14.3195 18.3126C17.3557 16.1068 20.6172 14.2253 24.0455 12.6975Z" fill="white"/>
<path d="M21.1992 31.693V31.6269L23.7902 23.093H26.69L29.292 31.6269V31.693H27.3956L25.3118 24.5264H25.0472L22.9413 31.693H21.1992ZM23.3492 29.543L23.7351 28.1538H26.6238L27.0097 29.543H23.3492Z" fill="white"/>
<path d="M30.2182 31.693V23.093H32.0705V31.693H30.2182Z" fill="white"/>
</svg>
