<svg width="1275" height="296" viewBox="0 0 1275 296" fill="none" xmlns="http://www.w3.org/2000/svg">
<g clip-path="url(#clip0_1879_326)">
<path d="M1189.58 0H1018.78L933.349 147.968L1018.78 296H1189.58L1275 147.968L1189.58 0Z" fill="white"/>
<path d="M1151.52 229.863C1131.61 241.394 1108.2 245.289 1085.63 240.821C1063.07 236.353 1042.9 223.827 1028.89 205.579C1014.87 187.33 1007.97 164.605 1009.47 141.642C1010.96 118.678 1020.76 97.0425 1037.02 80.7701C1053.29 64.4977 1074.91 54.699 1097.86 53.2012C1120.82 51.7034 1143.53 58.6087 1161.77 72.6295C1180.01 86.6502 1192.53 106.829 1196.99 129.404C1201.46 151.979 1197.57 175.408 1186.04 195.323L1216.7 248.941L1274.98 147.968L1189.58 0H1018.78L933.349 147.968L1018.78 296H1189.42L1151.52 229.863Z" fill="#434C57"/>
<path d="M107.422 97.6938V112.452H36.7689C19.2026 112.452 7.46094 101.736 7.46094 85.6641V85.5624C7.46094 69.3055 19.8591 58.4969 38.7382 58.4969H40.0557V53.8071H54.8021V97.6938H107.422ZM19.4153 39.3355C19.4296 38.3515 19.6461 37.3808 20.0512 36.484C20.4563 35.5872 21.0414 34.7833 21.7702 34.1222C22.4989 33.4612 23.3558 32.9572 24.2875 32.6415C25.2192 32.3258 26.2058 32.2051 27.1861 32.287C28.1742 32.1925 29.1712 32.3056 30.1131 32.6191C31.055 32.9326 31.9211 33.4397 32.6556 34.1077C33.3902 34.7757 33.9771 35.5899 34.3788 36.4982C34.7804 37.4064 34.9879 38.3886 34.9879 39.3818C34.9879 40.3749 34.7804 41.3571 34.3788 42.2654C33.9771 43.1736 33.3902 43.9879 32.6556 44.6559C31.9211 45.3239 31.055 45.8309 30.1131 46.1444C29.1712 46.458 28.1742 46.5711 27.1861 46.4765C26.1965 46.5669 25.1989 46.4491 24.2575 46.1307C23.3162 45.8123 22.4518 45.3004 21.7199 44.6279C20.9881 43.9553 20.405 43.137 20.0081 42.2256C19.6111 41.3141 19.4092 40.3297 19.4153 39.3355ZM40.0788 73.1674H35.4561C27.468 73.1674 21.2644 77.6999 21.2644 85.5624V85.6549C21.2644 93.1751 27.4634 97.6799 35.4468 97.6799H40.0696L40.0788 73.1674ZM38.5533 39.3355C38.5748 38.3516 38.7968 37.3825 39.2058 36.4875C39.6148 35.5925 40.2021 34.7905 40.9318 34.1306C41.6615 33.4707 42.5182 32.9668 43.4494 32.6498C44.3806 32.3328 45.3667 32.2093 46.3472 32.287C47.3354 32.1925 48.3324 32.3056 49.2743 32.6191C50.2162 32.9326 51.0822 33.4397 51.8168 34.1077C52.5514 34.7757 53.1383 35.5899 53.5399 36.4982C53.9416 37.4064 54.149 38.3886 54.149 39.3818C54.149 40.3749 53.9416 41.3571 53.5399 42.2654C53.1383 43.1736 52.5514 43.9879 51.8168 44.6559C51.0822 45.3239 50.2162 45.8309 49.2743 46.1444C48.3324 46.458 47.3354 46.5711 46.3472 46.4765C45.3558 46.5703 44.3557 46.455 43.4116 46.1382C42.4674 45.8214 41.6001 45.31 40.8657 44.6371C40.1313 43.9642 39.5461 43.1448 39.1478 42.2316C38.7495 41.3184 38.547 40.3318 38.5533 39.3355Z" fill="white"/>
<path d="M190.368 97.6939V112.452H105.546V97.6939H115.032V53.243H129.778V58.5062H149.882C169.043 58.5987 179.657 69.2177 179.657 88.1062V97.6892L190.368 97.6939ZM164.911 85.4792C164.911 77.3947 159.558 73.26 151.2 73.26H129.778V97.6939H164.911V85.4792ZM140.961 41.7776C141.176 39.8353 142.1 38.0407 143.556 36.7374C145.011 35.434 146.896 34.7134 148.849 34.7134C150.802 34.7134 152.687 35.434 154.143 36.7374C155.598 38.0407 156.522 39.8353 156.738 41.7776C156.565 43.7519 155.66 45.5899 154.199 46.9289C152.739 48.2679 150.83 49.0107 148.849 49.0107C146.868 49.0107 144.959 48.2679 143.499 46.9289C142.039 45.5899 141.133 43.7519 140.961 41.7776Z" fill="white"/>
<path d="M188.394 97.6937H197.131V58.5061H211.877V112.452H188.394V97.6937ZM192.337 128.616C192.558 126.677 193.484 124.887 194.939 123.587C196.395 122.287 198.277 121.568 200.228 121.568C202.179 121.568 204.062 122.287 205.517 123.587C206.973 124.887 207.899 126.677 208.119 128.616C207.953 130.596 207.05 132.441 205.588 133.786C204.127 135.13 202.214 135.877 200.228 135.877C198.243 135.877 196.33 135.13 194.868 133.786C193.407 132.441 192.503 130.596 192.337 128.616Z" fill="white"/>
<path d="M251.61 97.6938V112.452H226.152V36.2322H240.903V97.6938H251.61Z" fill="white"/>
<path d="M315.389 97.6937V112.452H249.747V97.6937H259.986C258.216 93.9345 257.317 89.824 257.356 85.6687V85.5624C257.356 69.3055 269.837 58.4969 288.73 58.4969H304.775V97.6845L315.389 97.6937ZM290.029 97.6937V73.1812H285.406C277.33 73.1812 271.224 77.6906 271.224 85.5855V85.678C271.224 93.1982 277.33 97.703 285.406 97.703L290.029 97.6937ZM271.617 42.2492C271.478 40.6774 271.817 39.1003 272.589 37.7247C273.362 36.349 274.532 35.2389 275.946 34.54C277.36 33.8411 278.952 33.5859 280.514 33.8079C282.075 34.0298 283.533 34.7186 284.696 35.784C285.86 36.8493 286.674 38.2415 287.033 39.778C287.392 41.3145 287.279 42.9237 286.708 44.3946C286.137 45.8656 285.135 47.1296 283.834 48.021C282.533 48.9124 280.992 49.3897 279.415 49.3902C278.425 49.4767 277.428 49.3565 276.486 49.037C275.545 48.7176 274.68 48.2059 273.947 47.5345C273.214 46.8631 272.628 46.0466 272.227 45.1368C271.826 44.227 271.618 43.2437 271.617 42.2492ZM290.778 42.2492C290.8 41.2652 291.022 40.2959 291.432 39.4009C291.841 38.5059 292.429 37.7039 293.159 37.0441C293.889 36.3843 294.746 35.8804 295.678 35.5635C296.609 35.2465 297.596 35.1231 298.576 35.2007C299.952 35.3335 301.259 35.8636 302.338 36.7264C303.418 37.5892 304.223 38.7475 304.656 40.0601C305.09 41.3728 305.132 42.7832 304.778 44.1195C304.425 45.4558 303.69 46.6603 302.664 47.5864C301.638 48.5124 300.365 49.12 299.001 49.3352C297.636 49.5503 296.238 49.3637 294.977 48.7981C293.716 48.2324 292.647 47.3122 291.9 46.1494C291.153 44.9867 290.76 43.6316 290.769 42.2492H290.778Z" fill="white"/>
<path d="M337.745 36.2322V112.452H313.513V97.6938H322.999V36.2322H337.745Z" fill="white"/>
<path d="M353.337 36.2322H368.088V112.452H353.337V36.2322Z" fill="white"/>
<path d="M548.924 97.6937V112.452H481.65V72.4181H475.825C474.39 72.2682 472.941 72.4487 471.586 72.9459C470.232 73.4431 469.01 74.2437 468.012 75.2865C467.015 76.3293 466.27 77.5866 465.833 78.9621C465.397 80.3375 465.28 81.7947 465.493 83.2221V124.2H436.093C415.804 124.2 405.939 114.237 405.939 94.5996V75.4244H420.667V93.0919C420.667 104.932 428.276 109.446 439.269 109.446H450.728V85.9462C450.728 67.4462 460.122 58.5061 478.534 58.5061H496.382V97.6937H548.924ZM442.763 140.364C442.928 141.946 442.609 143.541 441.849 144.938C441.089 146.335 439.923 147.468 438.506 148.188C437.088 148.908 435.486 149.182 433.91 148.972C432.334 148.762 430.859 148.079 429.679 147.012C428.499 145.946 427.671 144.547 427.302 143C426.934 141.452 427.043 139.83 427.616 138.346C428.189 136.862 429.198 135.587 430.51 134.689C431.822 133.791 433.375 133.312 434.965 133.315C435.949 133.222 436.941 133.335 437.879 133.646C438.817 133.958 439.681 134.461 440.414 135.124C441.147 135.786 441.735 136.594 442.139 137.497C442.544 138.399 442.756 139.375 442.763 140.364ZM461.925 140.364C461.753 142.314 460.858 144.13 459.415 145.453C457.972 146.775 456.085 147.509 454.128 147.509C452.171 147.509 450.285 146.775 448.842 145.453C447.399 144.13 446.504 142.314 446.332 140.364C446.354 139.38 446.577 138.412 446.986 137.517C447.395 136.622 447.983 135.82 448.712 135.161C449.442 134.501 450.298 133.997 451.229 133.68C452.16 133.362 453.146 133.238 454.126 133.315C455.11 133.222 456.102 133.335 457.041 133.646C457.979 133.958 458.842 134.461 459.575 135.124C460.308 135.786 460.896 136.594 461.3 137.497C461.705 138.399 461.917 139.375 461.925 140.364Z" fill="white"/>
<path d="M546.95 97.6939H555.687V58.5062H570.434V112.452H546.95V97.6939ZM555.313 41.7776C555.528 39.8353 556.452 38.0407 557.908 36.7374C559.363 35.434 561.248 34.7134 563.201 34.7134C565.155 34.7134 567.039 35.434 568.495 36.7374C569.95 38.0407 570.874 39.8353 571.09 41.7776C570.918 43.7519 570.012 45.5899 568.552 46.9289C567.091 48.2679 565.182 49.0107 563.201 49.0107C561.22 49.0107 559.312 48.2679 557.851 46.9289C556.391 45.5899 555.485 43.7519 555.313 41.7776Z" fill="white"/>
<path d="M610.166 97.6938V112.452H584.708V36.2322H599.46V97.6938H610.166Z" fill="white"/>
<path d="M693.111 97.6938V112.452H608.289V97.6938H617.775V36.2322H632.521V58.5062H652.625C671.787 58.5987 682.4 69.2177 682.4 88.1062V97.6892L693.111 97.6938ZM667.654 85.4792C667.654 77.3947 662.301 73.2599 653.938 73.2599H632.521V97.6938H667.654V85.4792Z" fill="white"/>
<path d="M751.912 97.6938V112.452H691.23V97.6938H727.773C728.846 93.8055 729.415 89.795 729.464 85.7613C729.645 83.798 729.398 81.8189 728.74 79.9604C728.083 78.1019 727.03 76.4083 725.654 74.9964C724.278 73.5846 722.613 72.4882 720.773 71.7827C718.933 71.0773 716.962 70.7797 714.995 70.9105C709.88 70.88 704.885 72.4591 700.716 75.4245L695.363 61.975C701.68 58.3886 708.772 56.3889 716.031 56.1475C733.972 56.1475 743.365 67.71 743.365 86.5013C743.344 90.2521 742.998 93.9939 742.329 97.6846L751.912 97.6938Z" fill="white"/>
<path d="M815.692 97.6937V112.452H750.049V97.6937H760.289C758.516 93.9352 757.617 89.8243 757.658 85.6687V85.5624C757.658 69.3055 770.14 58.4969 789.033 58.4969H805.097V97.6845L815.692 97.6937ZM790.332 97.6937V73.1812H785.709C777.633 73.1812 771.526 77.6906 771.526 85.5855V85.678C771.526 93.1982 777.633 97.703 785.709 97.703L790.332 97.6937ZM771.919 42.2492C771.781 40.6774 772.12 39.1003 772.892 37.7247C773.665 36.349 774.835 35.2389 776.249 34.54C777.663 33.8411 779.255 33.5859 780.816 33.8079C782.378 34.0298 783.836 34.7186 784.999 35.784C786.163 36.8493 786.977 38.2415 787.336 39.778C787.695 41.3145 787.582 42.9237 787.011 44.3946C786.44 45.8656 785.438 47.1296 784.137 48.021C782.835 48.9124 781.295 49.3897 779.718 49.3902C778.728 49.4767 777.73 49.3565 776.789 49.037C775.848 48.7176 774.983 48.2059 774.25 47.5345C773.517 46.8631 772.931 46.0466 772.53 45.1368C772.129 44.227 771.921 43.2437 771.919 42.2492ZM791.08 42.2492C791.103 41.2652 791.325 40.2959 791.735 39.4009C792.144 38.5059 792.732 37.7039 793.462 37.0441C794.192 36.3843 795.049 35.8804 795.98 35.5635C796.912 35.2465 797.898 35.1231 798.879 35.2007C800.255 35.3318 801.563 35.8604 802.644 36.7223C803.725 37.5841 804.532 38.742 804.966 40.0546C805.401 41.3673 805.444 42.7781 805.092 44.1151C804.739 45.452 804.005 46.6575 802.979 47.5844C801.954 48.5114 800.681 49.1198 799.315 49.3356C797.95 49.5514 796.552 49.3652 795.291 48.7996C794.029 48.2341 792.96 47.3137 792.212 46.1506C791.465 44.9875 791.071 43.632 791.08 42.2492Z" fill="white"/>
<path d="M838.047 36.2322V112.452H813.811V97.6938H823.306V36.2322H838.047Z" fill="white"/>
<path d="M853.64 36.2322H868.386V112.452H853.64V36.2322Z" fill="white"/>
<path d="M52.8838 228.84H22.0735L15.218 248.2H0L28.462 171.98H46.4028L75.0636 248.2H59.7439L52.8838 228.84ZM26.5852 216.154H48.2842L37.3885 186.457L26.5852 216.154Z" fill="white"/>
<path d="M78.5859 171.98H93.5173V248.2H78.5859V171.98Z" fill="white"/>
<path d="M175.7 243.317L183.124 255.804L169.973 263.162L161.518 248.765C158.876 249.177 156.208 249.397 153.534 249.422C148.287 249.617 143.055 248.736 138.161 246.833C133.267 244.931 128.813 242.047 125.074 238.358C121.335 234.67 118.389 230.256 116.418 225.387C114.447 220.517 113.492 215.296 113.612 210.044V209.975C113.466 204.719 114.404 199.489 116.367 194.612C118.33 189.735 121.276 185.314 125.021 181.626C128.767 177.937 133.231 175.06 138.137 173.174C143.043 171.288 148.284 170.433 153.534 170.662C158.778 170.443 164.01 171.305 168.907 173.196C173.803 175.087 178.257 177.965 181.994 181.653C185.73 185.341 188.667 189.758 190.623 194.631C192.579 199.503 193.512 204.726 193.363 209.975V210.067C193.497 216.656 191.944 223.17 188.852 228.989C185.761 234.809 181.233 239.741 175.7 243.317ZM178.33 209.952C178.409 206.638 177.824 203.342 176.611 200.258C175.397 197.174 173.58 194.363 171.265 191.992C168.95 189.621 166.185 187.736 163.131 186.45C160.078 185.163 156.799 184.5 153.486 184.5C150.173 184.5 146.893 185.163 143.84 186.45C140.787 187.736 138.021 189.621 135.706 191.992C133.392 194.363 131.574 197.174 130.361 200.258C129.147 203.342 128.563 206.638 128.641 209.952V210.044C128.539 213.372 129.107 216.687 130.31 219.791C131.513 222.896 133.327 225.727 135.644 228.117C137.961 230.507 140.734 232.407 143.799 233.705C146.864 235.003 150.158 235.671 153.486 235.671C156.814 235.671 160.108 235.003 163.173 233.705C166.237 232.407 169.011 230.507 171.328 228.117C173.645 225.727 175.459 222.896 176.661 219.791C177.864 216.687 178.432 213.372 178.33 210.044V209.952Z" fill="white"/>
<path d="M247.842 213.707V247.072C239.805 248.731 231.627 249.612 223.421 249.704C206.885 249.704 196.65 245.005 196.65 232.318V232.129C196.65 220.663 205.947 215.4 220.689 215.4C224.77 215.384 228.848 215.636 232.897 216.154V214.179C232.897 207.413 228.2 204.971 219.953 204.971C213.461 205.137 207.044 206.407 200.977 208.726L204.269 195.475C210.355 193.437 216.729 192.391 223.148 192.377C238.07 192.4 247.842 197.732 247.842 213.707ZM223.984 238.049C226.972 238.008 229.954 237.758 232.906 237.299V225.644C229.953 225.186 226.972 224.934 223.984 224.89C216.468 224.89 211.965 226.583 211.965 231.365V231.55C211.961 236.171 216.376 238.049 223.984 238.049Z" fill="white"/>
<path d="M306.25 212.958V248.2H291.314V214.743C291.314 207.977 287.653 205.438 280.682 205.438C277.501 205.507 274.33 205.816 271.196 206.363V248.182H256.279V171.98H271.215V192.751C275.158 192.377 278.727 192.095 281.265 192.095C294.601 192.095 306.25 196.794 306.25 212.958Z" fill="white"/>
<path d="M319.392 230.626V207.963H309.999V194.25H319.392V177.716H334.421V194.25H354.146V207.972H334.421V225.922C334.421 231.934 337.333 234.381 343.722 234.381H354.146V248.196H337.042C324.182 248.201 319.392 242.373 319.392 230.626Z" fill="white"/>
<path d="M409.66 213.707V247.072C401.623 248.731 393.445 249.612 385.238 249.704C368.703 249.704 358.468 245.005 358.468 232.318V232.129C358.468 220.663 367.765 215.4 382.506 215.4C386.588 215.384 390.666 215.636 394.715 216.154V214.179C394.715 207.413 390.018 204.971 381.771 204.971C375.279 205.137 368.862 206.407 362.795 208.726L366.087 195.475C372.173 193.437 378.547 192.391 384.966 192.377C399.892 192.4 409.66 197.732 409.66 213.707ZM385.802 238.049C388.79 238.008 391.771 237.758 394.724 237.299V225.644C391.771 225.186 388.79 224.934 385.802 224.89C378.286 224.89 373.783 226.583 373.783 231.365V231.55C373.779 236.171 378.193 238.049 385.802 238.049Z" fill="white"/>
<path d="M418.097 194.916C426.378 193.378 434.759 192.435 443.175 192.095C456.516 192.095 468.068 196.794 468.068 212.958V248.201H453.225V214.743C453.225 207.977 449.471 205.438 442.518 205.438C439.336 205.507 436.164 205.816 433.028 206.363V248.182H418.097V194.916Z" fill="white"/>
<path d="M476.625 180.629C476.871 178.835 477.758 177.191 479.122 176C480.486 174.81 482.234 174.154 484.045 174.154C485.855 174.154 487.603 174.81 488.967 176C490.331 177.191 491.218 178.835 491.464 180.629C491.464 185.139 488.177 187.206 484.045 187.206C483.112 187.332 482.164 187.255 481.264 186.981C480.364 186.707 479.534 186.242 478.829 185.618C478.125 184.993 477.564 184.225 477.184 183.364C476.803 182.503 476.613 181.57 476.625 180.629ZM476.625 194.255H491.561V248.201H476.625V194.255Z" fill="white"/>
<path d="M512.881 171.98H527.724V202.431H560.786V171.98H575.528V248.2H560.777V216.246H527.715V248.2H512.872L512.881 171.98Z" fill="white"/>
<path d="M582.314 220.853V220.756C582.646 213.04 585.943 205.751 591.518 200.409C597.092 195.066 604.513 192.084 612.232 192.084C619.951 192.084 627.372 195.066 632.947 200.409C638.521 205.751 641.818 213.04 642.15 220.756V220.853C641.878 228.609 638.606 235.957 633.025 241.348C627.444 246.739 619.99 249.752 612.232 249.752C604.475 249.752 597.02 246.739 591.439 241.348C585.858 235.957 582.587 228.609 582.314 220.853ZM627.122 220.853V220.663C627.171 218.67 626.822 216.686 626.094 214.83C625.365 212.973 624.273 211.282 622.881 209.854C621.489 208.426 619.826 207.292 617.989 206.517C616.152 205.743 614.179 205.343 612.186 205.343C610.193 205.343 608.219 205.743 606.383 206.517C604.546 207.292 602.883 208.426 601.491 209.854C600.099 211.282 599.007 212.973 598.278 214.83C597.55 216.686 597.2 218.67 597.25 220.663V220.853C597.179 222.86 597.513 224.86 598.232 226.734C598.951 228.609 600.04 230.32 601.434 231.764C602.828 233.209 604.498 234.358 606.345 235.142C608.193 235.927 610.179 236.331 612.186 236.331C614.193 236.331 616.179 235.927 618.026 235.142C619.874 234.358 621.544 233.209 622.938 231.764C624.332 230.32 625.421 228.609 626.14 226.734C626.858 224.86 627.192 222.86 627.122 220.853Z" fill="white"/>
<path d="M648.678 171.98H663.614V248.2H648.678V171.98Z" fill="white"/>
<path d="M670.039 220.945V220.756C670.039 204.217 681.027 192.081 699.347 192.081C702.802 192.153 706.237 192.618 709.586 193.468V171.98H724.522V244.44C716.92 248.206 708.499 250.015 700.022 249.704C681.591 249.704 670.039 237.484 670.039 220.945ZM709.586 235.139V206.848C706.451 206.045 703.238 205.58 700.003 205.461C697.978 205.34 695.951 205.657 694.059 206.389C692.167 207.122 690.454 208.253 689.037 209.706C687.621 211.159 686.533 212.899 685.848 214.81C685.163 216.721 684.897 218.756 685.067 220.779V220.968C684.895 222.996 685.158 225.037 685.841 226.954C686.524 228.871 687.61 230.619 689.026 232.08C690.441 233.541 692.154 234.681 694.048 235.424C695.942 236.166 697.972 236.493 700.003 236.384C703.237 236.375 706.457 235.957 709.586 235.139Z" fill="white"/>
<path d="M733.162 180.629C733.408 178.835 734.295 177.191 735.659 176C737.023 174.81 738.772 174.154 740.582 174.154C742.392 174.154 744.14 174.81 745.504 176C746.868 177.191 747.755 178.835 748.001 180.629C748.001 185.139 744.714 187.206 740.605 187.206C739.671 187.335 738.72 187.261 737.817 186.989C736.914 186.716 736.081 186.252 735.374 185.627C734.667 185.003 734.104 184.233 733.722 183.37C733.34 182.508 733.149 181.573 733.162 180.629ZM733.162 194.255H748.098V248.201H733.162V194.255Z" fill="white"/>
<path d="M756.595 194.916C764.878 193.377 773.26 192.435 781.678 192.095C795.014 192.095 806.571 196.794 806.571 212.958V248.201H791.727V214.743C791.727 207.977 787.969 205.438 781.021 205.438C777.839 205.507 774.666 205.816 771.531 206.363V248.182H756.595V194.916Z" fill="white"/>
<path d="M867.355 197.45V248.575C867.355 264.74 855.799 269.91 842.652 269.91C836.672 269.96 830.729 268.974 825.085 266.997L821.799 253.182C827.848 255.42 834.229 256.627 840.678 256.752C849.6 256.752 852.419 253.838 852.419 247.072V244.815C849.388 245.416 846.306 245.726 843.216 245.74C823.957 245.74 812.683 235.87 812.683 218.675V218.485C812.683 201.372 824.614 192.076 843.683 192.076C851.861 192.199 859.925 194.029 867.355 197.45ZM843.78 232.411C846.69 232.4 849.589 232.054 852.419 231.379V206.737C849.594 205.841 846.646 205.397 843.683 205.419C833.54 205.419 827.619 209.462 827.619 218.767V218.86C827.619 228.184 833.443 232.411 843.78 232.411Z" fill="white"/>
<path d="M1214.32 253.371L1183.41 199.684C1176.1 210.866 1166.51 220.384 1155.28 227.619L1192.36 291.907L1214.32 253.371Z" fill="#D20031"/>
<path d="M1162.74 101.352L1101.85 66.1699L1040.84 101.412V101.57V207.14L1062.79 219.822V114.094L1101.85 91.4964L1140.94 114.094V219.822L1162.87 207.14V101.412L1162.74 101.352Z" fill="#B97727"/>
<path d="M1101.85 111.375L1077.7 125.375V226.977L1096.68 237.915V136.29L1101.85 133.297L1107.07 136.29V237.915L1126.05 226.977V125.375L1101.85 111.375Z" fill="#B97727"/>
</g>
<defs>
<clipPath id="clip0_1879_326">
<rect width="1275" height="296" fill="white"/>
</clipPath>
</defs>
</svg>
