<svg width="64" height="64" viewBox="0 0 64 64" fill="none" xmlns="http://www.w3.org/2000/svg">
<path d="M28.3575 24.6019L29.8874 25.2137C30.1021 25.9496 30.3959 26.66 30.7637 27.3324L30.1135 28.8496C29.9988 29.111 29.9593 29.3991 29.9992 29.6817C30.0391 29.9643 30.157 30.2302 30.3397 30.4495C30.5726 30.7286 30.8226 31.0008 31.0829 31.2593C31.3431 31.5179 31.6136 31.7713 31.8927 32.0025C32.1121 32.185 32.378 32.3028 32.6606 32.3425C32.9432 32.3823 33.2313 32.3426 33.4926 32.2278L35.0132 31.5819C35.6862 31.9517 36.3975 32.2473 37.1344 32.4633L37.7463 33.9924C37.8504 34.2584 38.0265 34.4901 38.2548 34.6617C38.4831 34.8333 38.7546 34.9381 39.039 34.9643C39.4017 34.9967 39.7686 35.0121 40.1363 35.0121C40.5041 35.0121 40.871 34.9967 41.2345 34.9643C41.518 34.9372 41.7885 34.832 42.0158 34.6604C42.2431 34.4889 42.4184 34.2576 42.5222 33.9924L43.134 32.4633C43.87 32.2471 44.5805 31.9515 45.2527 31.5819L46.7682 32.2312C47.0296 32.3465 47.318 32.3865 47.6009 32.3469C47.8838 32.3072 48.1501 32.1895 48.3698 32.0068C48.6488 31.773 48.9202 31.523 49.1796 31.2627C49.439 31.0025 49.6915 30.732 49.9236 30.4529C50.106 30.2334 50.2236 29.9675 50.2632 29.6849C50.3028 29.4023 50.263 29.1142 50.1481 28.853L49.5021 27.3324C49.872 26.6594 50.1675 25.9481 50.3836 25.2112L51.9127 24.5993C52.1786 24.4952 52.4103 24.3191 52.582 24.0908C52.7536 23.8625 52.8584 23.591 52.8846 23.3066C52.917 22.9439 52.9324 22.577 52.9324 22.2093C52.9324 21.8415 52.917 21.4746 52.8846 21.1111C52.8575 20.8276 52.7523 20.5571 52.5807 20.3298C52.4091 20.1025 52.1779 19.9272 51.9127 19.8234L50.3836 19.2116C50.1673 18.4756 49.8718 17.7651 49.5021 17.0929L50.1515 15.5774C50.2662 15.3159 50.306 15.0276 50.2664 14.7448C50.2268 14.462 50.1093 14.1957 49.9271 13.9758C49.6933 13.6968 49.4432 13.4254 49.183 13.166C48.9227 12.9066 48.6522 12.6541 48.3732 12.422C48.1537 12.2396 47.8877 12.122 47.6051 12.0824C47.3225 12.0428 47.0345 12.0826 46.7733 12.1975L45.2527 12.8435C44.5796 12.4736 43.8684 12.1781 43.1314 11.962L42.5222 10.4372C42.418 10.1713 42.2419 9.93954 42.0136 9.76791C41.7853 9.59628 41.5138 9.4915 41.2294 9.46529C40.499 9.39959 39.7643 9.39959 39.0339 9.46529C38.7499 9.49196 38.479 9.59694 38.2512 9.76854C38.0234 9.94014 37.8477 10.1716 37.7437 10.4372L37.1319 11.9663C36.396 12.1812 35.6856 12.4753 35.0132 12.8435L33.4943 12.1941C33.233 12.079 32.9448 12.0391 32.662 12.0787C32.3792 12.1184 32.1131 12.236 31.8935 12.4185C31.6136 12.6524 31.3423 12.9024 31.0829 13.1618C30.8235 13.4212 30.5709 13.6934 30.3397 13.9724C30.157 14.1917 30.0391 14.4576 29.9992 14.7402C29.9593 15.0228 29.9988 15.311 30.1135 15.5723L30.7637 17.0929C30.3942 17.766 30.099 18.4773 29.8831 19.2142L28.3523 19.826C28.0867 19.9303 27.8553 20.1063 27.6839 20.3344C27.5124 20.5625 27.4077 20.8338 27.3813 21.1179C27.3489 21.4771 27.3335 21.8441 27.3335 22.2127C27.3335 22.5813 27.3489 22.9482 27.3813 23.3109C27.4082 23.5954 27.5137 23.8669 27.6861 24.0949C27.8585 24.323 28.091 24.4985 28.3575 24.6019ZM29.0768 21.373L30.9165 20.6366C31.0422 20.5865 31.1542 20.5072 31.2432 20.4053C31.3322 20.3034 31.3957 20.1817 31.4285 20.0504C31.644 19.1822 31.9892 18.3514 32.4524 17.5861C32.5226 17.4702 32.5641 17.3392 32.5736 17.204C32.5831 17.0688 32.5603 16.9334 32.507 16.8088L31.7246 14.9836C31.9046 14.7719 32.0966 14.5663 32.2954 14.3683C32.4942 14.1704 32.6982 13.9792 32.9106 13.7983L34.7358 14.5791C34.8603 14.6324 34.9956 14.6553 35.1306 14.6459C35.2656 14.6366 35.3964 14.5952 35.5123 14.5253C36.2779 14.062 37.109 13.7168 37.9775 13.5014C38.1088 13.4686 38.2305 13.4051 38.3324 13.3161C38.4343 13.2271 38.5136 13.1151 38.5637 12.9894L39.3001 11.1497C39.8585 11.1062 40.4193 11.1062 40.9777 11.1497L41.7141 12.9894C41.7642 13.1151 41.8435 13.2271 41.9454 13.3161C42.0473 13.4051 42.169 13.4686 42.3003 13.5014C43.1688 13.7168 43.9999 14.062 44.7655 14.5253C44.8814 14.5952 45.0122 14.6366 45.1472 14.6459C45.2822 14.6553 45.4176 14.6324 45.542 14.5791L47.3672 13.7975C47.5788 13.9784 47.7844 14.1695 47.9824 14.3683C48.1804 14.5671 48.3724 14.7719 48.5532 14.9836L47.7716 16.8088C47.7184 16.9332 47.6955 17.0685 47.7048 17.2035C47.7142 17.3385 47.7555 17.4694 47.8254 17.5853C48.2887 18.3508 48.6339 19.1819 48.8493 20.0504C48.8821 20.1817 48.9456 20.3034 49.0346 20.4053C49.1236 20.5072 49.2356 20.5865 49.3613 20.6366L51.201 21.373C51.2224 21.6504 51.2326 21.9311 51.2326 22.2118C51.2326 22.4926 51.2224 22.7733 51.201 23.0506L49.3613 23.787C49.2356 23.8371 49.1236 23.9164 49.0346 24.0183C48.9456 24.1203 48.8821 24.2419 48.8493 24.3732C48.6339 25.2418 48.2887 26.0728 47.8254 26.8384C47.7555 26.9543 47.7142 27.0851 47.7048 27.2202C47.6955 27.3552 47.7184 27.4905 47.7716 27.6149L48.5532 29.4401C48.3724 29.6517 48.1812 29.8573 47.9824 30.0553C47.7836 30.2533 47.5788 30.4453 47.3672 30.6262L45.542 29.8445C45.4176 29.7913 45.2822 29.7684 45.1472 29.7777C45.0122 29.7871 44.8814 29.8284 44.7655 29.8983C43.9999 30.3617 43.1688 30.7069 42.3003 30.9223C42.169 30.955 42.0473 31.0185 41.9454 31.1075C41.8435 31.1965 41.7642 31.3085 41.7141 31.4342L40.9777 33.2739C40.4193 33.3175 39.8585 33.3175 39.3001 33.2739L38.5637 31.4342C38.5136 31.3085 38.4343 31.1965 38.3324 31.1075C38.2305 31.0185 38.1088 30.955 37.9775 30.9223C37.109 30.7069 36.2779 30.3617 35.5123 29.8983C35.3964 29.8284 35.2656 29.7871 35.1306 29.7777C34.9956 29.7684 34.8603 29.7913 34.7358 29.8445L32.9106 30.6253C32.699 30.4453 32.4934 30.2541 32.2946 30.0545C32.0957 29.8548 31.9046 29.6517 31.7246 29.4401L32.507 27.6149C32.5603 27.4903 32.5831 27.3548 32.5736 27.2196C32.5641 27.0844 32.5226 26.9535 32.4524 26.8375C31.9892 26.0722 31.644 25.2414 31.4285 24.3732C31.3957 24.2419 31.3322 24.1203 31.2432 24.0183C31.1542 23.9164 31.0422 23.8371 30.9165 23.787L29.0768 23.0506C29.0503 22.7741 29.0401 22.4934 29.0401 22.2127C29.0401 21.9319 29.0503 21.6512 29.0725 21.3739L29.0768 21.373Z" fill="white"/>
<path d="M40.1338 29.892C41.6527 29.892 43.1374 29.4416 44.4004 28.5978C45.6633 27.7539 46.6476 26.5545 47.2288 25.1513C47.8101 23.748 47.9622 22.2039 47.6659 20.7142C47.3695 19.2244 46.6381 17.8561 45.5641 16.782C44.4901 15.708 43.1217 14.9766 41.632 14.6803C40.1423 14.384 38.5982 14.536 37.1949 15.1173C35.7916 15.6986 34.5922 16.6829 33.7484 17.9458C32.9045 19.2087 32.4541 20.6935 32.4541 22.2124C32.4564 24.2485 33.2662 26.2005 34.7059 27.6402C36.1456 29.08 38.0977 29.8898 40.1338 29.892ZM40.1338 16.2393C41.3151 16.2393 42.47 16.5896 43.4522 17.246C44.4345 17.9023 45.2001 18.8351 45.6522 19.9266C46.1042 21.018 46.2225 22.219 45.9921 23.3777C45.7616 24.5363 45.1927 25.6006 44.3574 26.436C43.522 27.2713 42.4577 27.8402 41.299 28.0707C40.1404 28.3011 38.9394 28.1829 37.848 27.7308C36.7565 27.2787 35.8237 26.5131 35.1673 25.5308C34.511 24.5486 34.1607 23.3937 34.1607 22.2124C34.1627 20.6288 34.7927 19.1108 35.9124 17.991C37.0321 16.8713 38.5502 16.2413 40.1338 16.2393Z" fill="white"/>
<path d="M40.1332 26.4792C40.977 26.4792 41.8019 26.229 42.5035 25.7602C43.2051 25.2914 43.752 24.6251 44.0749 23.8455C44.3978 23.0659 44.4823 22.208 44.3177 21.3804C44.1531 20.5528 43.7467 19.7926 43.15 19.1959C42.5534 18.5992 41.7931 18.1929 40.9655 18.0283C40.1379 17.8636 39.2801 17.9481 38.5005 18.2711C37.7209 18.594 37.0545 19.1408 36.5857 19.8424C36.1169 20.5441 35.8667 21.3689 35.8667 22.2128C35.8681 23.3439 36.318 24.4283 37.1178 25.2281C37.9176 26.028 39.0021 26.4779 40.1332 26.4792ZM40.1332 19.6529C40.6395 19.6529 41.1344 19.803 41.5554 20.0843C41.9763 20.3656 42.3045 20.7654 42.4982 21.2331C42.692 21.7009 42.7427 22.2156 42.6439 22.7122C42.5451 23.2087 42.3013 23.6649 41.9433 24.0229C41.5853 24.3809 41.1292 24.6247 40.6326 24.7235C40.136 24.8222 39.6213 24.7715 39.1536 24.5778C38.6858 24.384 38.286 24.0559 38.0047 23.635C37.7234 23.214 37.5733 22.7191 37.5733 22.2128C37.5733 21.5338 37.843 20.8827 38.3231 20.4027C38.8031 19.9226 39.4543 19.6529 40.1332 19.6529Z" fill="white"/>
<path d="M53.7868 6H16.2418C15.3366 6 14.4684 6.3596 13.8283 6.9997C13.1882 7.63979 12.8286 8.50795 12.8286 9.41318V10.6317C11.5228 11.2611 10.3989 12.2128 9.56281 13.397C8.72677 14.5812 8.20618 15.9589 8.05018 17.4C7.91603 18.7666 8.11016 20.1454 8.61642 21.4218C9.12267 22.6982 9.92641 23.8353 10.9608 24.7384L6.10978 50.1231C5.95472 50.9147 5.96401 51.7298 6.13707 52.5178C6.31013 53.3057 6.64327 54.0497 7.11582 54.7036C7.58682 55.365 8.18872 55.9227 8.88419 56.3419C9.57965 56.7611 10.3538 57.033 11.1587 57.1406C11.4361 57.179 11.7158 57.1981 11.9958 57.1977C13.3482 57.1987 14.6601 56.7361 15.7128 55.8871C15.8706 55.7616 16.0191 55.6311 16.1616 55.4903H56.3467C56.573 55.4903 56.7901 55.4004 56.9501 55.2404C57.1101 55.0803 57.2 54.8633 57.2 54.637C57.2 54.4107 57.1101 54.1936 56.9501 54.0336C56.7901 53.8736 56.573 53.7837 56.3467 53.7837H50.3736V51.6812C50.3736 51.4002 50.3042 51.1236 50.1715 50.8759C50.0389 50.6282 49.8472 50.4171 49.6133 50.2613L45.2539 47.355V45.2516H53.7868C54.6921 45.2516 55.5602 44.892 56.2003 44.2519C56.8404 43.6118 57.2 42.7436 57.2 41.8384V9.41318C57.2 8.50795 56.8404 7.63979 56.2003 6.9997C55.5602 6.3596 54.6921 6 53.7868 6ZM16.2418 7.70659H53.7868C54.2394 7.70659 54.6735 7.88639 54.9936 8.20644C55.3136 8.52649 55.4934 8.96057 55.4934 9.41318V36.7186H19.2283L20.1516 26.0448C20.6508 25.8103 21.1265 25.5289 21.5724 25.2043C22.6384 24.423 23.509 23.4055 24.1159 22.2314C24.7228 21.0573 25.0495 19.7586 25.0705 18.4371C25.0914 17.1156 24.8059 15.8072 24.2365 14.6145C23.667 13.4218 22.829 12.3772 21.7882 11.5626C21.5512 11.3777 21.2697 11.2584 20.9719 11.2169C20.6741 11.1753 20.3707 11.2129 20.0921 11.3259C19.8135 11.4388 19.5695 11.6232 19.3848 11.8604C19.2001 12.0976 19.0811 12.3792 19.0398 12.677L18.2232 18.5725L14.8433 18.1049L15.659 12.2111C15.7017 11.9137 15.6645 11.6102 15.5511 11.3318C15.4378 11.0535 15.2523 10.8104 15.0139 10.6274C14.8699 10.5177 14.7095 10.4313 14.5386 10.3714V9.41318C14.5386 8.96116 14.718 8.5276 15.0373 8.20765C15.3566 7.8877 15.7898 7.7075 16.2418 7.70659ZM46.7045 50.3714H23.3242L25.8841 48.6648H44.1446L46.7045 50.3714ZM24.7748 47.355L20.4153 50.2613C20.1815 50.4171 19.9897 50.6282 19.8571 50.8759C19.7245 51.1236 19.655 51.4002 19.655 51.6812V53.7846H17.3733C17.6768 53.1456 17.8634 52.4575 17.9245 51.7529L18.4868 45.2516H24.7748V47.355ZM9.74653 17.5835C9.87665 16.3549 10.3378 15.1846 11.0807 14.1974C11.8237 13.2103 12.8206 12.4433 13.9652 11.9782L13.1486 17.871C13.1177 18.0932 13.1309 18.3193 13.1874 18.5364C13.2439 18.7535 13.3427 18.9573 13.4781 19.1361C13.6134 19.315 13.7827 19.4654 13.9763 19.5788C14.1698 19.6922 14.3838 19.7663 14.606 19.7969L17.9868 20.2628C18.209 20.2936 18.4352 20.2803 18.6522 20.2236C18.8693 20.1669 19.0731 20.068 19.2519 19.9324C19.4307 19.7969 19.581 19.6275 19.6942 19.4338C19.8075 19.2401 19.8814 19.026 19.9118 18.8037L20.731 12.9049C21.564 13.5574 22.2345 14.394 22.69 15.349C23.1456 16.3041 23.3738 17.3516 23.3568 18.4096C23.3397 19.4676 23.0779 20.5073 22.5919 21.4472C22.1058 22.3871 21.4087 23.2016 20.5552 23.8271C19.82 24.3704 18.9823 24.759 18.0926 24.9696C17.203 25.1802 16.2799 25.2084 15.3791 25.0524C13.6757 24.7387 12.1519 23.7973 11.109 22.4144C10.066 21.0314 9.57986 19.3076 9.74653 17.5835ZM11.3917 55.4502C10.8196 55.3727 10.2693 55.1796 9.77438 54.8825C9.27943 54.5854 8.85019 54.1905 8.51284 53.7221C8.1755 53.2536 7.93712 52.7214 7.81224 52.1578C7.68736 51.5941 7.67861 51.011 7.78651 50.4439L12.4924 25.8135C13.3029 26.2654 14.184 26.577 15.0984 26.7351C15.5777 26.8157 16.0629 26.8562 16.549 26.8562C17.1662 26.8547 17.7814 26.7854 18.3836 26.6498L16.2239 51.6069C16.177 52.1797 16.0129 52.7367 15.7418 53.2434C15.4706 53.7501 15.0983 54.1957 14.6479 54.5525C14.1956 54.9174 13.6732 55.1853 13.1131 55.3397C12.5529 55.4942 11.967 55.5317 11.3917 55.4502ZM21.3616 53.7846V52.078H48.667V53.7846H21.3616ZM43.5473 46.9582H26.4814V45.2516H43.5473V46.9582ZM53.7868 43.545H18.631L19.0739 38.4252H55.4934V41.8384C55.4934 42.291 55.3136 42.7251 54.9936 43.0452C54.6735 43.3652 54.2394 43.545 53.7868 43.545Z" fill="white"/>
<path d="M11.9744 48.665C11.4681 48.665 10.9732 48.8152 10.5522 49.0965C10.1313 49.3777 9.80316 49.7775 9.60941 50.2453C9.41566 50.7131 9.36497 51.2278 9.46374 51.7243C9.56251 52.2209 9.80632 52.677 10.1643 53.035C10.5223 53.393 10.9785 53.6369 11.475 53.7356C11.9716 53.8344 12.4863 53.7837 12.9541 53.59C13.4218 53.3962 13.8216 53.0681 14.1029 52.6471C14.3842 52.2262 14.5343 51.7312 14.5343 51.2249C14.5343 50.546 14.2646 49.8949 13.7846 49.4148C13.3045 48.9347 12.6534 48.665 11.9744 48.665ZM11.9744 52.0782C11.8057 52.0782 11.6407 52.0282 11.5004 51.9344C11.36 51.8407 11.2507 51.7074 11.1861 51.5515C11.1215 51.3955 11.1046 51.224 11.1375 51.0585C11.1705 50.8929 11.2517 50.7409 11.3711 50.6216C11.4904 50.5022 11.6424 50.421 11.808 50.388C11.9735 50.3551 12.1451 50.372 12.301 50.4366C12.4569 50.5012 12.5902 50.6105 12.6839 50.7509C12.7777 50.8912 12.8277 51.0562 12.8277 51.2249C12.8277 51.4512 12.7378 51.6683 12.5778 51.8283C12.4178 51.9883 12.2007 52.0782 11.9744 52.0782Z" fill="white"/>
<path d="M36.7206 40.1318H33.3074C33.0811 40.1318 32.864 40.2217 32.704 40.3818C32.544 40.5418 32.4541 40.7588 32.4541 40.9851C32.4541 41.2114 32.544 41.4285 32.704 41.5885C32.864 41.7485 33.0811 41.8384 33.3074 41.8384H36.7206C36.9469 41.8384 37.1639 41.7485 37.324 41.5885C37.484 41.4285 37.5739 41.2114 37.5739 40.9851C37.5739 40.7588 37.484 40.5418 37.324 40.3818C37.1639 40.2217 36.9469 40.1318 36.7206 40.1318Z" fill="white"/>
</svg>
