<svg width="64" height="64" viewBox="0 0 64 64" fill="none" xmlns="http://www.w3.org/2000/svg">
<path d="M29.5348 22.0798C29.5219 21.8514 29.4435 21.6314 29.3091 21.4463C29.1746 21.2611 28.9898 21.1186 28.7765 21.0356L28.1596 20.7858C28.0998 20.6137 28.0301 20.4453 27.9508 20.2813L28.2046 19.6893C28.297 19.4813 28.3297 19.2516 28.2989 19.026C28.2681 18.8004 28.1751 18.5879 28.0303 18.4122C27.7329 18.0584 27.4044 17.7321 27.0487 17.437C26.8755 17.2974 26.6673 17.2081 26.4467 17.1787C26.2262 17.1494 26.0018 17.1812 25.7981 17.2707L25.1948 17.5294C25.0309 17.4501 24.8624 17.3804 24.6904 17.3205L24.4446 16.7141C24.3667 16.5045 24.2309 16.3213 24.0531 16.1858C23.8752 16.0503 23.6625 15.968 23.4397 15.9486C22.9883 15.8999 22.5329 15.8999 22.0814 15.9486C21.853 15.9615 21.6331 16.0399 21.4479 16.1743C21.2628 16.3088 21.1202 16.4936 21.0372 16.7069L20.7874 17.3238C20.6154 17.3836 20.447 17.4533 20.283 17.5326L19.691 17.2788C19.483 17.1859 19.2532 17.153 19.0275 17.1838C18.8019 17.2146 18.5893 17.3079 18.4138 17.4531C18.0603 17.749 17.734 18.0758 17.4387 18.4298C17.299 18.603 17.2096 18.8113 17.1803 19.0319C17.1509 19.2524 17.1828 19.4768 17.2724 19.6805L17.531 20.2837C17.4518 20.4477 17.382 20.6161 17.3222 20.7882L16.7157 21.034C16.5061 21.1119 16.3229 21.2476 16.1874 21.4255C16.0519 21.6034 15.9697 21.8161 15.9502 22.0388C15.902 22.4903 15.902 22.9457 15.9502 23.3971C15.9632 23.6256 16.0415 23.8455 16.176 24.0306C16.3104 24.2158 16.4953 24.3584 16.7085 24.4414L17.3254 24.6912C17.3853 24.8632 17.455 25.0316 17.5343 25.1956L17.2804 25.7876C17.188 25.9957 17.1554 26.2254 17.1861 26.4509C17.2169 26.6765 17.3099 26.8891 17.4547 27.0648C17.7506 27.4183 18.0775 27.7446 18.4315 28.0399C18.6048 28.1793 18.8131 28.2685 19.0336 28.2978C19.2541 28.3271 19.4784 28.2954 19.6821 28.2062L20.2886 27.9467C20.4533 28.0271 20.6219 28.0961 20.793 28.158L21.034 28.7628C21.1119 28.9724 21.2477 29.1556 21.4256 29.2911C21.6034 29.4267 21.8161 29.5089 22.0389 29.5283C22.2871 29.5532 22.5345 29.5661 22.7682 29.5661C22.9784 29.5669 23.1884 29.5554 23.3972 29.5316C23.6259 29.5182 23.846 29.4393 24.0312 29.3042C24.2163 29.1692 24.3587 28.9838 24.4414 28.7701L24.6824 28.158C24.854 28.096 25.0224 28.0252 25.1868 27.9459L25.782 28.2014C25.9901 28.2938 26.2198 28.3264 26.4454 28.2957C26.6709 28.2649 26.8835 28.1719 27.0592 28.0271C27.4153 27.7305 27.7441 27.4025 28.0416 27.0471C28.1813 26.8739 28.2707 26.6656 28.3 26.4451C28.3293 26.2245 28.2974 26.0001 28.2078 25.7964L27.9492 25.1932C28.0285 25.0292 28.0982 24.8608 28.158 24.6888L28.7645 24.443C28.9755 24.3627 29.1594 24.2244 29.2952 24.044C29.4309 23.8637 29.5129 23.6486 29.5316 23.4236C29.5798 22.977 29.5808 22.5266 29.5348 22.0798ZM27.9524 23.0437L27.2022 23.3473C27.0854 23.3946 26.9813 23.4686 26.8984 23.5635C26.8156 23.6584 26.7562 23.7715 26.725 23.8935C26.6461 24.193 26.5261 24.4801 26.3684 24.7466C26.3048 24.8551 26.2676 24.9771 26.2598 25.1027C26.252 25.2283 26.2738 25.3539 26.3234 25.4695L26.6447 26.2117C26.5101 26.3602 26.368 26.5018 26.219 26.6358L25.4776 26.3194C25.3636 26.2701 25.2397 26.2481 25.1157 26.2552C24.9917 26.2623 24.8711 26.2983 24.7635 26.3603C24.4817 26.5208 24.1815 26.6465 23.8695 26.7346C23.7506 26.7677 23.6409 26.8278 23.549 26.9101C23.457 26.9924 23.3853 27.0948 23.3393 27.2094L23.0437 27.95C22.8439 27.962 22.6435 27.962 22.4437 27.95L22.1489 27.2118C22.103 27.0972 22.0312 26.9948 21.9393 26.9125C21.8473 26.8302 21.7377 26.7701 21.6188 26.737C21.3067 26.6489 21.0065 26.5232 20.7248 26.3627C20.6172 26.3007 20.4966 26.2647 20.3726 26.2576C20.2486 26.2505 20.1247 26.2725 20.0107 26.3218L19.2685 26.6431C19.1199 26.5085 18.9784 26.3664 18.8444 26.2173L19.1608 25.4759C19.2105 25.3603 19.2323 25.2347 19.2245 25.1091C19.2166 24.9836 19.1794 24.8616 19.1159 24.753C18.9576 24.4842 18.8375 24.1947 18.7592 23.8927C18.7281 23.7707 18.6687 23.6576 18.5858 23.5627C18.5029 23.4678 18.3989 23.3938 18.2821 23.3465L17.5302 23.0421C17.5182 22.8417 17.5182 22.6408 17.5302 22.4405L18.2797 22.1368C18.3965 22.0896 18.5005 22.0155 18.5834 21.9206C18.6663 21.8258 18.7257 21.7127 18.7568 21.5906C18.8346 21.2888 18.9541 20.9992 19.1118 20.7303C19.1754 20.6218 19.2126 20.4998 19.2204 20.3742C19.2282 20.2487 19.2065 20.123 19.1568 20.0074L18.8395 19.2652C18.9705 19.1206 19.1159 18.976 19.2653 18.8411L20.0067 19.1576C20.1223 19.2072 20.2479 19.229 20.3735 19.2212C20.499 19.2134 20.621 19.1762 20.7296 19.1126C20.9984 18.9543 21.2879 18.8343 21.5899 18.756C21.7119 18.7248 21.825 18.6654 21.9199 18.5825C22.0148 18.4997 22.0888 18.3956 22.1361 18.2788L22.4405 17.527C22.6409 17.515 22.8418 17.515 23.0421 17.527L23.3458 18.2764C23.393 18.3932 23.4671 18.4972 23.562 18.5801C23.6568 18.663 23.7699 18.7224 23.892 18.7535C24.1925 18.8322 24.4807 18.9523 24.7482 19.1102C24.8566 19.1743 24.9786 19.2117 25.1043 19.2196C25.23 19.2274 25.3557 19.2053 25.4712 19.1552L26.2134 18.8379C26.3619 18.9725 26.5034 19.1146 26.6375 19.2636L26.321 20.005C26.2714 20.1206 26.2496 20.2463 26.2574 20.3718C26.2652 20.4974 26.3024 20.6194 26.366 20.7279C26.5243 20.9967 26.6443 21.2863 26.7226 21.5882C26.7537 21.7103 26.8132 21.8233 26.896 21.9182C26.9789 22.0131 27.083 22.0872 27.1998 22.1344L27.9516 22.4389C27.9639 22.6389 27.9641 22.8396 27.9524 23.0397V23.0437Z" fill="white"/>
<path d="M47.2391 42.9176C47.4501 42.8373 47.634 42.699 47.7698 42.5186C47.9055 42.3383 47.9875 42.1232 48.0062 41.8982C48.0533 41.4515 48.0533 41.0011 48.0062 40.5544C47.9933 40.326 47.9149 40.106 47.7805 39.9209C47.646 39.7358 47.4612 39.5932 47.2479 39.5102L46.631 39.2604C46.5712 39.0883 46.5015 38.9199 46.4222 38.7559L46.676 38.1639C46.7684 37.9559 46.8011 37.7262 46.7703 37.5006C46.7395 37.275 46.6465 37.0625 46.5017 36.8868C46.2053 36.5332 45.8779 36.2069 45.5234 35.9116C45.3502 35.7719 45.1419 35.6825 44.9213 35.6532C44.7008 35.6239 44.4764 35.6558 44.2727 35.7454L43.6695 36.004C43.5055 35.9247 43.337 35.855 43.165 35.7952L42.9192 35.1887C42.8413 34.9791 42.7055 34.7959 42.5277 34.6604C42.3498 34.5249 42.1371 34.4426 41.9144 34.4232C41.4629 34.3746 41.0075 34.3746 40.5561 34.4232C40.3276 34.4361 40.1077 34.5145 39.9225 34.6489C39.7374 34.7834 39.5948 34.9682 39.5118 35.1815L39.262 35.7984C39.09 35.8582 38.9216 35.9279 38.7576 36.0072L38.1656 35.7534C37.9576 35.6605 37.7278 35.6276 37.5021 35.6584C37.2765 35.6892 37.0639 35.7825 36.8884 35.9277C36.5349 36.2236 36.2086 36.5505 35.9133 36.9044C35.7736 37.0776 35.6842 37.2859 35.6549 37.5065C35.6255 37.727 35.6574 37.9514 35.747 38.1551L36.0056 38.7583C35.9264 38.9223 35.8567 39.0908 35.7968 39.2628L35.1903 39.5086C34.9807 39.5865 34.7975 39.7222 34.662 39.9001C34.5265 40.078 34.4443 40.2907 34.4249 40.5134C34.3766 40.9649 34.3766 41.4203 34.4249 41.8717C34.4378 42.1002 34.5161 42.3201 34.6506 42.5053C34.785 42.6904 34.9699 42.833 35.1831 42.916L35.8 43.1658C35.8599 43.3378 35.9296 43.5062 36.0089 43.6702L35.755 44.2622C35.6626 44.4703 35.63 44.7 35.6607 44.9256C35.6915 45.1511 35.7845 45.3637 35.9293 45.5394C36.2252 45.8929 36.5521 46.2192 36.9061 46.5145C37.0796 46.6536 37.2878 46.7426 37.5083 46.7719C37.7287 46.8012 37.9529 46.7697 38.1568 46.6808L38.7632 46.4213C38.9239 46.5017 39.0966 46.5708 39.2676 46.6326L39.5086 47.2374C39.5865 47.4471 39.7223 47.6303 39.9002 47.7658C40.078 47.9013 40.2907 47.9835 40.5135 48.0029C40.7617 48.0278 41.0091 48.0407 41.2428 48.0407C41.453 48.0415 41.663 48.03 41.8718 48.0062C42.1005 47.9928 42.3206 47.9139 42.5058 47.7788C42.6909 47.6438 42.8333 47.4584 42.916 47.2447L43.157 46.6326C43.3287 46.5706 43.497 46.4998 43.6614 46.4205L44.2566 46.676C44.4647 46.7684 44.6944 46.801 44.92 46.7703C45.1456 46.7395 45.3581 46.6465 45.5338 46.5017C45.8899 46.2051 46.2187 45.8771 46.5162 45.5217C46.6559 45.3485 46.7453 45.1402 46.7746 44.9197C46.8039 44.6991 46.772 44.4747 46.6824 44.271L46.4238 43.6678C46.5031 43.5038 46.5728 43.3354 46.6326 43.1634L47.2391 42.9176ZM46.4254 41.5143L45.6752 41.8179C45.5584 41.8652 45.4543 41.9392 45.3714 42.0341C45.2886 42.129 45.2292 42.242 45.198 42.3641C45.1199 42.6649 45.0004 42.9533 44.843 43.2212C44.7794 43.3298 44.7422 43.4517 44.7344 43.5773C44.7266 43.7029 44.7484 43.8285 44.798 43.9441L45.1193 44.6863C44.9847 44.8348 44.8426 44.9764 44.6936 45.1104L43.9522 44.794C43.8383 44.7444 43.7143 44.7223 43.5903 44.7294C43.4662 44.7366 43.3456 44.7727 43.2381 44.8349C42.9563 44.9954 42.6561 45.1211 42.3441 45.2092C42.2252 45.2423 42.1155 45.3024 42.0236 45.3847C41.9316 45.467 41.8599 45.5694 41.8139 45.684L41.5184 46.4246C41.3185 46.4366 41.1182 46.4366 40.9183 46.4246L40.6235 45.6864C40.5776 45.5718 40.5058 45.4694 40.4139 45.3871C40.322 45.3048 40.2123 45.2447 40.0934 45.2117C39.7813 45.1235 39.4811 44.9978 39.1994 44.8373C39.0918 44.7752 38.9712 44.7391 38.8472 44.7319C38.7232 44.7248 38.5992 44.7469 38.4853 44.7964L37.7431 45.1177C37.5946 44.9831 37.453 44.841 37.319 44.692L37.6354 43.9506C37.6851 43.8349 37.7069 43.7093 37.6991 43.5837C37.6912 43.4582 37.654 43.3362 37.5905 43.2276C37.4322 42.9588 37.3121 42.6693 37.2338 42.3673C37.2027 42.2453 37.1433 42.1322 37.0604 42.0373C36.9775 41.9424 36.8735 41.8684 36.7567 41.8211L36.0048 41.5167C35.9928 41.3163 35.9928 41.1154 36.0048 40.9151L36.7543 40.6114C36.8711 40.5642 36.9751 40.4901 37.058 40.3953C37.1409 40.3004 37.2003 40.1873 37.2314 40.0652C37.3092 39.7634 37.4287 39.4738 37.5864 39.2049C37.65 39.0964 37.6872 38.9744 37.695 38.8488C37.7029 38.7233 37.6811 38.5976 37.6314 38.482L37.3101 37.7398C37.4411 37.5952 37.5864 37.4507 37.7358 37.3157L38.4772 37.6322C38.5929 37.6818 38.7185 37.7036 38.8441 37.6958C38.9696 37.688 39.0916 37.6508 39.2002 37.5872C39.469 37.4289 39.7585 37.3089 40.0605 37.2306C40.1825 37.1994 40.2956 37.14 40.3905 37.0572C40.4854 36.9743 40.5594 36.8702 40.6067 36.7534L40.9111 36.0016C41.1114 35.9888 41.3124 35.9888 41.5127 36.0016L41.8164 36.751C41.8636 36.8678 41.9377 36.9719 42.0325 37.0547C42.1274 37.1376 42.2405 37.197 42.3626 37.2282C42.6645 37.3065 42.9541 37.4265 43.2228 37.5848C43.3314 37.6484 43.4534 37.6856 43.579 37.6934C43.7045 37.7012 43.8302 37.6794 43.9458 37.6298L44.688 37.3085C44.8365 37.4431 44.9781 37.5852 45.1121 37.7342L44.7956 38.4756C44.746 38.5912 44.7242 38.7169 44.732 38.8424C44.7398 38.968 44.777 39.09 44.8406 39.1985C44.9989 39.4673 45.1189 39.7569 45.1972 40.0588C45.2284 40.1809 45.2878 40.2939 45.3706 40.3888C45.4535 40.4837 45.5576 40.5578 45.6744 40.605L46.4262 40.9094C46.4386 41.1109 46.4389 41.3128 46.427 41.5143H46.4254Z" fill="white"/>
<path d="M33.097 12.2046C31.725 10.8329 30.0962 9.74491 28.3037 9.00271C26.5112 8.26052 24.5901 7.87865 22.65 7.87891C18.7318 7.87943 14.9743 9.43643 12.2041 12.2074C9.43388 14.9783 7.87789 18.7362 7.87842 22.6544C7.87895 26.5726 9.43594 30.3301 12.2069 33.1003C13.5336 34.5121 15.1371 35.6351 16.9174 36.3992C18.6976 37.1634 20.6163 37.5522 22.5536 37.5415C24.0303 37.5269 25.5012 37.3518 26.9401 37.0194C25.8774 41.9096 26.1047 46.9949 30.8616 51.7518C33.6484 54.4361 37.3773 55.9197 41.2465 55.8835C45.1158 55.8473 48.8163 54.2941 51.5523 51.5581C54.2884 48.822 55.8415 45.1215 55.8778 41.2523C55.914 37.383 54.4304 33.6541 51.7461 30.8673C46.7603 25.8815 41.389 25.9859 37.0129 26.9474C38.082 22.0516 37.8531 16.9662 33.097 12.2046ZM13.3419 31.9589C10.8766 29.4879 9.49216 26.14 9.49216 22.6496C9.49216 19.1592 10.8766 15.8113 13.3419 13.3404C14.2817 12.4006 16.4272 11.5355 19.0956 11.721C20.3109 11.8138 21.5053 12.0889 22.6387 12.5371C20.6389 12.537 18.684 13.1301 17.0214 14.2414C15.3588 15.3526 14.0632 16.932 13.2984 18.7798C12.5337 20.6276 12.3343 22.6607 12.7253 24.6219C13.1164 26.5831 14.0804 28.3842 15.4954 29.7973C16.3398 30.6733 17.3569 31.3643 18.4822 31.8267C19.6076 32.2891 20.8167 32.5127 22.033 32.4834C24.2917 32.3888 26.5234 31.9556 28.6534 31.1982C28.2028 32.5236 27.7522 33.8827 27.3731 35.2627C23.0564 36.3382 18.0666 36.6772 13.3419 31.9589ZM29.2952 29.3025C24.1609 31.0167 19.9566 31.9862 16.632 28.6599C15.089 27.054 14.2373 24.907 14.2598 22.68C14.2823 20.453 15.1772 18.3237 16.7523 16.7492C18.3274 15.1747 20.4571 14.2807 22.6841 14.2591C24.9111 14.2375 27.0577 15.0901 28.6631 16.6337C31.9773 19.9367 31.0078 24.1521 29.2952 29.3025ZM31.9974 50.6112C25.8364 44.4502 28.1337 37.707 30.3539 31.1854L30.6905 30.1934C32.2391 25.5883 34.1653 19.8587 29.8021 15.4995C25.6838 11.3836 21.7696 10.3065 19.2136 10.1274C19.0297 10.1153 18.8594 10.1225 18.6811 10.1177C20.9776 9.38918 23.4299 9.30439 25.7713 9.87259C28.1126 10.4408 30.2533 11.6402 31.9604 13.3404C38.1141 19.5005 35.8249 26.2349 33.6119 32.7469L33.2625 33.7694C31.3564 39.4098 30.1081 44.4085 34.1509 48.4544C38.1205 52.4233 42.0163 53.7832 45.1859 53.8716C42.8988 54.5776 40.4626 54.6471 38.1389 54.0726C35.8153 53.4982 33.6921 52.3015 31.9974 50.6112ZM35.2907 47.3219C31.9701 44.002 32.942 39.7954 34.6593 34.6586C39.7937 32.9397 43.9987 31.9677 47.3218 35.2908C48.1263 36.0774 48.7669 37.0157 49.2063 38.0516C49.6457 39.0874 49.8753 40.2001 49.8818 41.3253C49.8882 42.4504 49.6714 43.5657 49.2438 44.6065C48.8163 45.6473 48.1865 46.5929 47.391 47.3887C46.5955 48.1844 45.65 48.8144 44.6093 49.2422C43.5686 49.6701 42.4534 49.8872 41.3283 49.881C40.2031 49.8749 39.0903 49.6456 38.0544 49.2065C37.0184 48.7673 36.0799 48.127 35.2931 47.3227L35.2907 47.3219ZM50.6127 31.9958C53.0774 34.4666 54.4615 37.814 54.4615 41.3039C54.4615 44.7938 53.0774 48.1412 50.6127 50.612C49.1668 52.0578 45.5675 53.0675 41.3183 51.4152C43.996 51.4164 46.5646 50.354 48.4592 48.4617C50.3513 46.5626 51.4136 43.9911 51.4136 41.3103C51.4136 38.6296 50.3513 36.0581 48.4592 34.159C44.7811 30.4769 40.3182 31.1725 35.3027 32.7629C35.7534 31.4352 36.2048 30.0737 36.5839 28.6913C40.9054 27.6173 45.8992 27.2816 50.6127 31.9958Z" fill="white"/>
</svg>
