<svg width="44" height="50" viewBox="0 0 44 50" fill="none" xmlns="http://www.w3.org/2000/svg">
<path d="M21.8635 21.8999C20.2457 21.8999 18.9282 23.2174 18.9282 24.8352C18.9282 26.453 20.2457 27.7705 21.8635 27.7705C23.4814 27.7705 24.7989 26.453 24.7989 24.8352C24.7989 23.2174 23.4814 21.8999 21.8635 21.8999Z" fill="white"/>
<path d="M43.1279 11.8076C41.2703 8.85053 36.5528 8.21113 30.6262 9.62553C28.6718 3.85422 25.6203 0.199707 22.1279 0.199707C18.6356 0.199707 15.5839 3.85428 13.6296 9.62553C7.70332 8.20871 2.98551 8.85053 1.128 11.8076C-0.857913 14.9682 0.958468 19.9259 5.41956 24.9993C0.958493 30.0731 -0.857913 35.0309 1.128 38.191C2.36074 40.1527 4.8504 41.0972 8.11723 41.0972C9.77622 41.0972 11.6362 40.8526 13.6318 40.3755C15.5838 46.1444 18.6354 49.7988 22.1276 49.7988C25.6199 49.7988 28.6717 46.1442 30.6235 40.3755C32.6191 40.8526 34.4791 41.0972 36.138 41.0972C39.4051 41.0972 41.8948 40.1527 43.1273 38.191C45.1132 35.0304 43.2968 30.0727 38.8357 24.9993C43.2968 19.9255 45.1138 14.9677 43.1279 11.8076ZM42.055 12.4809C43.6849 15.0771 41.9266 19.4682 37.9523 24.0283C36.4193 22.4032 34.6223 20.7806 32.6 19.2088C32.2948 16.1621 31.7548 13.3479 31.0209 10.8705C36.32 9.6184 40.5341 10.0566 42.055 12.4809ZM27.1775 33.0375C25.4968 34.0934 23.8014 35.0331 22.1279 35.8541C20.452 35.0331 18.7567 34.0935 17.0784 33.0375C15.5962 32.1051 14.1915 31.1243 12.874 30.1143C12.719 28.4602 12.6343 26.7504 12.6343 24.9994C12.6343 23.2484 12.719 21.5385 12.874 19.8844C14.1915 18.8745 15.5962 17.8912 17.0784 16.9612C18.7567 15.9053 20.452 14.9656 22.1255 14.147C23.8014 14.968 25.4968 15.9052 27.1775 16.9612C28.6597 17.8936 30.0643 18.8745 31.3818 19.8844C31.5368 21.5385 31.6216 23.2484 31.6216 24.9994C31.6216 26.7504 31.5368 28.4602 31.3818 30.1143C30.0643 31.1243 28.6597 32.1075 27.1775 33.0375ZM31.193 31.8483C30.8733 34.3623 30.3817 36.7066 29.7568 38.8016C27.8024 38.2591 25.7244 37.5011 23.598 36.542C25.0051 35.813 26.4292 35.0041 27.8508 34.1105C29.0182 33.3791 30.1322 32.6209 31.193 31.8483ZM20.658 36.5419C18.5316 37.501 16.4537 38.259 14.4992 38.8015C13.8743 36.7066 13.3827 34.3622 13.063 31.8482C14.1238 32.6208 15.2378 33.3764 16.4052 34.1102C17.8268 35.0039 19.2508 35.8129 20.658 36.5419ZM11.5056 29.0319C9.89743 27.712 8.44918 26.3533 7.18252 24.9995C8.44918 23.6457 9.89743 22.287 11.5056 20.9671C11.416 22.2773 11.3675 23.6214 11.3675 24.9995C11.3675 26.3776 11.416 27.7216 11.5056 29.0319ZM13.0628 18.1503C13.3825 15.6364 13.8742 13.2897 14.499 11.1946C16.4534 11.7371 18.5314 12.4951 20.6602 13.4541C19.2531 14.1831 17.8291 14.9945 16.405 15.8881C15.2377 16.6195 14.1236 17.3777 13.0628 18.1503ZM23.6003 13.4567C25.7267 12.4977 27.8046 11.7397 29.7591 11.1972C30.3839 13.2921 30.8756 15.6365 31.1953 18.1504C30.1345 17.3779 29.0204 16.6223 27.8531 15.8884C26.429 14.9948 25.0075 14.1833 23.6003 13.4567ZM32.7502 20.9668C34.3584 22.2867 35.8066 23.6453 37.0733 24.9992C35.8066 26.353 34.3584 27.7117 32.7502 29.0316C32.8398 27.7213 32.8883 26.3772 32.8883 24.9992C32.8883 23.6211 32.8398 22.277 32.7502 20.9668ZM22.1278 1.46599C24.9905 1.46599 27.6036 4.80089 29.3595 9.95252C27.0732 10.5919 24.6344 11.5219 22.1278 12.7232C19.6212 11.5195 17.1823 10.5919 14.8962 9.95252C16.652 4.8012 19.2652 1.46599 22.1278 1.46599ZM2.20047 12.4809C3.17647 10.926 5.25929 10.1874 8.02504 10.1874C9.57261 10.1874 11.3333 10.4199 13.2344 10.8704C12.5006 13.3479 11.9605 16.1646 11.6554 19.2112C9.63313 20.783 7.83606 22.4056 6.30306 24.0307C2.32875 19.4679 0.568143 15.0774 2.20047 12.4809ZM2.20047 37.5182C0.570561 34.922 2.32883 30.5309 6.30312 25.9708C7.83619 27.5958 9.63319 29.2185 11.6554 30.7903C11.9606 33.837 12.5007 36.6512 13.2345 39.1286C7.93545 40.3807 3.72133 39.9401 2.20047 37.5182ZM22.1278 48.5331C19.2652 48.5331 16.652 45.1982 14.8962 40.0466C17.1824 39.4072 19.6212 38.4772 22.1278 37.2735C24.6345 38.4772 27.0757 39.4048 29.3595 40.0466C27.6036 45.1979 24.9904 48.5331 22.1278 48.5331ZM42.0551 37.5182C40.5342 39.9425 36.3178 40.3809 31.0211 39.1288C31.7549 36.6512 32.295 33.837 32.6001 30.7904C34.6224 29.2186 36.4194 27.596 37.9524 25.971C41.9268 30.5313 43.6875 34.9223 42.0551 37.5182Z" fill="white"/>
</svg>
