<svg width="41" height="50" viewBox="0 0 41 50" fill="none" xmlns="http://www.w3.org/2000/svg">
<path d="M27.5821 49.3179H4.69998C2.54562 49.3158 0.797981 47.5682 0.795898 45.4138L0.797984 4.10819C0.80007 1.95383 2.54563 0.208266 4.69999 0.204102H27.5821C29.7364 0.206187 31.4841 1.95383 31.4861 4.10819V26.4857C31.4861 26.9174 31.1358 27.2678 30.7041 27.2678C30.2724 27.2678 29.9221 26.9174 29.9221 26.4857V4.10819C29.92 2.81724 28.8731 1.77033 27.5821 1.76824H4.70004C3.40909 1.77033 2.36426 2.81724 2.3601 4.10819V45.4138C2.36218 46.7048 3.40909 47.7517 4.70004 47.7537H27.5821C28.8731 47.7517 29.92 46.7048 29.9221 45.4138V38.0835C29.9221 37.6518 30.2724 37.3014 30.7041 37.3014C31.1358 37.3014 31.4861 37.6518 31.4861 38.0835V45.4138C31.4841 47.5682 29.7364 49.3158 27.5821 49.3179Z" fill="white"/>
<path d="M19.2818 5.22132H13C12.5662 5.22132 12.2158 4.87095 12.2158 4.43927C12.2158 4.00759 12.5662 3.65723 13 3.65723H19.2839H19.2818C19.7156 3.65723 20.0639 4.00759 20.0639 4.43927C20.0639 4.87095 19.7155 5.22132 19.2818 5.22132Z" fill="white"/>
<path d="M30.7023 8.67542H1.57794C1.14624 8.67542 0.795898 8.32505 0.795898 7.89337C0.795898 7.46169 1.14626 7.11133 1.57794 7.11133H30.7023C31.134 7.11133 31.4843 7.46169 31.4843 7.89337C31.4843 8.32505 31.134 8.67542 30.7023 8.67542Z" fill="white"/>
<path d="M30.7023 42.4108H1.57794C1.14624 42.4108 0.795898 42.0604 0.795898 41.6287C0.795898 41.197 1.14626 40.8467 1.57794 40.8467H30.7023C31.134 40.8467 31.4843 41.197 31.4843 41.6287C31.4843 42.0604 31.134 42.4108 30.7023 42.4108Z" fill="white"/>
<path d="M30.202 35.7933C29.8787 35.7933 29.5867 35.5931 29.472 35.2887L27.3907 29.8371C27.3073 29.641 27.3073 29.42 27.3907 29.224C27.472 29.0279 27.6326 28.8736 27.8307 28.7985C28.0309 28.7214 28.252 28.7297 28.4439 28.8215C28.6357 28.9111 28.7838 29.078 28.8505 29.2782L30.936 34.7298V34.7318C31.0904 35.1364 30.8881 35.5869 30.4856 35.7412C30.3938 35.7767 30.2979 35.7933 30.202 35.7933Z" fill="white"/>
<path d="M25.6637 35.7933C25.5031 35.7933 25.3446 35.7433 25.2132 35.6473L21.3759 32.9195V32.9216C21.1694 32.7756 21.0464 32.5378 21.0464 32.2855C21.0464 32.0311 21.1694 31.7933 21.3759 31.6473L25.2132 28.9195V28.9215C25.5636 28.6984 26.0287 28.7902 26.2685 29.1301C26.5084 29.47 26.4416 29.9372 26.1142 30.1958L23.1736 32.2813L26.1142 34.3668C26.3916 34.5628 26.5105 34.9173 26.4062 35.2427C26.304 35.568 26.0016 35.787 25.6596 35.787L25.6637 35.7933Z" fill="white"/>
<path d="M32.659 35.7933C32.3191 35.7933 32.0167 35.5743 31.9124 35.249C31.8081 34.9236 31.927 34.5691 32.2044 34.3731L35.145 32.2876L32.2044 30.2021C32.0355 30.0811 31.9228 29.8997 31.8874 29.6953C31.8519 29.4909 31.8999 29.2803 32.0209 29.1113C32.2711 28.7589 32.7591 28.6775 33.1116 28.9278L36.949 31.6431C37.1554 31.7891 37.2785 32.0269 37.2785 32.2813C37.2785 32.5336 37.1554 32.7714 36.949 32.9174L33.1116 35.6452V35.6431C32.9802 35.7391 32.8217 35.7912 32.659 35.7933Z" fill="white"/>
<path d="M40.0122 38.8654H18.3105C17.8768 38.8654 17.5264 38.5151 17.5264 38.0834V26.4857C17.5264 26.054 17.8767 25.7036 18.3105 25.7036H40.0122C40.2207 25.7036 40.4189 25.787 40.5669 25.933C40.7129 26.079 40.7964 26.2792 40.7964 26.4857V38.0834C40.7964 38.2899 40.7129 38.4901 40.5669 38.6361C40.4189 38.7821 40.2208 38.8654 40.0122 38.8654ZM19.09 37.3013H39.2322V27.2636H19.09V37.3013Z" fill="white"/>
<path d="M10.427 26.087C10.3728 26.087 10.3206 26.0807 10.2706 26.0724C9.28833 25.8721 8.3561 25.4842 7.5219 24.9337C7.33837 24.8106 7.21324 24.6167 7.17988 24.3977C7.14651 24.1787 7.20907 23.9576 7.3488 23.7867C7.55944 23.528 7.54067 23.1527 7.30501 22.917C7.06934 22.6813 6.69397 22.6626 6.43743 22.8753C6.26434 23.0129 6.04327 23.0755 5.82431 23.0421C5.60533 23.0088 5.41138 22.8836 5.29042 22.7001C4.73774 21.8659 4.34986 20.9337 4.14965 19.9535H4.15174C4.10586 19.7345 4.15382 19.5093 4.2873 19.3299C4.41869 19.1506 4.61889 19.0359 4.83998 19.015C5.17158 18.9816 5.42396 18.7022 5.42396 18.3706C5.42396 18.0369 5.17161 17.7575 4.83998 17.7262C4.61892 17.7032 4.41662 17.5885 4.28522 17.4092C4.15383 17.2319 4.10586 17.0046 4.15174 16.7877C4.34987 15.8054 4.73572 14.8732 5.28835 14.039H5.29043C5.41139 13.8555 5.60534 13.7303 5.82432 13.697C6.04331 13.6636 6.26437 13.7262 6.43745 13.8659C6.69396 14.0765 7.06936 14.0578 7.30502 13.8221C7.54069 13.5864 7.55945 13.2111 7.34882 12.9545C7.207 12.7814 7.14652 12.5604 7.17989 12.3414C7.21326 12.1224 7.33839 11.9285 7.52191 11.8075C8.35612 11.2528 9.28834 10.867 10.2706 10.6688C10.4875 10.623 10.7127 10.6709 10.8921 10.8023C11.0715 10.9337 11.1862 11.136 11.207 11.3571C11.2404 11.6866 11.5198 11.941 11.8535 11.941C12.1851 11.941 12.4645 11.6866 12.4958 11.3571H12.4979C12.5188 11.1339 12.6335 10.9337 12.8128 10.8023C12.9922 10.6709 13.2174 10.623 13.4364 10.6688C14.4166 10.867 15.3488 11.2528 16.183 11.8075C16.3665 11.9285 16.4917 12.1224 16.525 12.3414C16.5584 12.5604 16.4979 12.7815 16.3582 12.9545C16.1455 13.2111 16.1642 13.5864 16.3999 13.8221C16.6356 14.0578 17.0109 14.0765 17.2675 13.8659C17.4406 13.7241 17.6616 13.6636 17.8806 13.697C18.0996 13.7303 18.2935 13.8555 18.4145 14.039C18.965 14.8753 19.3488 15.8117 19.5449 16.794C19.5907 17.0109 19.5428 17.2361 19.4114 17.4155C19.28 17.5948 19.0777 17.7095 18.8566 17.7325C18.525 17.7638 18.2726 18.0432 18.2726 18.3748C18.2726 18.7085 18.525 18.9879 18.8566 19.0213C19.0777 19.0422 19.2779 19.1569 19.4093 19.3362C19.5407 19.5156 19.5907 19.7408 19.5449 19.9598C19.3446 20.94 18.9588 21.8722 18.4062 22.7064C18.2852 22.8899 18.0892 23.0151 17.8723 23.0484C17.6533 23.0818 17.4301 23.0213 17.2592 22.8795C17.0026 22.6689 16.6252 22.6876 16.3895 22.9233C16.1559 23.159 16.1372 23.5343 16.3478 23.7909C16.4875 23.964 16.548 24.185 16.5146 24.404C16.4813 24.623 16.3582 24.8169 16.1747 24.9379C15.3384 25.4906 14.4062 25.8784 13.426 26.0766V26.0787C13.2091 26.1224 12.9818 26.0745 12.8024 25.9431C12.6231 25.8117 12.5084 25.6094 12.4875 25.3883C12.4458 25.0651 12.1726 24.8231 11.8452 24.8211C11.5198 24.8211 11.2446 25.063 11.2029 25.3862C11.1632 25.7867 10.8254 26.0911 10.4229 26.0911L10.427 26.087ZM8.97759 23.9743H8.97551C9.27791 24.1308 9.59279 24.2601 9.91398 24.3643C10.3081 23.6678 11.0443 23.2381 11.8452 23.2381C12.6439 23.2381 13.3801 23.6678 13.7722 24.3643C14.0955 24.2601 14.4104 24.1308 14.7107 23.9743C14.498 23.2048 14.7149 22.3768 15.28 21.8117C15.8452 21.2465 16.6711 21.0296 17.4427 21.2444C17.597 20.942 17.7284 20.6271 17.8327 20.3059C17.1361 19.9118 16.7065 19.1756 16.7065 18.3768C16.7065 17.576 17.1361 16.8398 17.8327 16.4477C17.7284 16.1244 17.597 15.8095 17.4427 15.5092C16.6711 15.7199 15.8452 15.5009 15.2821 14.9336C14.7169 14.3664 14.5042 13.5384 14.7211 12.7689C14.4187 12.6145 14.1059 12.4831 13.7826 12.3789C13.3905 13.0754 12.6523 13.5051 11.8535 13.5051C11.0547 13.5051 10.3165 13.0754 9.92439 12.3789C9.60114 12.4831 9.28831 12.6145 8.98592 12.7689C9.20072 13.5384 8.98383 14.3664 8.41866 14.9315C7.85348 15.4988 7.0276 15.7157 6.25597 15.5009C6.09955 15.8012 5.97025 16.1161 5.86598 16.4394C6.56046 16.8314 6.99008 17.5697 6.99008 18.3664C6.99008 19.1651 6.56047 19.9034 5.86598 20.2976C5.97025 20.6188 6.10164 20.9337 6.25597 21.2361C7.0276 21.0192 7.85348 21.2361 8.41866 21.8033C8.98592 22.3685 9.20284 23.1944 8.988 23.9639L8.97759 23.9743Z" fill="white"/>
<path d="M11.8487 22.2167C10.295 22.2167 8.89141 21.2804 8.29708 19.8434C7.70269 18.4065 8.03013 16.7548 9.1292 15.6536C10.2283 14.5545 11.8821 14.2271 13.319 14.8215C14.7539 15.4159 15.6903 16.8173 15.6903 18.3731V18.371C15.6903 20.4941 13.9696 22.2126 11.8487 22.2167ZM11.8487 16.0935C10.9269 16.0915 10.0947 16.6462 9.74232 17.4992C9.38987 18.3501 9.58382 19.3303 10.2345 19.983C10.8873 20.6358 11.8675 20.8297 12.7204 20.4773C13.5713 20.1248 14.126 19.2948 14.126 18.3709C14.126 17.1133 13.1062 16.0935 11.8487 16.0935Z" fill="white"/>
</svg>
