<svg width="1316" height="341" viewBox="0 0 1316 341" fill="none" xmlns="http://www.w3.org/2000/svg">
<g clip-path="url(#clip0_1879_273)">
<path d="M196.133 142.056C184.868 153.781 185.885 160.536 174.001 165.097C171.017 166.224 167.355 167.452 162.675 168.529C159.921 160.027 152.996 151.586 145.671 151.586C140.602 151.586 134.735 154.23 127.979 157.214C120.046 160.706 112.782 164.707 110.467 166.224L113.57 170.385C115.935 169.088 122.751 165.705 129.566 162.782C135.483 160.247 140.832 158.161 144.424 158.161C150.232 158.161 154.004 164.757 156.089 170.046C148.485 171.852 135.982 172.291 132.21 172.291C130.464 172.291 129.835 172.581 129.227 173.09C128.658 173.598 128.209 174.487 127.929 175.734L127.48 177.65H131.532C152.587 177.65 172.484 174.327 185.267 166.554C187.073 167.052 188.649 167.392 190.675 167.392C197.989 167.392 205.553 163.4 210.273 159.738C211.97 158.441 212.359 157.263 212.359 155.966C212.359 155.348 212.299 154.779 212.239 154.21L212.019 152.015C205.264 157.363 199.636 161.365 192.651 161.365C191.414 161.365 190.505 161.255 189.777 161.025C196.592 150.099 202.679 140.409 217.607 132.526C216.031 131.568 213.776 130.102 212.598 129.313C206.781 131.858 201.033 136.927 196.133 142.056Z" fill="white"/>
<path d="M172.873 145.319C168.084 145.319 168.533 137.146 168.193 130.68C151.3 132.307 140.712 137.326 129.097 143.573L130.454 148.752C140.982 142.445 151.12 138.843 161.877 137.775C161.997 143.962 164.641 152.254 171.686 152.254C179.23 152.254 188.4 140.419 199.167 126.559L201.991 122.897C200.524 121.769 198.898 120.751 197.88 119.803C186.844 134.003 177.274 145.319 172.873 145.319Z" fill="white"/>
<path d="M143.367 57.3373C140.603 57.8961 138.577 58.405 136.152 58.405C134.575 58.405 132.769 58.1755 130.634 57.6766C128.997 57.2774 127.251 56.9381 124.786 56.9381C120.336 56.9381 115.546 58.6245 112.273 61.7778C106.296 67.4656 105.967 73.6025 105.568 79.0608C105.069 86.3352 103.712 88.1413 99.7799 93.43C96.5668 97.7607 92.1662 103.459 88.7935 109.486C89.8711 109.985 93.4136 111.9 94.6509 112.579C98.5326 106.732 103.941 99.517 107.483 94.0487C110.697 89.0993 111.994 86.9539 112.213 80.3081C112.273 79.1805 112.273 78.1128 112.383 77.0351C112.672 73.6025 113.57 70.1099 116.843 66.8968C119.258 64.462 122.751 63.2347 126.253 63.2347C129.626 63.2347 131.602 64.1926 134.526 64.1926C136.611 64.1926 138.138 63.6837 139.475 63.1848L140.553 62.7856L137.958 68.9823L144.035 71.4571C140.154 73.8719 131.642 84.2896 131.642 96.6332C131.642 101.074 132.32 105.185 133.278 108.847C133.388 109.236 133.608 109.635 134.226 109.635C134.795 109.635 135.194 109.296 135.244 108.687L135.304 107.39C135.484 103.618 135.753 97.651 137.27 92.3024C139.804 83.2917 146.62 74.8398 153.445 70.7785L143.756 66.5575L147.917 56.3594L143.367 57.3373Z" fill="white"/>
<path d="M172.644 16.2852C168.981 16.2852 167.974 19.8276 167.974 21.8033C167.974 23.38 168.532 25.246 170.508 25.246C172.135 25.246 174.16 24.0685 175.737 22.7613C177.264 21.5239 178.272 20.5161 178.272 19.4983C178.272 18.5503 177.374 17.6423 176.016 17.0236C175.078 16.5646 173.891 16.2852 172.644 16.2852Z" fill="white"/>
<path d="M150.232 87.812L147.528 93.0009H176.306L174.171 87.812H150.232Z" fill="white"/>
<path d="M116.943 40.0542C118.46 39.1462 119.757 37.8589 119.757 36.5018C119.757 35.8832 119.488 35.2645 118.859 34.6957C117.791 33.6879 116.324 33.179 115.087 33.179C112.263 33.179 110.806 35.8233 110.806 38.2481C110.806 40.1041 111.714 41.1718 113.45 41.1718C114.518 41.1818 115.766 40.7228 116.943 40.0542Z" fill="white"/>
<path d="M284.345 143.413L287.099 145.329C287.488 145.608 287.777 145.778 288.117 145.778C288.685 145.778 289.075 145.219 289.075 144.77C289.075 144.491 288.955 144.201 288.626 143.922C280.393 136.428 271.552 127.307 263.27 118.516C256.794 111.591 250.148 104.277 244.291 96.8925C243.891 96.3836 243.562 96.1541 243.103 96.1541C242.434 96.1541 242.095 96.6031 242.095 97.112C242.095 97.9003 242.654 98.8483 244.061 101.223C248.332 108.488 253.631 115.812 260.167 122.677C267.211 130.161 275.494 137.146 284.345 143.413Z" fill="white"/>
<path d="M248.921 245.185H242.215C240.469 245.185 239.291 245.804 238.443 246.822C237.764 247.66 237.315 248.737 237.315 250.204V323.926C237.315 325.393 237.764 326.461 238.443 327.309C239.291 328.327 240.469 328.946 242.215 328.946H248.921C250.667 328.946 251.844 328.327 252.693 327.309C253.371 326.471 253.82 325.393 253.82 323.926V250.204C253.82 248.737 253.371 247.67 252.693 246.822C251.844 245.804 250.667 245.185 248.921 245.185Z" fill="white"/>
<path d="M132.49 71.1975C132.49 70.469 132.161 69.7306 131.313 69.1718C130.365 68.4933 129.177 68.2139 128.109 68.2139C125.735 68.2139 124.787 69.6209 124.328 71.0877C124.108 71.7663 124.058 72.4348 124.058 73.0036C124.058 75.0293 124.956 76.4363 126.423 76.4363C128.439 76.4363 132.49 73.6223 132.49 71.1975Z" fill="white"/>
<path d="M54.5865 140.369L54.9956 142.784C55.1553 143.802 55.5544 144.64 56.3926 145.039C57.4105 145.548 58.8773 145.608 61.4119 145.608C67.8282 145.608 72.5081 144.82 75.2124 144.141C82.1375 154.439 91.6572 158.391 100.837 158.391C108.671 158.391 116.604 155.517 124.207 151.346L122.79 146.217C115.366 150.398 107.653 153.152 100.837 153.152C93.2338 153.152 86.4683 149.879 80.8403 141.377C78.4754 137.785 76.6193 133.275 74.3542 129.273C71.65 124.543 68.7262 122.009 63.6072 122.009C58.9272 122.009 54.367 123.935 49.5273 126.01L49.7469 127.078C50.136 128.824 50.8246 130.062 52.4611 130.062C53.1895 130.062 53.9279 129.722 54.3171 129.613C57.0213 128.764 58.9871 128.036 61.7512 128.036C65.9721 128.036 67.9978 130.511 70.8716 136.598L71.9493 138.853C69.0156 139.851 62.1503 140.369 57.0313 140.369H54.5865Z" fill="white"/>
<path d="M289.973 266.42C270.424 266.42 259.438 281.687 259.438 297.793C259.438 314.976 271.213 330.073 290.072 330.073C299.492 330.073 308.722 326.521 314.021 320.274C316.326 317.56 318.192 313.788 318.192 311.483C318.192 310.695 318.023 310.016 317.574 309.517C317.125 308.949 316.446 308.609 315.268 308.609H306.208C304.402 308.609 303.164 309.278 302.256 310.645C299.612 314.527 295.79 316.562 290.152 316.562C281.7 316.562 276.232 310.136 275.843 303.091H315.159C316.895 303.091 318.152 302.702 318.991 301.854C319.948 300.956 320.397 299.659 320.397 297.244C320.397 289.86 318.092 282.196 313.243 276.348C308.273 270.421 300.62 266.42 289.973 266.42ZM275.943 291.087C276.681 284.162 281.98 278.983 290.023 278.983C297.916 278.983 303.374 284.162 304.112 291.087H275.943Z" fill="white"/>
<path d="M266.942 29.7464H267.85C267.85 30.1356 267.79 30.5946 267.79 30.9837C267.79 37.3501 271.063 42.08 279.116 42.08C284.066 42.08 291.849 39.5953 299.163 37.1206C305.24 35.0351 310.818 32.8996 313.582 32.1113V25.3458C310.429 26.3038 304.013 28.7785 297.367 31.0835C290.382 33.5083 283.507 35.7136 279.505 35.7136C275.115 35.7136 273.877 33.2888 273.877 29.8462C273.877 22.7514 278.328 12.5632 281.142 6.75562H274.326C270.784 13.6309 256.814 35.6537 249.27 44.7742L253.601 49.4542C257.642 44.9538 262.093 37.2902 266.942 29.7464Z" fill="white"/>
<path d="M219.224 29.6366C213.536 24.1683 209.206 17.9715 206.441 14.9879C200.295 8.28227 192.362 0 179.3 0C166.677 0 158.344 8.2224 155.64 15.3272C154.842 17.3628 154.233 19.8276 153.664 20.7356C152.427 22.7613 146.849 32.2809 144.544 36.0528H154.962L149.892 45.6323C155.8 44.3251 160.021 43.3672 165.659 43.3672C170.668 43.3672 174.28 44.5546 175.857 47.7079C178.791 53.5653 178.791 71.2974 183.74 84.6588C188.35 97.2219 199.626 109.506 212.299 118.895L212.858 119.075C213.476 119.075 213.866 118.616 213.866 118.167C213.866 117.828 213.756 117.608 213.476 117.319C202.879 106.732 194.267 95.0166 189.657 82.1741C185.097 69.6709 185.826 52.0985 181.824 44.2652C179.18 39.0863 173.552 37.7292 168.363 37.7292C164.202 37.7292 160.31 38.5774 158.504 38.9666L163.074 31.2431H155.351C156.977 28.3693 158.684 25.7249 159.522 24.1483C160.25 22.7912 160.54 21.1048 161.438 18.7998C164.371 11.4156 170.848 6.73558 179.3 6.73558C189.887 6.73558 196.084 13.551 202.23 20.3764C205.044 23.5197 209.675 30.1155 215.013 35.015C218.675 38.3978 225.65 42.1597 236.407 53.266C242.614 59.6822 249.819 68.0244 257.422 79.1805C284.624 119.005 302.486 154.09 312.444 181.462L312.275 181.571C283.716 162.193 258.999 143.892 239.052 121.31C224.912 105.255 212.638 86.6745 201.931 62.9453C201.203 61.3786 200.574 59.9117 199.895 58.395C199.626 57.7763 199.337 57.6067 198.888 57.6067C198.319 57.6067 197.92 57.9958 197.92 58.5546C197.92 59.1733 198.209 60.5304 198.818 63.2247C204.516 87.7821 220.282 109.805 237.126 128.116C253.91 146.307 272.899 161.973 288.496 173.339L300.67 208.154C300.949 209.003 301.278 209.891 301.278 210.749C301.278 211.368 301.119 211.876 300.73 212.216C300.39 212.545 299.941 212.725 298.923 212.725H295.261C293.685 212.725 293.066 212.495 292.507 212.046C291.938 211.597 291.539 210.918 291.27 210.13C290.202 206.867 283.766 188.556 282.539 184.844C282.319 184.166 281.92 183.946 281.471 183.946C280.912 183.946 280.523 184.395 280.523 184.904C280.523 185.353 280.692 185.862 280.972 187.439C282.598 195.771 284.514 205.131 285.303 208.673C285.652 210.32 286.041 211.837 286.041 212.964C286.041 213.972 285.811 214.541 284.973 215.379L281.191 219.211C280.293 220.119 279.794 220.338 279.056 220.338C278.148 220.338 277.419 219.73 277.08 218.153C272.799 198.156 266.323 173.359 264.637 166.494C264.238 164.967 263.958 164.119 263.06 164.119C262.272 164.119 261.983 164.687 261.983 165.366C261.983 165.875 262.092 166.494 262.162 166.943C263.17 174.037 267.281 199.902 271.732 223.502C272.52 227.563 274.037 229.808 277.539 229.808C279.116 229.808 280.633 229.189 282.04 227.822C284.345 225.517 285.023 224.899 287.787 222.194C289.763 220.278 291.11 219.49 294.483 219.49H302.825C304.791 219.49 305.869 218.991 306.817 218.083C307.725 217.235 308.283 216.057 308.283 214.371C308.283 212.635 307.834 211.218 307.216 209.472C305.08 203.734 298.205 184.305 296.189 178.837L296.349 178.727C303.394 184.076 313.642 190.891 318.152 190.891C319.549 190.891 320.397 190.273 320.397 188.077C320.397 177.71 303.164 135.081 263.789 76.3865C242.834 45.1234 224.413 34.586 219.224 29.6366Z" fill="white"/>
<path d="M268.678 68.7229C275.783 65.7891 282.139 63.8832 287.877 63.8832C295.93 63.8832 302.526 63.8832 313.562 61.2888V56.1099C307.365 57.2374 300.779 58.5846 296.499 58.5846C293.964 58.5846 293.226 58.2453 293.226 57.4071C293.226 56.9081 293.565 56.5589 294.523 56.1697C301.278 53.2959 313.392 48.4463 320.377 45.9117V39.0464C306.347 44.2253 281.74 54.4135 264.956 63.5439C265.415 64.0928 268.349 68.2139 268.678 68.7229Z" fill="white"/>
<path d="M76.2204 67.8148C68.2874 77.2147 64.1163 84.8284 57.1812 101.722C58.3087 101.603 59.9452 101.493 61.7514 101.493C62.6594 101.493 63.3879 101.493 64.5653 101.553L65.4036 99.7465C69.2952 91.4043 74.534 80.1484 81.8583 71.477L84.3929 68.4934C91.9467 59.6423 96.6167 54.4035 99.5505 42.3593C100.568 38.0785 101.406 34.2467 104.28 31.4926C106.875 29.0179 110.148 27.9402 113.461 27.9402C116.275 27.9402 118.37 28.6187 121.404 29.906C124.158 31.0835 125.176 31.313 128.109 31.313C129.117 31.313 129.846 31.2531 130.524 31.2032L126.583 36.5019L131.931 40.2738C125.225 42.2396 121.673 48.7257 120.496 51.7093C120.276 52.328 120.156 52.7171 120.156 53.1163C120.156 53.5653 120.386 54.0144 121.054 54.0144C121.793 54.0144 122.352 53.4556 123.31 52.328C126.583 48.3764 129.177 45.6822 141.221 41.9103L132.709 35.484L139.136 26.0842H133.109C129.287 26.0842 126.752 26.0243 123.419 24.5075C118.909 22.422 116.604 21.5239 112.603 21.5239C107.703 21.5239 103.253 23.2702 99.5904 26.643C95.3694 30.5346 94.0622 35.7235 92.5454 41.4014C91.368 45.802 89.951 50.6416 86.8077 55.0921C84.1634 58.864 82.2575 60.72 76.2204 67.8148Z" fill="white"/>
<path d="M27.4447 46.69C13.6442 46.69 7.78679 53.3358 7.78679 57.7863C3.67559 59.4827 1.03125 64.0429 1.03125 68.2639C1.03125 76.6559 7.16811 82.6331 15.2807 82.6331C17.985 82.6331 20.749 81.5554 22.6649 80.0985C24.0719 80.5975 25.8681 80.8769 27.7241 80.8769C31.6158 80.8769 35.9465 79.5198 39 75.0793C39.449 75.1391 39.8482 75.1391 40.2972 75.1391C45.2466 75.1391 49.5374 71.8662 51.7826 67.5853C52.3414 66.5276 52.5709 65.6694 52.5709 65.0607C52.5709 64.442 52.2915 63.9331 51.6728 63.9331C50.8845 63.9331 50.7648 64.6716 49.3578 65.9588C46.2045 68.8326 41.3649 69.9103 36.4055 69.9103C33.9807 73.4528 30.9971 75.3188 27.5644 75.3188C25.0299 75.3188 23.0641 74.6402 21.0284 73.2931C19.3919 75.0992 17.3663 75.8277 15.4005 75.8277C10.95 75.8277 7.79677 72.7243 7.79677 68.214C7.79677 65.0607 9.82243 62.2467 12.6364 61.1691C13.1353 55.591 19.1026 51.8191 26.5466 51.8191C27.5046 51.8191 28.4625 51.869 29.4803 51.9887C30.6079 50.1925 33.3121 48.2767 37.1439 47.7677C37.9323 47.658 38.541 47.5981 39 47.3786C39.449 47.1491 39.6685 46.7 39.6685 46.2011C39.6685 45.7521 39.4989 45.3529 39.0598 45.0735C38.6707 44.844 37.9821 44.7342 37.2038 44.5746C33.6514 43.896 29.4305 41.7007 27.285 36.3522C18.7733 36.3522 12.5366 29.5268 12.5366 21.8732V21.3543C9.71267 20.2267 7.80675 17.5225 7.80675 14.3193C7.80675 10.0884 11.1296 6.71562 15.3506 6.71562C17.8852 6.71562 20.0805 7.95297 21.4974 9.809C22.6749 9.46973 24.022 9.35996 25.3193 9.35996C31.6258 9.35996 38.3913 13.3614 39.6785 21.1348C47.7911 21.8732 49.707 28.7385 50.2259 31.6123C50.4954 33.0792 50.7249 34.3165 51.6928 34.3165C52.7006 34.3165 52.9301 33.189 53.2694 31.6722C53.8881 28.7884 54.9558 26.4833 57.1012 24.6872C57.1012 17.3129 62.6194 10.9466 70.4526 10.9466C71.6301 8.35212 74.2246 6.55597 77.3179 6.55597C81.5489 6.55597 84.9217 9.81898 84.9217 14.1597C84.9217 16.6943 83.7442 18.8896 81.8782 20.2367C82.2773 21.7035 82.5467 23.0008 82.5467 24.2381C82.5467 28.978 79.7328 32.2909 74.5539 34.0371C73.8753 36.921 72.638 39.5054 70.6123 41.4213C67.2295 44.6943 63.7969 44.6943 63.7969 46.0414C63.7969 46.7699 64.2958 47.2289 65.7128 47.2289C71.9694 47.2289 78.1063 43.7264 78.8347 37.9288C84.8119 35.9031 88.4142 29.8661 88.4142 25.0863C88.4142 23.8489 88.3044 22.7812 87.7955 21.7634C89.432 20.1968 91.3479 17.4926 91.3479 13.4911C91.3479 9.9986 89.8212 6.45618 87.1269 3.85175C84.7221 1.52673 81.3992 0 77.5175 0C71.8896 0 68.2274 3.04348 66.1319 6.0271C59.995 6.0271 52.062 12.8425 52.062 22.5916H51.2138C50.655 19.2089 47.1525 16.9637 44.2388 16.7841C41.8638 9.68926 36.5153 3.61227 27.7241 3.61227C26.7163 3.61227 25.4789 3.67214 24.4012 3.8318C21.8068 1.46686 18.9429 0 14.9415 0C7.27788 0 1.03125 6.13686 1.03125 13.9102C1.03125 18.7598 3.22655 22.0727 7.39762 25.0164L7.33775 25.9245C7.33775 32.1113 14.0933 41.8005 24.1218 41.8005C24.1218 43.3771 26.0876 45.5225 28.2929 45.9117V46.7H27.4447V46.69Z" fill="white"/>
<path d="M178.96 292.943L166.178 289.67C160.879 288.323 158.404 287.355 158.404 284.102C158.404 280.939 161.228 278.404 167.754 278.404C171.586 278.404 175.079 279.252 177.334 281.617C179.19 283.583 178.851 284.601 180.317 285.389C181.226 285.838 182.233 285.838 183.81 285.838H190.176C191.194 285.838 191.923 285.668 192.481 285.05C192.94 284.541 193.21 283.753 193.21 282.455C193.21 279.522 191.304 275.75 187.921 272.876C183.411 268.994 176.316 266.41 167.754 266.41C152.327 266.41 142.189 273.734 142.189 285.439C142.189 289.61 143.706 292.983 146.181 295.627C149.054 298.73 153.166 300.876 159.133 302.393L172.035 305.646C175.578 306.554 178.741 307.631 178.741 310.715C178.741 315.505 173.672 317.131 168.253 317.131C165.609 317.131 162.855 316.632 160.6 315.505C159.023 314.716 157.676 313.599 156.708 312.072C155.87 310.775 155.58 309.817 154.293 309.088C153.505 308.629 152.547 308.579 151.25 308.579H144.265C142.748 308.579 142.019 309.028 141.511 309.647C141.002 310.266 140.832 311.164 140.832 312.072C140.832 314.317 141.62 317.131 143.476 319.676C147.757 325.413 156.708 330.043 168.144 330.043C179.409 330.043 195.006 325.363 195.006 310.266C195.006 306.374 193.878 303.051 191.803 300.347C189.149 296.944 185.377 294.589 178.96 292.943Z" fill="white"/>
<path d="M50.3159 47.4785C53.2995 51.8192 58.3088 60.2112 63.0487 71.3673C63.8869 69.9503 66.4214 66.5277 67.4393 65.45C63.0986 56.6588 56.0037 48.2668 52.9004 44.9539L50.3159 47.4785Z" fill="white"/>
<path d="M189.488 111.751C186.115 113.218 178.342 116.022 170.628 116.022C166.786 116.022 163.583 115.692 160.031 115.233C155.64 114.674 151.469 114.166 147.927 114.166C142.009 114.166 134.685 114.734 127.59 119.744L130.694 123.805C135.533 121.5 143.367 120.372 147.248 120.372C150.801 120.372 154.453 120.761 157.836 121.21C161.667 121.719 166.118 122.278 170.788 122.278C181.385 122.278 191.753 116.65 193.379 115.632C192.082 114.505 190.446 112.928 189.488 111.751Z" fill="white"/>
<path d="M120.775 119.474L117.512 115.243C104.889 120.093 90.8691 127.916 90.8691 135.919C90.8691 140.479 94.2519 144.082 101.846 144.082C113.002 144.082 124.886 138.454 134.416 133.215L133.059 131.359C132.271 130.221 131.592 129.892 130.524 129.892C129.846 129.892 129.107 130.161 128.499 130.451C120.336 134.452 111.485 138.454 103.263 138.454C98.5228 138.454 97.3453 136.997 97.3453 134.951C97.3453 129.214 113.002 122.558 120.775 119.474Z" fill="white"/>
<path d="M229.193 268.565H219.004V250.204C219.004 248.737 218.545 247.67 217.877 246.822C217.029 245.814 215.841 245.195 214.105 245.195H207.739C206.002 245.195 204.815 245.814 203.967 246.822C203.298 247.67 202.839 248.737 202.839 250.204V268.565H199.686C198.508 268.565 197.6 268.904 196.922 269.463C196.183 270.142 195.854 271.04 195.854 272.387V276.269C195.854 277.626 196.183 278.534 196.922 279.192C197.6 279.761 198.498 280.1 199.686 280.1H202.839V308.2C202.839 315.405 204.815 319.915 208.477 323.517C211.85 326.84 216.25 328.926 223.904 328.926H228.694C229.871 328.926 230.769 328.587 231.448 328.018C232.186 327.349 232.625 326.451 232.625 325.094V320.195C232.625 318.847 232.176 317.939 231.448 317.271C230.769 316.702 229.871 316.363 228.694 316.363H228.015C224.972 316.363 222.886 315.574 221.469 314.217C219.783 312.641 218.935 310.226 218.935 307.063V280.09H229.193C230.37 280.09 231.278 279.751 231.947 279.182C232.685 278.514 233.014 277.606 233.014 276.259V272.377C233.014 271.02 232.675 270.122 231.947 269.453C231.288 268.904 230.38 268.565 229.193 268.565Z" fill="white"/>
<path d="M314.82 257.798C315.997 257.798 316.895 257.459 317.574 256.89C318.312 256.222 318.642 255.313 318.642 253.966V248.728C318.642 246.692 318.252 245.674 317.574 244.946C316.965 244.277 315.937 243.888 314.82 243.888C313.912 243.888 313.014 243.998 311.497 244.157L266.543 248.608C265.256 248.728 264.627 249.117 264.178 249.626C263.659 250.194 263.45 250.913 263.45 251.931V254.864C263.45 255.992 263.669 256.491 264.068 256.95C264.567 257.509 265.306 257.788 266.314 257.788H314.82V257.798Z" fill="white"/>
<path d="M59.556 203.554C55.784 205.76 51.104 206.777 46.9928 206.777C45.2466 206.777 44.4583 207.117 43.8396 207.735C43.1611 208.404 42.8218 209.422 42.8218 210.829V212.794H44.2288C51.7726 212.794 58.7577 211.617 66.4213 205.59L91.3679 186.092C94.9202 190.153 103.871 195.781 114.458 195.781C120.436 195.781 124.257 194.324 129.776 192.917C134.056 191.849 138.228 190.881 147.348 190.881H173.761C187.283 190.881 193.819 188.067 201.023 184.016C216.69 175.225 230.031 160.357 237.585 143.293C235.609 142.046 233.753 140.918 232.176 139.851C223.725 157.652 210.882 170.615 197.7 178.099C191.454 181.651 185.816 183.956 173.652 183.956H147.348C137.948 183.956 132.031 185.194 127.421 186.371C122.461 187.668 119.298 188.965 114.299 188.965C106.865 188.965 99.9794 185.303 96.6565 181.811L102.863 176.911L99.7699 172.8C97.9637 174.097 75.9409 190.372 71.3208 194.035L71.0513 193.865C71.1611 192.737 71.1611 191.73 71.1611 190.722C71.1611 178.328 65.4134 175.345 56.6821 171.852L50.7648 175.355C62.7591 179.346 65.7427 182.559 65.7427 191.52C65.7427 198.605 63.2181 201.419 59.556 203.554Z" fill="white"/>
<path d="M3.28642 194.943C7.50739 194.943 8.00632 192.408 8.00632 189.983C8.00632 188.357 7.95643 186.491 7.95643 184.465C8.00632 179.795 8.18593 175.624 15.7298 172.241C18.7733 170.894 33.6913 164.807 44.7976 160.077C48.0706 158.67 51.1041 157.493 54.4868 157.493C58.2587 157.493 62.5995 159.119 67.9979 162.342C72.5681 165.047 77.3579 168.709 81.1298 172.93L85.9095 169.268C81.7984 164.428 76.1105 160.087 70.4227 156.714C64.7349 153.342 59.6657 151.356 55.3849 151.356C53.5289 151.356 51.9922 151.695 50.7049 152.034C49.1782 152.434 47.7712 152.883 45.9651 152.883C43.8895 152.883 42.1333 152.384 39.5987 149.45C38.6507 148.382 32.5538 141.457 31.2665 139.431C30.6379 138.474 29.5203 136.548 29.5203 134.302C29.5203 133.344 29.6899 132.217 30.2487 131.209C35.4875 135.27 41.9736 137.745 49.8567 138.703L48.779 133.354C37.4633 130.371 25.3991 120.402 25.3991 113.976C25.3991 112.619 25.7384 111.671 26.2373 110.473C30.6279 114.535 40.9458 118.766 46.5139 118.766C49.5574 118.766 52.0421 117.748 54.397 116.79C56.6522 115.892 58.9074 115.004 61.9409 115.004C69.1554 115.004 78.0464 118.486 85.8796 121.809C86.3386 121.979 86.8376 122.099 87.3365 122.099C88.5838 122.099 89.5418 121.53 90.1605 120.342L91.1783 118.486C82.5667 113.477 68.8161 108.119 61.6515 108.119C58.3885 108.119 56.0235 108.967 53.7684 109.865C51.2338 110.873 49.0385 111.94 46.7234 111.94C41.0356 111.94 26.4468 106.312 26.4468 100.844C26.4468 94.4178 49.6472 91.9431 52.1917 91.9431L54.4968 86.7043C37.6628 86.7043 17.6058 92.6117 17.6058 100.445C17.6058 102.7 18.903 103.818 18.903 105.903C18.903 108.727 17.6058 110.643 17.6058 113.786C17.6058 115.872 18.8531 118.516 20.31 120.831C21.8866 123.256 23.7526 124.833 23.7526 126.868C23.7526 128.385 22.7348 130.181 22.7348 133.734C22.7348 141.337 27.0755 145.958 35.5174 155.018L37.2038 156.824C30.2188 159.528 17.2066 165.156 14.1631 166.454C3.67559 170.834 1.03125 176.193 1.03125 184.645C1.03125 187.908 1.03125 191.62 1.25078 194.943H3.28642Z" fill="white"/>
<path d="M1067.41 281.318C1063.89 279.162 1059.83 278.085 1055.25 278.085C1050.68 278.085 1046.63 279.162 1043.1 281.318C1039.57 283.473 1036.83 286.507 1034.87 290.428C1032.9 294.35 1031.92 298.85 1031.92 303.949C1031.92 309.048 1032.88 313.569 1034.82 317.52C1036.74 321.472 1039.48 324.525 1043 326.681C1046.52 328.836 1050.57 329.914 1055.15 329.914C1059.79 329.914 1063.88 328.816 1067.4 326.631C1070.93 324.445 1073.65 321.392 1075.58 317.47C1077.51 313.549 1078.47 309.009 1078.47 303.85C1078.47 298.75 1077.51 294.26 1075.58 290.378C1073.66 286.497 1070.94 283.473 1067.41 281.318ZM1070 314.786C1068.6 317.959 1066.61 320.424 1064.03 322.18C1061.44 323.947 1058.49 324.825 1055.15 324.825C1051.82 324.825 1048.89 323.957 1046.33 322.23C1043.79 320.504 1041.81 318.049 1040.41 314.886C1039 311.723 1038.3 308.071 1038.3 303.959C1038.3 299.908 1039 296.306 1040.41 293.133C1041.81 289.959 1043.79 287.515 1046.33 285.788C1048.88 284.052 1051.82 283.194 1055.15 283.194C1058.49 283.194 1061.44 284.042 1064.03 285.738C1066.61 287.435 1068.6 289.85 1070 292.993C1071.41 296.126 1072.11 299.718 1072.11 303.77C1072.12 307.941 1071.41 311.613 1070 314.786Z" fill="white"/>
<path d="M1011.85 281.318C1008.32 279.162 1004.27 278.085 999.693 278.085C995.123 278.085 991.072 279.162 987.539 281.318C984.007 283.473 981.273 286.507 979.307 290.428C977.341 294.35 976.363 298.85 976.363 303.949C976.363 309.048 977.331 313.569 979.257 317.52C981.183 321.472 983.907 324.525 987.44 326.681C990.972 328.836 995.013 329.914 999.594 329.914C1004.23 329.914 1008.31 328.816 1011.84 326.631C1015.37 324.445 1018.09 321.392 1020.02 317.47C1021.95 313.549 1022.91 309.009 1022.91 303.85C1022.91 298.75 1021.95 294.26 1020.02 290.378C1018.1 286.497 1015.38 283.473 1011.85 281.318ZM1014.45 314.786C1013.04 317.959 1011.06 320.424 1008.47 322.18C1005.89 323.947 1002.94 324.825 999.604 324.825C996.271 324.825 993.337 323.957 990.782 322.23C988.238 320.504 986.262 318.049 984.855 314.886C983.448 311.723 982.75 308.071 982.75 303.959C982.75 299.908 983.448 296.306 984.855 293.133C986.262 289.959 988.238 287.515 990.782 285.788C993.327 284.052 996.271 283.194 999.604 283.194C1002.94 283.194 1005.89 284.042 1008.47 285.738C1011.06 287.435 1013.04 289.85 1014.45 292.993C1015.86 296.126 1016.56 299.718 1016.56 303.77C1016.56 307.941 1015.85 311.613 1014.45 314.786Z" fill="white"/>
<path d="M1126.99 288.473C1125.35 285.269 1122.96 282.745 1119.79 280.879C1116.61 279.013 1113.11 278.085 1109.25 278.085C1105 278.085 1101.23 279.163 1097.93 281.318C1094.63 283.473 1092.07 286.497 1090.24 290.379C1088.41 294.26 1087.5 298.761 1087.5 303.85C1087.5 308.949 1088.41 313.469 1090.24 317.421C1092.07 321.372 1094.65 324.446 1097.98 326.631C1101.32 328.816 1105.17 329.914 1109.55 329.914C1113.47 329.914 1116.99 328.986 1120.14 327.12C1123.27 325.254 1125.62 322.699 1127.19 319.426L1127.78 328.736H1132.97V257.688H1126.99V288.473ZM1124.89 314.936C1123.48 318.069 1121.5 320.504 1118.96 322.24C1116.41 323.967 1113.5 324.835 1110.24 324.835C1105.21 324.835 1101.23 322.939 1098.28 319.147C1095.34 315.355 1093.87 310.296 1093.87 303.959C1093.87 297.563 1095.38 292.494 1098.38 288.772C1101.39 285.05 1105.37 283.184 1110.34 283.184C1113.67 283.184 1116.59 284.062 1119.11 285.828C1121.62 287.594 1123.57 290.039 1124.94 293.183C1126.3 296.316 1126.99 299.948 1126.99 304.059C1126.99 308.17 1126.28 311.793 1124.89 314.936Z" fill="white"/>
<path d="M856.021 341H861.31L868.854 319.147H861.02L856.021 341Z" fill="white"/>
<path d="M924.344 265.891C928.326 263.306 932.936 262.019 938.165 262.019C946.916 262.019 953.741 265.911 958.641 273.684L963.441 270.062C960.567 265.621 956.985 262.259 952.714 259.973C948.433 257.688 943.583 256.541 938.165 256.541C931.699 256.541 925.961 258.107 920.972 261.241C915.972 264.374 912.091 268.735 909.307 274.323C906.533 279.911 905.146 286.227 905.146 293.282C905.146 300.337 906.612 306.644 909.556 312.192C912.5 317.75 916.611 322.09 921.9 325.224C927.188 328.357 933.235 329.924 940.031 329.924C948.323 329.924 956.096 327.768 963.351 323.458V292.683H937.676V297.972H956.985V320.214C952.085 323.028 946.537 324.425 940.33 324.425C934.782 324.425 929.843 323.098 925.532 320.454C921.221 317.81 917.858 314.088 915.443 309.278C913.029 304.478 911.821 299.01 911.821 292.863C911.821 286.786 912.919 281.418 915.104 276.748C917.27 272.097 920.363 268.465 924.344 265.891Z" fill="white"/>
<path d="M1197.34 304.009V328.746H1203.32V304.009V279.262H1197.34V304.009Z" fill="white"/>
<path d="M1286.25 301.904C1286.25 294.589 1284.37 288.792 1280.61 284.511C1276.85 280.23 1271.78 278.095 1265.37 278.095C1260.8 278.095 1256.78 279.162 1253.32 281.278C1249.86 283.403 1247.18 286.407 1245.29 290.289C1243.39 294.18 1242.44 298.671 1242.44 303.76C1242.44 308.919 1243.42 313.479 1245.39 317.43C1247.34 321.382 1250.13 324.455 1253.72 326.641C1257.31 328.826 1261.46 329.924 1266.16 329.924C1270.27 329.924 1274.07 329.076 1277.53 327.379C1280.99 325.683 1283.79 323.298 1285.95 320.225L1281.84 316.692C1279.81 319.366 1277.48 321.392 1274.83 322.769C1272.19 324.146 1269.3 324.825 1266.16 324.825C1260.87 324.825 1256.64 323.009 1253.47 319.386C1250.3 315.764 1248.68 310.785 1248.62 304.438H1286.15C1286.21 303.86 1286.25 303.011 1286.25 301.904ZM1248.91 299.349C1249.56 294.19 1251.31 290.209 1254.15 287.395C1256.99 284.581 1260.69 283.184 1265.27 283.184C1269.84 283.184 1273.44 284.601 1276.05 287.445C1278.67 290.289 1280.03 294.26 1280.16 299.349H1248.91Z" fill="white"/>
<path d="M1225.12 260.353C1222.61 262.897 1221.35 266.43 1221.35 270.94V279.272H1212.83V284.371H1221.35V328.756H1227.33V284.371H1239.67V279.272H1227.33V271.339C1227.33 268.336 1228.12 266.001 1229.73 264.334C1231.33 262.668 1233.57 261.839 1236.45 261.839C1238.14 261.839 1239.94 262.169 1241.83 262.817V257.429C1240.07 256.84 1237.98 256.551 1235.56 256.551C1231.12 256.531 1227.64 257.808 1225.12 260.353Z" fill="white"/>
<path d="M838.908 288.473C837.271 285.269 834.876 282.745 831.703 280.879C828.53 279.013 825.027 278.085 821.166 278.085C816.915 278.085 813.143 279.163 809.85 281.318C806.547 283.473 803.982 286.497 802.156 290.379C800.33 294.26 799.412 298.761 799.412 303.85C799.412 308.949 800.33 313.469 802.156 317.421C803.982 321.372 806.567 324.446 809.9 326.631C813.232 328.816 817.084 329.914 821.465 329.914C825.386 329.914 828.909 328.986 832.052 327.12C835.185 325.254 837.54 322.699 839.107 319.426L839.696 328.736H844.885V257.688H838.908V288.473ZM836.802 314.936C835.395 318.069 833.419 320.504 830.875 322.24C828.33 323.967 825.416 324.835 822.153 324.835C817.124 324.835 813.143 322.939 810.199 319.147C807.255 315.355 805.788 310.296 805.788 303.959C805.788 297.563 807.285 292.494 810.299 288.772C813.302 285.05 817.284 283.184 822.253 283.184C825.586 283.184 828.51 284.062 831.024 285.828C833.539 287.594 835.485 290.039 836.852 293.183C838.219 296.316 838.908 299.948 838.908 304.059C838.908 308.17 838.209 311.793 836.802 314.936Z" fill="white"/>
<path d="M74.2546 19.4882C74.2546 19.0391 73.8555 18.5901 73.3066 18.5901C72.7877 18.5901 72.5183 18.9294 72.0094 19.3285C69.864 21.1845 67.9481 23.0406 65.9324 25.3556C63.0586 28.5687 60.6437 32.8396 58.668 37.5196L61.7015 39.3756C63.787 36.2722 70.4927 25.6849 73.9253 20.3363C74.1349 20.0071 74.2546 19.7177 74.2546 19.4882Z" fill="white"/>
<path d="M1175.5 293.222V328.746H1181.47V293.222V257.708H1175.5V293.222Z" fill="white"/>
<path d="M1200.18 259.963C1198.94 259.963 1197.93 260.343 1197.15 261.091C1196.36 261.839 1195.97 262.837 1195.97 264.085C1195.97 265.262 1196.36 266.26 1197.15 267.068C1197.94 267.886 1198.95 268.296 1200.18 268.296C1201.42 268.296 1202.49 267.886 1203.37 267.068C1204.25 266.25 1204.69 265.252 1204.69 264.085C1204.69 262.847 1204.27 261.849 1203.42 261.091C1202.57 260.333 1201.49 259.963 1200.18 259.963Z" fill="white"/>
<path d="M191.573 256.9C192.302 256.231 192.641 255.323 192.641 253.976V249.007C192.641 247.66 192.302 246.752 191.573 246.083C190.895 245.514 189.997 245.185 188.819 245.185H60.3942C58.2488 245.185 56.9016 245.914 55.9437 247.041C55.1554 248.009 54.7063 249.067 54.7063 250.923V302.073H54.417C54.417 302.073 26.4269 252.17 25.0698 249.865C24.1118 248.219 23.0441 247.101 21.6371 246.253C20.2301 245.464 18.7633 244.956 15.9493 244.956H6.71907C4.57367 244.956 3.22655 245.684 2.2686 246.812C1.48029 247.77 1.03125 248.847 1.03125 250.703V323.188C1.03125 325.044 1.48029 326.122 2.2686 327.08C3.22655 328.207 4.57367 328.936 6.71907 328.936H11.9579C14.1033 328.936 15.4504 328.207 16.4083 327.08C17.1966 326.122 17.6457 325.044 17.6457 323.188V270.82H17.9351C17.9351 270.82 47.0028 322.3 48.1803 324.216C49.8168 326.91 52.5709 328.946 56.5225 328.946H65.4833C67.6187 328.946 68.9658 328.217 69.9238 327.09C70.7221 326.132 71.1611 325.054 71.1611 323.198V257.808H188.829C189.997 257.798 190.895 257.459 191.573 256.9Z" fill="white"/>
<path d="M107.314 266.42C87.7658 266.42 76.7793 281.687 76.7793 297.793C76.7793 314.976 88.5541 330.073 107.414 330.073C116.824 330.073 126.054 326.521 131.352 320.274C133.668 317.56 135.534 313.788 135.534 311.483C135.534 310.695 135.364 310.016 134.915 309.517C134.466 308.949 133.787 308.609 132.61 308.609H123.539C121.743 308.609 120.496 309.278 119.598 310.645C116.953 314.527 113.112 316.562 107.484 316.562C99.0416 316.562 93.5733 310.136 93.1842 303.091H132.39C134.137 303.091 135.374 302.702 136.212 301.854C137.18 300.956 137.629 299.659 137.629 297.244C137.629 289.86 135.324 282.196 130.474 276.348C125.515 270.421 117.951 266.42 107.314 266.42ZM93.284 291.087C94.0224 284.162 99.3111 278.983 107.364 278.983C115.257 278.983 120.715 284.162 121.444 291.087H93.284Z" fill="white"/>
<path d="M21.1382 65.0606C21.1382 65.4598 21.4176 65.9587 22.0363 65.9587C22.4254 65.9587 22.7647 65.799 23.5031 65.5097L44.109 58.5246L43.1012 55.1418C34.7091 56.5488 28.6222 58.6942 21.697 64.0927C21.2978 64.4419 21.1382 64.6714 21.1382 65.0606Z" fill="white"/>
<path d="M33.6412 24.8469C30.488 22.4221 26.9455 20.4563 22.7745 18.75L22.046 18.5803C21.4274 18.5803 21.1479 19.0294 21.1479 19.4285C21.1479 19.7678 21.2577 20.0472 21.7666 20.4962C26.6661 24.6573 36.1359 32.6103 39.0596 35.0251L41.4146 32.3209C38.88 29.3473 36.2756 26.8726 33.6412 24.8469Z" fill="white"/>
<path d="M409.906 265.891C413.887 263.306 418.498 262.019 423.726 262.019C432.478 262.019 439.303 265.911 444.202 273.684L449.002 270.062C446.128 265.621 442.546 262.259 438.275 259.973C433.994 257.688 429.145 256.541 423.726 256.541C417.26 256.541 411.522 258.107 406.533 261.241C401.534 264.374 397.652 268.735 394.868 274.323C392.094 279.911 390.707 286.227 390.707 293.282C390.707 300.337 392.174 306.644 395.118 312.192C398.061 317.75 402.172 322.09 407.461 325.224C412.75 328.357 418.797 329.924 425.592 329.924C433.885 329.924 441.658 327.768 448.912 323.458V292.683H423.237V297.972H442.536V320.214C437.637 323.028 432.088 324.425 425.882 324.425C420.334 324.425 415.394 323.098 411.083 320.454C406.773 317.81 403.41 314.088 400.985 309.278C398.57 304.478 397.363 299.01 397.363 292.863C397.363 286.786 398.46 281.418 400.646 276.748C402.841 272.097 405.924 268.465 409.906 265.891Z" fill="white"/>
<path d="M612.552 288.473C610.916 285.269 608.521 282.745 605.348 280.879C602.174 279.013 598.672 278.085 594.81 278.085C590.559 278.085 586.787 279.163 583.494 281.318C580.191 283.473 577.627 286.497 575.801 290.379C573.975 294.26 573.057 298.761 573.057 303.85C573.057 308.949 573.975 313.469 575.801 317.421C577.627 321.372 580.211 324.446 583.544 326.631C586.877 328.816 590.729 329.914 595.109 329.914C599.031 329.914 602.554 328.986 605.697 327.12C608.83 325.254 611.185 322.699 612.752 319.426L613.34 328.736H618.529V257.688H612.552V288.473ZM610.447 314.936C609.04 318.069 607.064 320.504 604.519 322.24C601.975 323.967 599.061 324.835 595.798 324.835C590.769 324.835 586.787 322.939 583.844 319.147C580.9 315.355 579.433 310.296 579.433 303.959C579.433 297.563 580.93 292.494 583.943 288.772C586.947 285.05 590.928 283.184 595.898 283.184C599.231 283.184 602.154 284.062 604.669 285.828C607.184 287.594 609.129 290.039 610.497 293.183C611.874 296.316 612.552 299.948 612.552 304.059C612.552 308.17 611.854 311.793 610.447 314.936Z" fill="white"/>
<path d="M497.409 281.318C493.886 279.162 489.835 278.085 485.255 278.085C480.685 278.085 476.633 279.162 473.101 281.318C469.568 283.473 466.824 286.507 464.868 290.428C462.913 294.35 461.925 298.85 461.925 303.949C461.925 309.048 462.883 313.569 464.819 317.52C466.744 321.472 469.469 324.525 473.001 326.681C476.524 328.836 480.575 329.914 485.155 329.914C489.795 329.914 493.876 328.816 497.399 326.631C500.931 324.445 503.655 321.392 505.581 317.47C507.507 313.549 508.475 309.009 508.475 303.85C508.475 298.75 507.507 294.26 505.581 290.378C503.665 286.497 500.941 283.473 497.409 281.318ZM500.013 314.786C498.606 317.959 496.611 320.424 494.036 322.18C491.452 323.947 488.498 324.825 485.165 324.825C481.832 324.825 478.888 323.957 476.344 322.23C473.799 320.504 471.824 318.049 470.417 314.886C469.01 311.723 468.311 308.071 468.311 303.959C468.311 299.908 469.01 296.306 470.417 293.133C471.824 289.959 473.799 287.515 476.344 285.788C478.888 284.052 481.832 283.194 485.165 283.194C488.498 283.194 491.452 284.042 494.036 285.738C496.611 287.435 498.606 289.85 500.013 292.993C501.42 296.126 502.119 299.718 502.119 303.77C502.119 307.941 501.41 311.613 500.013 314.786Z" fill="white"/>
<path d="M666.986 260.353C664.471 262.897 663.214 266.43 663.214 270.94V279.272H654.692V284.371H663.214V328.756H669.191V284.371H681.534V279.272H669.191V271.339C669.191 268.336 669.989 266.001 671.596 264.334C673.192 262.668 675.437 261.839 678.311 261.839C680.008 261.839 681.804 262.169 683.7 262.817V257.429C681.934 256.84 679.848 256.551 677.423 256.551C672.983 256.531 669.5 257.808 666.986 260.353Z" fill="white"/>
<path d="M723.774 281.318C720.252 279.162 716.2 278.085 711.62 278.085C707.05 278.085 702.999 279.162 699.466 281.318C695.934 283.473 693.2 286.507 691.234 290.428C689.268 294.35 688.29 298.85 688.29 303.949C688.29 309.048 689.248 313.569 691.184 317.52C693.11 321.472 695.844 324.525 699.366 326.681C702.889 328.836 706.94 329.914 711.52 329.914C716.16 329.914 720.242 328.816 723.764 326.631C727.297 324.445 730.021 321.392 731.947 317.47C733.872 313.549 734.84 309.009 734.84 303.85C734.84 298.75 733.872 294.26 731.947 290.378C730.021 286.497 727.297 283.473 723.774 281.318ZM726.369 314.786C724.962 317.959 722.976 320.424 720.391 322.18C717.807 323.947 714.853 324.825 711.52 324.825C708.187 324.825 705.254 323.957 702.699 322.23C700.155 320.504 698.179 318.049 696.772 314.886C695.365 311.723 694.666 308.071 694.666 303.959C694.666 299.908 695.365 296.306 696.772 293.133C698.179 289.959 700.155 287.515 702.699 285.788C705.244 284.052 708.187 283.194 711.52 283.194C714.853 283.194 717.807 284.042 720.391 285.738C722.976 287.435 724.962 289.85 726.369 292.993C727.776 296.126 728.474 299.718 728.474 303.77C728.474 307.941 727.766 311.613 726.369 314.786Z" fill="white"/>
<path d="M552.97 281.318C549.437 279.162 545.386 278.085 540.816 278.085C536.246 278.085 532.194 279.162 528.662 281.318C525.139 283.473 522.395 286.507 520.43 290.428C518.474 294.35 517.486 298.85 517.486 303.949C517.486 309.048 518.454 313.569 520.38 317.52C522.306 321.472 525.03 324.525 528.562 326.681C532.095 328.836 536.136 329.914 540.716 329.914C545.356 329.914 549.437 328.816 552.97 326.631C556.492 324.445 559.226 321.392 561.152 317.47C563.078 313.549 564.046 309.009 564.046 303.85C564.046 298.75 563.078 294.26 561.152 290.378C559.226 286.497 556.502 283.473 552.97 281.318ZM555.574 314.786C554.167 317.959 552.182 320.424 549.597 322.18C547.013 323.947 544.059 324.825 540.726 324.825C537.393 324.825 534.45 323.957 531.905 322.23C529.36 320.504 527.385 318.049 525.978 314.886C524.571 311.723 523.872 308.071 523.872 303.959C523.872 299.908 524.571 296.306 525.978 293.133C527.385 289.959 529.36 287.515 531.905 285.788C534.45 284.052 537.393 283.194 540.726 283.194C544.059 283.194 547.013 284.042 549.597 285.738C552.172 287.435 554.167 289.85 555.574 292.993C556.981 296.126 557.68 299.718 557.68 303.77C557.68 307.941 556.971 311.613 555.574 314.786Z" fill="white"/>
<path d="M779.335 281.318C775.813 279.162 771.761 278.085 767.181 278.085C762.611 278.085 758.56 279.162 755.027 281.318C751.495 283.473 748.761 286.507 746.795 290.428C744.829 294.35 743.851 298.85 743.851 303.949C743.851 309.048 744.819 313.569 746.745 317.52C748.671 321.472 751.405 324.525 754.927 326.681C758.46 328.836 762.501 329.914 767.081 329.914C771.721 329.914 775.803 328.816 779.325 326.631C782.858 324.445 785.582 321.392 787.508 317.47C789.433 313.549 790.401 309.009 790.401 303.85C790.401 298.75 789.433 294.26 787.508 290.378C785.582 286.497 782.858 283.473 779.335 281.318ZM781.93 314.786C780.523 317.959 778.537 320.424 775.952 322.18C773.368 323.947 770.414 324.825 767.081 324.825C763.749 324.825 760.815 323.957 758.26 322.23C755.716 320.504 753.74 318.049 752.333 314.886C750.926 311.723 750.227 308.071 750.227 303.959C750.227 299.908 750.926 296.306 752.333 293.133C753.74 289.959 755.716 287.515 758.26 285.788C760.805 284.052 763.749 283.194 767.081 283.194C770.414 283.194 773.368 284.042 775.952 285.738C778.537 287.435 780.523 289.85 781.93 292.993C783.337 296.126 784.035 299.718 784.035 303.77C784.035 307.941 783.327 311.613 781.93 314.786Z" fill="white"/>
</g>
<defs>
<clipPath id="clip0_1879_273">
<rect width="1316" height="341" fill="white"/>
</clipPath>
</defs>
</svg>
