<svg width="52" height="52" viewBox="0 0 52 52" fill="none" xmlns="http://www.w3.org/2000/svg">
<path d="M25.9992 13.9999H13.9992M13.9992 13.9999H9.94052C7.78852 13.9999 5.58585 14.5013 4.26052 16.1973C2.84719 18.0079 1.33252 21.0906 1.33252 25.9999C1.33252 30.9066 2.84719 33.9919 4.26052 35.8026C5.58585 37.4986 7.78852 37.9999 9.94052 37.9999H13.9992M13.9992 13.9999V9.94125C13.9992 7.78925 14.5005 5.58659 16.1965 4.26125C18.0072 2.84792 21.0899 1.33325 25.9992 1.33325C30.9059 1.33325 33.9912 2.84792 35.8018 4.26125C37.4978 5.58659 37.9992 7.78925 37.9992 9.94125V13.9999M25.9992 37.9999H37.9992M37.9992 37.9999H42.0552C44.2072 37.9999 46.4125 37.4986 47.7352 35.8026C49.1512 33.9919 50.6658 30.9093 50.6658 25.9999C50.6658 21.0933 49.1512 18.0079 47.7379 16.1973C46.4125 14.5013 44.2072 13.9999 42.0578 13.9999H37.9992M37.9992 37.9999V42.0559C37.9992 44.2079 37.4978 46.4132 35.8018 47.7359C33.9912 49.1519 30.9085 50.6666 25.9992 50.6666C21.0925 50.6666 18.0072 49.1519 16.1965 47.7386C14.5005 46.4133 13.9992 44.2079 13.9992 42.0586V37.9999M37.9992 13.9999V20.6666C37.9992 22.0811 37.4373 23.4376 36.4371 24.4378C35.4369 25.438 34.0803 25.9999 32.6659 25.9999H19.3325C17.918 25.9999 16.5615 26.5618 15.5613 27.562C14.5611 28.5622 13.9992 29.9188 13.9992 31.3333V37.9999" stroke="white" stroke-width="1.5" stroke-linecap="round" stroke-linejoin="round"/>
<path d="M33.999 43.3332C33.999 43.8636 33.7883 44.3723 33.4132 44.7474C33.0382 45.1225 32.5295 45.3332 31.999 45.3332C31.4686 45.3332 30.9599 45.1225 30.5848 44.7474C30.2097 44.3723 29.999 43.8636 29.999 43.3332C29.999 42.8027 30.2097 42.294 30.5848 41.919C30.9599 41.5439 31.4686 41.3332 31.999 41.3332C32.5295 41.3332 33.0382 41.5439 33.4132 41.919C33.7883 42.294 33.999 42.8027 33.999 43.3332ZM17.999 8.6665C17.999 8.13607 18.2097 7.62736 18.5848 7.25229C18.9599 6.87722 19.4686 6.6665 19.999 6.6665C20.5295 6.6665 21.0382 6.87722 21.4132 7.25229C21.7883 7.62736 21.999 8.13607 21.999 8.6665C21.999 9.19694 21.7883 9.70565 21.4132 10.0807C21.0382 10.4558 20.5295 10.6665 19.999 10.6665C19.4686 10.6665 18.9599 10.4558 18.5848 10.0807C18.2097 9.70565 17.999 9.19694 17.999 8.6665Z" fill="white"/>
</svg>
